<?xml version="1.0" standalone="no"?>
<!DOCTYPE svg PUBLIC "-//W3C//DTD SVG 20010904//EN"
 "http://www.w3.org/TR/2001/REC-SVG-20010904/DTD/svg10.dtd">
<svg version="1.0" xmlns="http://www.w3.org/2000/svg"
 width="500.000000pt" height="500.000000pt" viewBox="0 0 500.000000 500.000000"
 preserveAspectRatio="xMidYMid meet">
<metadata>
Created by potrace 1.16, written by Peter Selinger 2001-2019
</metadata>
<g transform="translate(0.000000,500.000000) scale(0.100000,-0.100000)"
fill="#000000" stroke="none">
<path d="M3918 4790 c-35 -29 -36 -31 -33 -91 3 -58 1 -66 -36 -121 -21 -33
-39 -64 -39 -69 0 -5 -8 -17 -17 -27 -10 -10 -27 -36 -38 -58 -11 -21 -38 -66
-60 -99 -22 -33 -40 -62 -40 -65 0 -5 -47 -88 -85 -151 -87 -146 -135 -225
-140 -229 -5 -5 -9 -12 -52 -89 -11 -20 -28 -47 -37 -61 -9 -14 -25 -42 -36
-64 -11 -21 -25 -41 -32 -43 -7 -3 -10 -9 -7 -14 10 -16 -17 -39 -46 -39 -36
0 -81 -23 -113 -60 -21 -23 -33 -28 -54 -25 -34 6 -410 52 -543 66 -52 6 -144
13 -203 16 l-108 5 -55 -33 c-29 -18 -57 -41 -60 -51 -3 -10 -12 -18 -20 -18
-8 0 -14 -7 -14 -15 0 -8 -4 -23 -9 -33 -13 -24 -24 -56 -23 -64 2 -11 -49
-232 -58 -249 -5 -9 -7 -19 -5 -21 3 -3 -8 -61 -24 -129 -15 -68 -38 -171 -50
-229 -43 -206 -39 -197 -80 -198 -58 -3 -100 16 -108 46 -11 46 -32 70 -68 76
-27 5 -36 13 -41 34 -3 15 -8 34 -11 42 -3 8 -10 31 -15 50 -5 19 -13 49 -18
65 -17 61 -50 182 -90 330 -10 39 -35 129 -55 200 -77 276 -87 311 -92 340 -3
17 -9 35 -13 40 -7 10 -23 77 -25 102 0 6 -4 15 -8 19 -4 4 -7 17 -7 28 0 12
-7 34 -15 50 -37 71 3 84 50 16 27 -39 35 -102 20 -150 -4 -13 0 -26 11 -37
16 -16 18 -16 35 6 11 13 19 33 20 45 3 66 0 104 -12 131 -7 17 -11 35 -10 40
2 6 0 7 -4 4 -3 -4 -20 7 -36 22 -18 17 -48 32 -70 35 -43 7 -50 13 -54 50 -3
31 -29 59 -45 49 -14 -8 -12 -21 24 -170 44 -178 55 -229 50 -236 -2 -4 1 -9
7 -11 6 -2 27 -64 46 -138 19 -74 39 -151 45 -170 5 -19 13 -51 18 -70 10 -39
18 -70 50 -180 11 -41 29 -106 40 -145 10 -38 28 -104 39 -145 57 -205 66
-251 51 -264 -38 -30 -52 -95 -28 -139 13 -25 49 -53 62 -49 14 5 54 -26 61
-48 11 -33 50 -23 50 13 -1 24 2 27 20 23 11 -4 46 -9 78 -13 l58 -6 -6 -31
c-3 -17 -11 -50 -16 -72 -10 -38 -9 -149 1 -184 3 -8 12 -21 20 -28 11 -10 11
-12 1 -6 -9 5 -12 3 -7 -4 4 -7 13 -12 21 -12 7 0 15 -4 17 -9 2 -5 53 -42
113 -83 61 -40 130 -89 155 -107 25 -18 65 -43 90 -55 61 -29 86 -53 47 -47
-4 0 -6 -3 -5 -8 2 -5 -50 -62 -114 -125 -65 -64 -115 -116 -112 -116 2 0 -1
-6 -8 -14 -7 -8 -16 -12 -20 -9 -5 2 -8 -1 -8 -7 0 -6 -15 -25 -34 -44 l-34
-33 -34 64 c-44 86 -76 122 -115 129 -27 5 -33 3 -47 -24 -13 -25 -13 -32 -1
-48 8 -11 15 -29 15 -42 0 -16 4 -21 13 -16 6 4 9 4 5 -1 -4 -4 -3 -14 3 -22
6 -7 9 -13 6 -13 -4 0 5 -16 18 -36 22 -32 26 -45 25 -69 -1 -3 6 -13 15 -21
8 -9 13 -20 10 -25 -4 -5 -2 -9 4 -9 5 0 12 -8 16 -18 8 -29 49 -44 71 -27 10
7 25 10 34 7 8 -3 12 -2 9 2 -8 9 112 132 124 128 5 -1 6 2 3 6 -3 5 25 37 62
70 37 33 109 100 159 149 151 144 139 136 203 129 54 -6 118 -18 191 -37 20
-5 47 -9 59 -9 13 0 37 -4 54 -9 37 -12 141 -33 176 -36 14 -2 37 -8 53 -14
24 -10 27 -15 27 -62 0 -28 4 -92 10 -142 5 -51 12 -153 15 -227 2 -74 7 -201
11 -283 l7 -147 -29 -23 c-16 -12 -32 -21 -35 -20 -4 1 -5 -7 -2 -17 6 -22 3
-22 238 -20 97 0 142 4 147 13 4 7 3 14 -2 15 -6 2 -8 7 -5 12 3 4 -4 6 -15 3
-11 -3 -20 -10 -20 -15 0 -5 -6 -6 -12 -1 -7 4 -41 6 -75 4 l-62 -3 1 49 c1
26 -2 183 -7 348 -14 523 -15 475 12 475 13 0 65 -9 116 -20 242 -51 293 -45
362 46 19 25 36 63 43 100 12 57 20 92 41 184 5 25 13 62 16 82 l6 36 67 5
c95 7 100 9 183 50 117 58 147 95 118 148 -8 16 -19 19 -55 18 -24 -2 -44 -7
-44 -11 0 -5 -4 -7 -9 -4 -5 3 -12 -1 -15 -10 -3 -8 -10 -12 -16 -9 -5 3 -10
2 -10 -3 0 -5 -15 -15 -32 -22 -18 -7 -42 -16 -53 -20 -33 -14 -73 -20 -88
-14 -11 4 -12 14 -5 52 5 26 11 61 14 79 4 28 55 278 101 493 8 41 16 107 16
145 1 85 -12 110 -118 221 -40 43 -71 83 -68 88 3 6 2 8 -2 3 -5 -4 -45 28
-89 72 -92 89 -138 116 -216 126 -78 9 -88 13 -96 38 -4 12 -20 34 -35 50 -29
27 -38 57 -19 57 5 0 16 15 25 33 8 17 19 39 24 47 8 12 52 86 136 228 6 9 34
58 63 107 29 50 57 97 62 105 6 8 15 27 21 43 6 15 15 27 20 27 5 0 9 9 9 20
0 11 3 20 8 20 7 0 25 30 38 63 3 9 11 17 16 17 5 0 6 5 3 10 -3 6 1 13 9 16
9 3 16 13 16 21 0 8 13 33 29 56 15 23 49 79 75 125 l48 82 44 0 c36 0 49 6
78 35 30 29 34 40 32 77 -5 108 -115 157 -198 88z m-1533 -1265 c59 -5 150
-16 290 -35 39 -5 115 -14 170 -20 125 -14 241 -28 325 -41 36 -5 85 -11 110
-14 244 -22 328 -50 355 -117 17 -43 20 -124 5 -133 -5 -3 -10 -21 -10 -38 0
-18 -16 -99 -35 -182 -40 -168 -38 -161 -49 -230 -4 -27 -12 -62 -18 -78 -6
-15 -10 -38 -10 -52 0 -14 -5 -25 -10 -25 -5 0 -7 -3 -5 -8 5 -7 -20 -139 -41
-217 -6 -22 -16 -65 -21 -95 -8 -44 -33 -160 -56 -260 -2 -8 -4 -18 -4 -22 -2
-13 -63 -78 -85 -90 -51 -27 -99 -27 -251 4 -82 16 -175 34 -205 39 -30 5 -77
14 -105 19 -27 5 -75 14 -105 19 -60 11 -149 28 -220 42 -25 5 -70 13 -100 18
-30 6 -82 15 -115 21 -33 6 -71 13 -85 15 -14 2 -45 6 -70 10 -25 4 -63 12
-85 18 -22 6 -42 11 -45 12 -47 11 -79 52 -87 110 -4 30 23 186 48 280 5 22
12 54 15 70 4 27 20 102 45 210 5 22 14 63 19 90 5 28 14 70 20 95 6 25 14 65
19 90 83 398 101 443 195 485 52 23 64 24 201 10z"/>
<path d="M2311 3007 c-29 -15 -57 -61 -63 -107 -3 -19 -11 -61 -18 -94 -6 -32
-9 -69 -6 -82 9 -32 45 -64 74 -64 28 0 69 39 77 73 3 12 14 58 25 102 30 123
27 144 -27 173 -27 15 -32 15 -62 -1z"/>
<path d="M3068 2879 c-56 -15 -75 -54 -96 -199 -12 -77 -7 -119 15 -139 11
-11 24 -17 27 -14 3 4 6 2 6 -4 0 -17 42 -3 68 23 17 17 31 53 49 131 26 114
25 158 -5 184 -29 25 -36 27 -64 18z"/>
<path d="M2570 2810 c-10 -6 -14 -24 -14 -52 3 -86 107 -128 185 -75 41 27 58
69 39 91 -19 24 -37 19 -56 -13 -35 -59 -101 -48 -106 16 -3 39 -20 51 -48 33z"/>
<path d="M1316 4203 c-11 -28 -6 -43 24 -71 17 -16 30 -37 30 -46 0 -9 4 -16
9 -16 17 0 68 -123 81 -195 7 -40 10 -101 7 -143 -5 -62 -3 -73 12 -81 25 -14
38 -1 51 51 28 109 -19 311 -97 419 -18 25 -30 49 -26 53 3 3 -1 6 -9 6 -9 0
-21 6 -27 14 -17 21 -49 26 -55 9z"/>
<path d="M1564 4172 c-23 -15 -24 -45 -3 -78 11 -19 17 -34 14 -34 -4 0 -3 -6
2 -12 9 -12 16 -36 41 -129 5 -20 8 -53 6 -73 -3 -34 14 -56 44 -56 17 0 28
45 21 85 -5 22 -10 59 -13 82 -3 23 -10 50 -15 60 -5 10 -17 43 -26 73 -15 50
-39 90 -54 90 -3 0 -11 -4 -17 -8z"/>
<path d="M931 4126 c-28 -34 -36 -146 -16 -232 21 -96 71 -189 129 -243 52
-50 78 -64 101 -55 27 11 16 35 -44 94 -102 102 -143 218 -125 351 8 57 7 74
-4 85 -17 18 -27 18 -41 0z"/>
<path d="M1102 4034 c-12 -8 -22 -21 -22 -29 0 -7 -5 -15 -11 -17 -17 -6 -13
-102 6 -138 37 -72 84 -97 109 -58 8 14 5 21 -18 39 -29 23 -56 74 -56 107 0
10 9 29 20 42 23 27 25 43 7 58 -10 9 -19 7 -35 -4z"/>
<path d="M773 3899 c-17 -6 -22 -15 -20 -39 1 -16 6 -30 10 -30 5 0 6 -3 3 -8
-6 -10 84 -192 118 -239 1 -1 14 -4 30 -7 28 -5 28 -5 23 37 -3 23 -11 43 -17
45 -14 5 -51 78 -43 86 4 3 1 6 -5 6 -6 0 -21 34 -33 74 -23 79 -31 88 -66 75z"/>
<path d="M4219 3697 c-9 -7 -19 -22 -23 -33 -4 -12 -18 -34 -31 -48 -20 -21
-33 -26 -74 -26 -27 0 -52 -4 -55 -9 -9 -13 4 -41 18 -41 7 0 23 -11 36 -25
23 -24 23 -25 7 -76 -10 -28 -17 -55 -17 -60 0 -14 44 -10 66 6 31 23 67 18
99 -15 46 -48 57 -40 53 34 -1 36 0 67 2 69 3 2 26 16 53 31 46 27 53 45 19
47 -9 0 -35 10 -56 22 -30 17 -42 32 -51 62 -18 64 -27 76 -46 62z m7 -76 c-9
-15 38 -76 62 -79 27 -4 29 -19 2 -27 -27 -9 -42 -39 -34 -72 4 -22 3 -25 -5
-13 -6 8 -11 11 -11 7 0 -5 -7 -1 -16 8 -9 9 -22 14 -28 12 -31 -12 -60 -17
-51 -10 14 11 12 64 -3 91 -11 20 -11 22 7 22 11 0 32 11 47 25 15 14 24 25
20 25 -4 0 -4 5 -1 10 3 6 8 10 11 10 3 0 3 -4 0 -9z"/>
<path d="M869 3343 c-3 -32 -11 -56 -22 -67 -16 -16 -57 -31 -75 -27 -10 2
-11 -2 -2 -18 7 -14 21 -21 41 -21 37 0 56 -18 61 -55 4 -36 24 -43 34 -13 4
13 7 26 6 31 -1 4 3 7 9 7 5 0 8 4 4 9 -3 5 12 15 32 21 44 14 65 30 40 30 -9
0 -17 5 -17 10 0 6 -3 9 -7 9 -31 -5 -46 5 -63 46 -17 39 -39 59 -41 38z"/>
<path d="M4200 2795 c0 -53 -25 -85 -67 -85 -19 0 -32 -4 -28 -9 3 -5 -3 -11
-12 -13 -10 -2 4 -10 31 -17 53 -13 75 -33 76 -67 0 -12 7 -27 15 -34 15 -13
19 -4 18 38 -1 6 3 12 8 12 5 0 9 9 9 20 0 14 10 21 38 27 20 4 40 7 45 8 22
1 2 22 -33 33 -43 15 -76 59 -67 93 4 15 -10 29 -29 29 -2 0 -4 -16 -4 -35z"/>
<path d="M1064 2448 c1 -7 6 -20 11 -28 6 -8 17 -40 26 -70 11 -37 21 -56 34
-59 15 -3 17 2 12 30 -3 19 -8 43 -12 54 -6 18 -4 17 14 -4 12 -13 21 -33 21
-45 0 -11 4 -27 9 -35 11 -17 -13 -58 -39 -66 -20 -6 -34 -42 -18 -47 6 -2 12
-15 14 -28 1 -14 12 -49 23 -77 12 -29 18 -53 15 -53 -3 0 1 -12 10 -27 8 -16
29 -75 46 -133 18 -58 37 -110 42 -117 5 -7 7 -17 4 -22 -4 -5 -2 -12 3 -15 5
-4 19 -39 31 -79 12 -39 28 -92 36 -117 8 -25 22 -67 31 -95 9 -27 26 -81 39
-120 12 -38 21 -72 18 -74 -2 -2 -19 10 -39 28 -20 17 -40 31 -46 31 -6 0 -8
4 -4 9 3 5 -4 12 -15 16 -11 3 -20 10 -20 15 0 4 -8 7 -17 5 -17 -2 -18 -7
-11 -62 1 -7 6 -13 11 -13 6 0 8 -3 5 -6 -4 -3 -2 -19 2 -35 8 -26 6 -31 -15
-41 -23 -10 -23 -12 -9 -40 10 -19 12 -33 6 -41 -6 -7 -16 -32 -23 -57 -10
-34 -14 -40 -17 -23 -4 29 -32 30 -32 2 0 -13 4 -18 13 -13 8 5 8 3 -2 -9 -19
-23 -27 -14 -34 35 -4 31 -14 51 -36 70 -28 25 -30 30 -19 53 12 26 6 37 -26
48 -4 1 -1 20 8 41 22 54 20 96 -9 162 -24 54 -26 56 -55 51 -16 -4 -42 -21
-58 -38 l-28 -31 -12 64 c-12 65 -35 122 -53 133 -5 4 -7 10 -4 14 2 5 -8 21
-24 36 -16 15 -40 38 -54 51 -14 13 -37 26 -51 30 -23 5 -28 2 -37 -25 -6 -17
-16 -28 -22 -24 -6 3 -7 1 -3 -5 4 -6 2 -31 -5 -54 -14 -52 -18 -139 -6 -155
4 -6 9 -22 11 -36 3 -31 38 -79 100 -139 49 -48 63 -58 51 -37 -4 6 2 5 14 -3
21 -13 27 -29 14 -41 -6 -6 -11 -41 -13 -89 -1 -10 -5 -18 -10 -18 -11 0 -21
30 -14 41 3 5 -1 9 -9 9 -7 0 -24 11 -37 25 -39 41 -74 54 -143 51 -34 -2 -74
-8 -88 -14 -26 -10 -26 -12 -17 -64 5 -29 14 -61 20 -72 20 -38 101 -116 119
-116 11 0 19 -4 19 -10 0 -5 13 -10 29 -10 33 0 48 -15 33 -33 -9 -12 -12 -29
-13 -76 -1 -24 -1 -24 -25 7 -31 39 -84 72 -117 72 -31 0 -42 -36 -32 -105 l7
-45 -62 0 c-53 0 -61 -2 -58 -17 4 -20 5 -20 273 -21 99 -1 206 1 237 4 56 5
58 4 69 -23 7 -15 18 -42 25 -60 8 -17 14 -34 14 -37 0 -3 -59 -6 -131 -6
-100 0 -130 -3 -127 -12 3 -7 22 -16 43 -19 60 -10 605 -11 605 -1 0 4 -4 12
-8 18 -15 16 -54 122 -50 134 4 13 14 -6 50 -95 l24 -60 82 0 c91 0 118 18 35
23 -51 3 -53 4 -53 32 0 25 3 29 23 26 12 -2 30 1 40 6 9 5 17 5 17 1 0 -9
128 -8 296 1 63 4 95 1 104 -7 10 -9 11 -9 5 2 -7 13 5 11 54 -7 9 -3 12 -1 7
6 -5 9 11 12 58 12 36 0 66 -4 66 -8 0 -9 47 -8 57 1 9 10 136 8 152 -2 7 -5
10 -14 7 -20 -5 -7 1 -11 14 -11 12 0 19 4 15 9 -13 21 10 25 181 31 34 2 68
6 75 11 30 18 -11 28 -128 31 -117 3 -122 4 -128 26 -3 13 4 42 16 68 11 26
17 50 12 55 -4 4 -70 11 -146 15 l-139 7 4 68 c2 49 -1 70 -10 74 -6 2 -50 -9
-97 -25 l-85 -30 -60 17 c-42 13 -60 23 -60 34 0 21 -29 29 -104 29 -58 0 -59
0 -41 20 20 22 35 26 35 9 0 -5 -4 -8 -9 -4 -5 3 -12 1 -15 -4 -6 -9 66 -6 92
4 17 6 15 25 -3 25 -17 0 -20 25 -5 35 15 9 12 45 -3 45 -7 0 -18 -5 -25 -12
-7 -7 -12 -9 -12 -4 0 4 -15 -7 -32 -23 -18 -17 -36 -31 -40 -31 -11 0 -10 37
0 44 4 2 9 21 10 42 2 20 7 45 12 54 7 14 5 19 -9 23 -11 2 -24 0 -30 -6 -6
-6 -11 -8 -11 -4 0 4 -10 -3 -22 -15 -18 -18 -23 -19 -32 -7 -6 8 -20 16 -31
17 -11 2 -21 5 -23 6 -1 2 -16 56 -33 122 -17 65 -34 133 -39 149 -5 17 -16
62 -25 100 -9 39 -21 78 -26 87 -5 10 -9 27 -9 38 0 13 -7 20 -19 20 -16 0
-17 -5 -10 -48 4 -26 23 -110 44 -187 20 -77 34 -148 31 -158 -2 -9 0 -15 5
-11 5 3 10 -2 10 -10 2 -17 5 -35 9 -38 1 -2 3 -10 5 -18 2 -8 7 -26 11 -39 5
-16 4 -22 -4 -17 -6 3 -13 19 -17 34 -8 35 -31 66 -44 58 -6 -4 -8 -13 -5 -20
3 -8 1 -17 -5 -20 -6 -4 -8 -21 -5 -39 4 -30 3 -29 -11 8 -9 22 -13 45 -11 52
3 7 1 13 -4 13 -9 0 -31 65 -34 100 -1 9 -5 21 -9 27 -10 16 -65 177 -80 233
-7 25 -17 54 -23 65 -7 11 -15 36 -20 55 -10 42 -9 41 -17 60 -3 8 -15 47 -27
85 -12 39 -27 84 -34 100 -19 43 -46 139 -46 159 0 10 5 16 11 14 6 -2 10 -7
10 -11 -1 -4 7 -15 18 -26 18 -18 61 -138 61 -172 0 -10 5 -21 10 -24 6 -3 10
-17 10 -30 0 -13 5 -27 10 -30 6 -3 10 -15 10 -26 0 -10 4 -27 9 -37 5 -9 23
-62 41 -117 17 -55 34 -107 37 -115 4 -8 8 -25 9 -38 2 -13 8 -30 15 -38 6 -7
9 -20 6 -27 -9 -25 29 -54 47 -36 3 3 -12 63 -34 133 -22 70 -39 130 -38 134
0 4 -6 23 -14 42 -9 19 -21 55 -28 80 -7 25 -16 54 -21 65 -7 16 -110 327
-114 345 -23 98 -41 124 -112 162 -39 21 -52 23 -49 6z m-238 -843 c24 -25 43
-48 42 -52 -1 -5 4 -19 12 -33 28 -49 40 -96 40 -160 -1 -49 -3 -61 -11 -47
-5 9 -7 22 -3 29 4 6 3 8 -2 5 -6 -3 -20 18 -33 46 -57 126 -69 148 -76 137
-10 -16 4 -80 18 -81 7 -1 -1 -4 -18 -8 -16 -3 -28 -11 -25 -16 3 -6 9 -9 14
-7 5 2 6 -4 3 -12 -3 -8 1 -17 9 -20 10 -4 13 -1 8 7 -3 6 8 -4 25 -23 18 -20
30 -42 27 -53 -2 -9 0 -15 5 -11 5 3 9 -2 9 -10 0 -9 -3 -16 -7 -16 -14 1 -43
27 -43 39 0 7 -4 10 -9 7 -23 -15 -70 84 -78 163 -5 52 -4 63 7 56 9 -5 11 -4
6 4 -10 16 3 93 15 85 5 -3 9 0 9 5 0 19 12 12 56 -34z m245 -241 c21 -40 15
-96 -16 -153 -26 -47 -36 -56 -58 -52 -5 1 -6 -3 -3 -7 5 -9 -15 -31 -43 -47
-9 -5 -12 -4 -7 3 4 7 2 12 -3 12 -6 0 -11 -6 -11 -14 0 -8 -5 -18 -10 -21
-12 -7 -4 56 8 65 4 3 8 12 8 20 1 74 44 175 87 205 29 20 31 19 48 -11z m379
-211 c0 -8 4 -12 9 -8 5 3 13 0 16 -6 8 -11 45 22 45 41 0 5 5 10 11 10 5 0 7
-4 4 -10 -3 -5 -1 -10 5 -10 6 0 9 -4 6 -9 -3 -5 1 -14 9 -21 8 -7 15 -19 15
-26 0 -8 8 -14 18 -14 19 0 44 14 43 24 -5 38 0 44 27 37 20 -6 31 -4 42 7 11
12 15 12 18 3 3 -8 -2 -17 -9 -22 -7 -4 -10 -11 -7 -15 4 -3 1 -19 -8 -35 -8
-16 -14 -31 -14 -34 1 -21 -1 -25 -9 -21 -5 4 -8 -2 -7 -11 4 -24 -19 -98 -30
-98 -28 1 -273 89 -268 97 3 5 13 7 23 3 11 -4 10 0 -6 16 -19 19 -24 20 -38
9 -13 -11 -13 -15 -3 -23 9 -6 8 -7 -5 -3 -10 3 -23 6 -27 6 -5 0 -4 14 1 30
6 17 17 30 25 30 7 0 36 -13 64 -30 28 -16 53 -30 55 -30 11 0 4 34 -15 71
-12 22 -25 51 -30 64 -9 25 -9 25 15 9 14 -9 25 -23 25 -31z m-766 9 c3 -5 15
-8 26 -7 19 1 95 -56 95 -73 1 -4 7 -18 14 -30 18 -34 9 -36 -25 -6 -30 27
-113 68 -121 60 -3 -2 -2 -14 2 -25 4 -14 15 -21 31 -21 42 0 115 -87 87 -103
-19 -11 -113 32 -140 63 -52 61 -71 134 -35 143 30 8 61 7 66 -1z m398 -84
c-17 -17 -29 -35 -26 -40 3 -5 1 -15 -5 -22 -7 -8 -11 -18 -10 -22 4 -21 -3
-23 -25 -9 -21 14 -28 14 -45 3 -12 -7 -25 -26 -29 -43 -6 -22 -16 -31 -38
-36 -16 -4 -38 -10 -48 -14 -15 -6 -17 -5 -11 5 5 8 4 11 -3 7 -5 -4 -8 -16
-5 -26 3 -10 0 -22 -6 -25 -6 -4 -11 -25 -11 -47 0 -28 -4 -39 -12 -36 -7 2
-12 13 -10 23 1 10 3 27 4 37 1 9 6 17 10 17 4 0 8 9 8 20 0 56 86 173 127
173 7 0 10 4 8 7 -7 12 97 60 129 60 l28 0 -30 -32z m258 -90 c8 -3 41 -14 72
-23 32 -9 60 -21 64 -26 3 -5 12 -9 20 -9 8 0 33 -9 56 -20 22 -11 45 -17 51
-13 6 4 8 0 4 -10 -3 -10 -2 -17 3 -17 6 0 10 5 10 10 0 7 7 7 20 0 11 -6 24
-8 29 -5 8 4 27 81 24 95 -1 3 30 6 69 8 62 3 72 1 85 -17 8 -12 25 -21 37
-21 13 0 38 -6 57 -14 l32 -14 -34 -8 c-19 -5 -38 -9 -44 -9 -5 -1 -20 -7 -33
-13 -12 -7 -26 -11 -31 -8 -5 3 -14 0 -20 -8 -7 -8 -22 -12 -34 -9 -17 4 -19
3 -7 -6 12 -8 12 -11 -3 -17 -16 -6 -44 -3 -103 10 -12 2 -45 7 -75 11 -30 4
-76 10 -104 14 -40 5 -49 10 -47 24 3 20 -10 21 -53 6 -22 -8 -44 -9 -71 -2
-40 9 -43 17 -30 68 2 11 5 23 5 26 1 7 29 5 51 -3z m810 -57 c0 -6 -5 -13
-11 -16 -6 -4 -8 -13 -5 -21 3 -7 -1 -19 -9 -26 -33 -30 -43 -37 -48 -32 -2 2
-10 -2 -16 -10 -7 -8 -20 -12 -28 -9 -10 4 -14 2 -10 -4 5 -8 -15 -18 -83 -38
-12 -4 -47 -18 -70 -28 -14 -6 -28 -12 -31 -14 -3 -1 -5 8 -4 20 0 12 -2 29
-6 38 -12 23 2 36 56 54 28 9 59 20 70 25 51 21 134 52 149 54 8 1 19 5 22 9
10 10 24 9 24 -2z m-702 -98 c23 -3 42 -9 42 -13 0 -8 -39 -23 -52 -21 -5 1
-8 -4 -8 -9 0 -5 -9 -10 -20 -10 -11 0 -20 -4 -20 -10 0 -5 -9 -10 -20 -10
-11 0 -20 -4 -20 -9 0 -5 -21 -17 -47 -27 -56 -20 -73 -32 -73 -49 0 -8 10
-11 28 -8 23 3 24 2 7 -6 -11 -5 -35 -10 -54 -10 -28 -1 -32 1 -21 14 15 18 5
35 -23 35 -12 1 -33 7 -47 15 l-25 13 30 12 c45 16 136 63 141 72 3 4 14 8 25
8 10 0 19 5 19 11 0 6 9 9 20 6 11 -3 22 -1 25 3 3 5 15 6 28 4 12 -3 41 -8
65 -11z m986 -35 c-3 -4 0 -8 5 -8 6 0 3 -9 -7 -21 -9 -11 -27 -33 -39 -47
-13 -15 -23 -31 -23 -35 0 -4 -24 -7 -54 -6 -40 2 -53 6 -49 16 3 7 -1 13 -10
13 -8 0 -17 -6 -20 -14 -7 -17 -49 -15 -55 2 -2 7 5 16 16 19 12 3 18 11 16
18 -3 7 -1 16 4 19 5 3 7 17 4 31 l-4 25 110 -2 c61 -1 108 -6 106 -10z"/>
<path d="M906 2283 c-4 -10 4 -37 18 -64 13 -26 27 -61 31 -78 4 -17 10 -31
14 -31 5 0 19 -25 32 -55 16 -37 29 -55 42 -55 14 0 16 5 11 28 -3 15 -13 40
-20 56 -16 33 -6 47 28 38 19 -5 19 -4 4 27 -9 17 -20 31 -25 31 -15 0 -20
-27 -8 -39 8 -8 6 -11 -6 -11 -10 0 -20 8 -24 18 -3 9 -14 36 -24 59 -11 23
-19 47 -19 54 0 11 -28 38 -41 39 -4 0 -10 -8 -13 -17z"/>
<path d="M1660 1938 c0 -7 -11 -26 -25 -42 -14 -16 -25 -32 -26 -35 0 -3 -2
-14 -4 -23 -2 -10 0 -18 3 -19 22 -2 56 -10 59 -13 3 -2 -7 -15 -21 -29 -14
-15 -26 -33 -26 -42 0 -29 38 -15 90 35 42 42 49 54 40 65 -7 8 -20 15 -29 15
-36 0 -45 16 -28 48 10 22 12 33 4 41 -15 15 -37 14 -37 -1z"/>
<path d="M4090 1857 c-34 -27 -80 -89 -80 -107 0 -10 7 -26 16 -34 8 -9 13
-16 10 -16 -13 0 34 -39 54 -45 l22 -7 -25 -17 c-21 -13 -23 -19 -14 -32 7 -9
22 -19 34 -23 27 -9 31 -20 39 -116 5 -57 4 -80 -5 -80 -6 0 -11 6 -11 13 0
18 -76 77 -113 88 -43 12 -104 11 -112 -1 -4 -6 4 -32 17 -58 28 -57 83 -92
145 -92 29 0 50 -7 68 -22 22 -20 27 -36 38 -130 7 -60 12 -108 10 -108 -1 0
-9 13 -17 28 -19 37 -89 109 -113 116 -48 14 -109 14 -128 0 -19 -14 -19 -15
5 -62 13 -26 34 -55 45 -65 28 -26 82 -47 118 -47 29 0 97 -37 97 -52 0 -4
-11 -24 -25 -44 -14 -20 -22 -40 -19 -45 6 -11 -36 -12 -52 -1 -7 4 -17 24
-22 46 -20 72 -66 98 -96 54 l-16 -22 -28 27 c-15 15 -37 27 -48 27 -27 0 -54
-30 -54 -59 0 -13 -5 -21 -12 -19 -8 3 -11 21 -9 50 2 34 -2 47 -13 51 -12 5
-14 12 -7 29 10 27 4 49 -17 66 -24 18 -47 15 -81 -14 -25 -21 -34 -23 -51
-14 -40 21 -76 1 -86 -48 -5 -23 0 -35 20 -56 24 -23 25 -26 8 -26 -26 0 -46
26 -47 61 0 16 -4 29 -8 29 -4 0 -11 0 -15 0 -5 0 -14 -11 -20 -25 -6 -14 -8
-25 -4 -25 4 0 13 -13 20 -28 11 -26 92 -83 92 -66 0 4 6 -1 14 -11 9 -13 27
-19 55 -20 25 -1 48 -8 59 -18 16 -17 14 -17 -41 -11 -45 5 -61 4 -68 -7 -12
-19 -11 -59 2 -59 5 0 7 -6 3 -12 -4 -7 -4 -10 1 -6 4 4 20 1 36 -7 16 -9 39
-16 53 -17 14 -1 22 -7 19 -15 -3 -8 -32 -13 -81 -15 -80 -3 -99 -15 -47 -30
53 -14 1081 -9 1104 6 20 13 -5 26 -54 26 -30 0 -36 3 -25 10 11 7 11 10 2 10
-7 0 -11 4 -7 10 3 5 3 20 -1 34 -10 40 -58 40 -116 0 -37 -27 -58 -34 -93
-34 -25 0 -45 3 -45 7 0 3 14 19 31 34 24 22 45 29 95 34 35 4 61 11 58 16 -3
5 2 12 10 15 8 3 25 22 37 42 25 43 34 148 14 169 -49 48 -156 9 -209 -76 -19
-30 -22 -46 -18 -93 4 -55 3 -58 -38 -100 -23 -24 -39 -38 -36 -32 18 36 29
72 27 91 -1 11 3 24 9 28 8 5 7 11 -2 22 -7 9 -12 17 -10 17 2 1 -1 12 -6 26
-7 19 -18 26 -43 28 -18 1 -35 5 -38 8 -8 8 30 29 54 29 11 1 31 7 43 14 13 7
26 10 29 8 2 -3 24 14 48 36 29 29 49 60 63 100 11 31 17 59 14 61 -22 13 -75
15 -118 6 -56 -13 -116 -70 -135 -129 -19 -59 -31 -61 -29 -6 1 28 1 52 0 55
-1 3 -3 25 -4 50 -4 61 22 119 46 104 4 -3 8 -1 8 4 0 7 65 45 82 46 8 1 58
47 83 77 15 19 19 40 20 99 l0 75 -48 1 c-26 1 -50 -3 -53 -7 -3 -5 -12 -9
-20 -9 -18 0 -68 -55 -91 -100 -18 -38 -21 -46 -30 -102 -9 -61 -21 -44 -28
40 -3 42 -8 87 -10 98 -3 12 2 27 10 34 8 7 15 21 15 31 0 10 4 20 10 24 5 3
7 12 4 19 -3 8 4 20 15 28 11 8 22 25 26 40 5 21 -2 34 -50 82 -57 57 -85 67
-115 43z"/>
<path d="M2745 625 c-19 -18 -25 -35 -25 -70 l0 -45 86 0 86 0 -7 36 c-17 93
-87 133 -140 79z"/>
<path d="M2213 570 c-79 -5 -104 -12 -89 -27 4 -4 48 -8 99 -9 51 -1 128 -3
172 -4 89 -2 110 1 127 18 9 9 8 13 -3 16 -22 8 -215 12 -306 6z"/>
</g>
</svg>
