<?xml version="1.0" standalone="no"?>
<!DOCTYPE svg PUBLIC "-//W3C//DTD SVG 20010904//EN"
 "http://www.w3.org/TR/2001/REC-SVG-20010904/DTD/svg10.dtd">
<svg version="1.0" xmlns="http://www.w3.org/2000/svg"
 width="500.000000pt" height="500.000000pt" viewBox="0 0 500.000000 500.000000"
 preserveAspectRatio="xMidYMid meet">
<metadata>
Created by potrace 1.16, written by Peter Selinger 2001-2019
</metadata>
<g transform="translate(0.000000,500.000000) scale(0.100000,-0.100000)"
fill="#000000" stroke="none">
<path d="M2001 4334 c-61 -69 -141 -256 -141 -331 0 -60 -9 -73 -51 -73 -33 0
-39 3 -39 21 0 28 26 130 52 202 19 52 20 60 6 74 -23 22 -52 3 -71 -49 -24
-65 -46 -158 -49 -203 -3 -39 -4 -40 -45 -43 -78 -6 -87 -62 -10 -62 l44 0 7
-91 c4 -50 14 -117 22 -148 8 -31 17 -64 19 -73 8 -37 26 -58 51 -58 29 0 41
23 26 53 -31 66 -46 143 -54 267 l-3 45 36 3 36 3 7 -63 c6 -63 17 -125 34
-206 10 -46 71 -177 106 -227 12 -17 28 -30 36 -29 8 0 21 2 28 2 18 3 15 46
-7 73 -31 40 -68 120 -89 194 -24 85 -47 229 -38 244 4 6 40 11 87 11 l79 0 0
-43 c0 -72 20 -157 54 -231 38 -81 65 -111 94 -102 34 11 35 37 4 80 -41 57
-73 149 -79 228 l-6 68 45 0 c49 0 58 -11 58 -72 0 -33 32 -109 54 -127 18
-15 44 -9 53 14 3 9 -4 35 -15 58 -12 23 -24 61 -27 85 l-7 42 40 0 c35 0 42
-4 56 -33 10 -22 32 -43 61 -58 l45 -24 0 -647 0 -647 -42 -28 c-24 -16 -47
-38 -52 -50 -9 -20 -14 -17 -80 40 -69 59 -121 106 -196 177 -20 19 -65 60
-101 91 -53 46 -64 62 -65 88 -1 41 -20 60 -63 65 -48 5 -86 -32 -77 -77 9
-44 29 -60 75 -63 37 -1 53 -14 236 -190 l196 -189 -28 -11 c-166 -68 -261
-109 -273 -119 -8 -7 -45 -28 -81 -48 -79 -43 -123 -91 -141 -149 -15 -50 -18
-782 -3 -833 14 -51 54 -102 99 -126 38 -20 44 -28 58 -80 14 -50 14 -58 1
-63 -31 -12 -61 -6 -66 14 -7 26 -26 25 -36 -2 l-8 -22 -5 22 c-8 28 -35 29
-43 2 -3 -11 -13 -20 -20 -20 -10 0 -7 13 12 50 24 46 25 52 11 66 -20 20 -48
7 -68 -30 -13 -25 -29 -35 -31 -18 0 4 -1 39 -2 79 -2 73 -21 113 -54 113 -9
0 -13 14 -13 44 0 27 -6 51 -16 60 -18 19 -58 30 -78 23 -9 -4 -16 3 -20 16
-3 12 -21 37 -40 56 -28 27 -45 35 -85 39 l-50 4 6 67 c9 103 -15 173 -80 236
-80 77 -207 112 -184 51 4 -9 31 -27 62 -40 102 -45 138 -102 139 -216 1 -69
-16 -152 -36 -174 -11 -13 -10 -36 2 -36 5 0 26 12 47 26 81 55 173 3 173 -96
0 -36 4 -50 14 -50 8 0 16 7 19 14 7 19 64 49 71 38 10 -17 -6 -48 -35 -64
-41 -24 -40 -53 2 -44 46 9 78 -3 94 -35 23 -44 19 -56 -23 -61 -56 -8 -125
-43 -158 -80 -28 -31 -94 -65 -94 -48 0 4 12 29 26 55 31 55 45 174 24 200
-30 36 -128 -4 -198 -79 l-43 -47 8 38 c10 48 6 149 -7 174 -12 22 -66 27 -73
7 -2 -7 4 -31 14 -53 10 -22 19 -49 19 -61 0 -25 -29 -115 -42 -129 -6 -6 -7
-5 -4 5 3 8 1 22 -4 30 -9 13 -12 12 -25 -4 -8 -11 -15 -29 -16 -40 0 -12 -4
-30 -8 -40 -6 -15 -20 6 -65 100 -76 156 -108 194 -199 238 -62 31 -161 56
-219 56 -27 0 -50 -29 -42 -54 11 -34 65 -108 115 -156 25 -25 58 -64 72 -87
31 -48 53 -67 42 -34 -8 26 3 27 65 5 49 -17 60 -28 60 -62 0 -12 7 -34 16
-47 23 -35 7 -52 -18 -20 -18 23 -23 25 -35 12 -13 -13 -13 -18 1 -45 20 -39
46 -49 53 -21 4 16 8 17 14 7 6 -9 40 -15 109 -18 l100 -5 0 40 c0 24 8 52 21
70 11 17 19 23 18 15 -8 -71 12 -130 27 -82 25 76 46 113 94 163 37 39 63 59
79 59 21 0 22 -3 16 -40 -8 -47 -38 -112 -73 -158 -30 -40 -39 -35 -17 8 22
43 9 52 -20 15 -33 -40 -60 -93 -53 -100 3 -4 58 -7 122 -8 l116 -2 11 32 c16
51 132 130 176 121 22 -5 20 -41 -5 -78 l-17 -25 -3 28 c-2 15 -7 27 -11 27
-13 0 -51 -59 -51 -80 0 -19 6 -20 188 -20 127 -1 182 -4 170 -10 -9 -6 -62
-9 -117 -7 -65 1 -100 -1 -98 -8 2 -5 10 -10 18 -11 8 0 147 -4 309 -9 237 -7
284 -11 238 -18 -32 -5 -58 -13 -58 -18 0 -5 28 -9 62 -9 48 0 59 -3 50 -12
-24 -24 -13 -38 29 -38 39 0 41 1 35 26 l-7 26 202 -7 c185 -7 202 -6 196 9
-5 12 0 16 17 16 19 0 23 -4 19 -21 -5 -19 -2 -20 43 -17 57 4 69 28 19 40
-16 4 48 6 143 4 139 -2 172 0 168 11 -4 9 4 13 24 13 42 0 37 16 -7 28 -36 9
-35 10 30 11 54 1 71 5 88 22 18 18 30 20 112 17 51 -2 102 1 115 5 12 5 22 5
21 0 -4 -22 3 -30 24 -28 16 1 22 8 21 24 -1 21 3 22 40 18 23 -3 61 -9 86
-14 25 -5 97 -9 160 -9 l115 1 3 43 c4 54 22 55 22 1 0 -33 3 -40 18 -37 19 4
27 36 18 83 -7 38 -49 66 -68 47 -29 -29 -38 -13 -38 66 l0 78 44 21 c63 31
99 82 100 141 1 89 -7 113 -92 254 -49 82 -65 119 -69 155 -7 77 -12 90 -34
96 -16 4 -31 -3 -53 -26 -260 -269 -340 -429 -272 -541 13 -21 38 -48 57 -60
19 -12 35 -27 37 -35 2 -8 -2 -56 -9 -108 -11 -91 -12 -93 -30 -77 -17 15 -22
15 -47 3 -15 -7 -31 -15 -35 -17 -5 -3 -4 6 3 18 16 29 0 46 -29 31 -27 -15
-28 1 -1 53 26 53 4 95 -36 68 -18 -11 -54 -80 -55 -105 -1 -20 -1 -20 -8 4
-16 49 -31 69 -56 69 -31 0 -55 -35 -55 -82 0 -38 0 -38 -41 -38 -35 0 -40 2
-34 18 5 9 12 48 18 85 9 59 14 70 41 89 38 27 52 43 73 88 15 31 17 81 18
445 0 453 -3 476 -64 553 -60 76 -128 95 -406 111 -239 15 -237 14 -257 61
-11 27 -27 45 -52 57 l-36 17 0 653 0 652 23 12 c32 17 77 66 77 84 0 11 11
15 39 15 l40 0 -6 -37 c-3 -21 -16 -61 -29 -89 -13 -28 -24 -61 -24 -73 0 -25
26 -38 49 -24 24 15 58 92 72 161 12 59 14 62 42 62 l30 0 -7 -61 c-9 -75 -39
-159 -72 -198 -26 -32 -31 -60 -12 -79 21 -21 35 -13 71 36 49 66 76 141 84
228 l6 74 83 0 84 0 0 -60 c0 -97 -48 -263 -97 -335 -44 -65 -53 -88 -41 -102
29 -36 81 5 124 97 64 135 84 216 84 330 l0 70 45 0 c36 0 45 -3 45 -17 0 -55
-24 -207 -41 -260 -24 -78 -24 -90 1 -98 28 -9 36 -1 58 58 29 75 35 110 39
219 l4 97 52 3 c48 3 52 5 52 28 0 23 -4 25 -51 28 l-50 3 -13 77 c-15 98 -50
201 -72 212 -10 6 -23 4 -35 -4 -18 -13 -18 -16 4 -82 21 -65 42 -161 42 -190
0 -10 -13 -14 -39 -14 -37 0 -39 2 -45 38 -26 145 -63 242 -129 340 -34 50
-47 62 -68 62 -32 0 -52 -21 -43 -46 4 -11 22 -35 40 -55 55 -63 94 -158 128
-311 l6 -28 -84 0 -85 0 -16 74 c-23 102 -82 206 -118 206 -47 0 -62 -33 -28
-64 33 -30 81 -144 81 -192 0 -20 -5 -24 -29 -24 -25 0 -30 4 -36 38 -11 58
-45 112 -71 112 -31 0 -34 -25 -12 -83 24 -63 23 -67 -10 -67 -23 0 -31 7 -47
43 -11 23 -35 52 -54 65 -44 29 -123 30 -168 2 -32 -19 -63 -66 -63 -95 0 -11
-10 -15 -35 -15 -42 0 -44 11 -14 74 24 51 22 88 -4 92 -29 4 -87 -95 -87
-149 0 -14 -10 -17 -49 -17 l-50 0 16 53 c19 64 48 123 79 160 29 35 31 73 5
82 -53 17 -121 -92 -159 -255 l-8 -35 -83 -3 -82 -3 6 38 c18 108 70 236 128
317 28 39 34 53 26 68 -15 28 -44 22 -78 -18z m464 -2074 c3 -5 39 -10 80 -10
41 0 77 5 80 10 9 15 262 12 395 -5 156 -20 199 -30 218 -50 16 -16 16 -17 -5
-11 -25 8 -42 -11 -19 -20 9 -3 16 -10 16 -14 0 -11 -91 -73 -97 -66 -3 2 14
15 36 28 41 23 58 54 24 41 -10 -4 -20 -9 -23 -12 -3 -3 -18 -13 -34 -22 -27
-15 -31 -15 -72 8 -65 37 -234 51 -554 48 -283 -3 -367 -10 -372 -30 -2 -10
-5 -10 -14 -1 -8 9 11 21 80 51 133 56 246 80 261 55z m33 -140 c451 0 500 -5
554 -56 59 -57 58 -48 58 -479 0 -369 -1 -398 -19 -433 -23 -46 -46 -67 -95
-87 -33 -14 -98 -16 -474 -16 -241 0 -446 2 -457 4 -114 26 -165 63 -185 135
-6 22 -10 183 -10 405 0 342 1 370 19 405 10 20 30 47 43 59 27 26 88 53 118
53 14 0 20 7 20 23 1 19 2 20 11 5 9 -16 44 -17 417 -18z m1375 -516 c4 -21
10 -68 13 -104 7 -81 10 -91 27 -84 8 3 12 17 10 37 -2 21 2 14 11 -18 11 -45
13 -47 17 -21 2 16 9 31 16 33 14 5 43 -58 43 -94 0 -13 6 -36 13 -51 27 -53
-10 -104 -48 -66 -15 15 -18 15 -32 2 -12 -12 -13 -20 -4 -37 11 -19 9 -21
-19 -21 -16 0 -30 4 -30 8 0 12 -48 13 -55 2 -4 -6 -3 -10 2 -9 4 1 15 1 23
-1 11 -1 9 -4 -5 -10 -29 -13 -57 -12 -49 1 4 8 -3 9 -25 4 -75 -16 -151 44
-151 119 0 48 32 120 79 181 17 22 41 53 54 69 12 16 27 34 33 40 6 6 19 24
29 39 23 36 38 30 48 -19z m-3164 -364 c70 -20 120 -50 148 -90 11 -16 10 -17
-7 -13 -14 4 -20 0 -20 -11 0 -9 3 -16 8 -16 13 0 75 -60 62 -60 -59 0 -211
85 -244 135 -9 14 -23 36 -32 50 -21 32 -13 32 85 5z m3184 -187 c3 -27 9 -74
13 -106 7 -58 7 -59 -17 -55 -16 2 -23 9 -21 21 2 11 -4 17 -18 17 -12 0 -20
-7 -21 -17 0 -14 -2 -13 -9 5 -11 25 -35 29 -44 7 -3 -9 -18 -15 -35 -15 -29
0 -30 2 -25 33 3 17 10 48 15 67 5 19 9 47 9 63 l0 27 74 0 73 0 6 -47z m-937
-98 c4 -14 5 -27 3 -29 -2 -2 -136 -6 -297 -8 -247 -3 -292 -2 -287 10 3 7 5
22 5 33 0 18 11 19 285 19 l285 0 6 -25z"/>
<path d="M2050 1803 c-24 -9 -69 -65 -75 -95 -10 -44 4 -86 41 -124 28 -27 42
-34 75 -34 110 0 166 104 110 208 -22 41 -99 64 -151 45z"/>
<path d="M2818 1795 c-40 -22 -68 -75 -68 -128 0 -40 5 -51 35 -82 31 -31 42
-35 86 -35 81 0 129 47 129 127 0 97 -101 162 -182 118z"/>
<path d="M2365 1610 c-17 -52 63 -125 127 -117 53 7 96 41 104 82 11 58 -24
78 -45 26 -25 -60 -96 -63 -130 -5 -23 38 -46 44 -56 14z"/>
<path d="M2717 1303 c-15 -4 -17 -14 -15 -71 l3 -67 144 -3 c109 -2 146 1 153
10 4 7 8 36 8 65 0 42 -4 54 -19 63 -19 10 -238 12 -274 3z"/>
<path d="M1112 2578 c-16 -16 -15 -92 1 -121 6 -12 24 -38 39 -58 l27 -36 -52
9 c-74 12 -135 1 -153 -28 -31 -47 20 -90 120 -100 36 -4 63 -11 60 -15 -3 -5
-2 -18 1 -29 9 -27 40 -25 105 7 66 33 190 157 185 184 -6 29 -13 36 -40 42
-20 3 -30 -1 -42 -19 l-16 -24 -22 43 c-32 65 -72 113 -111 136 -39 23 -84 27
-102 9z"/>
<path d="M3868 2511 c-44 -38 -108 -167 -108 -215 0 -22 -3 -23 -45 -18 -40 4
-46 2 -53 -19 -5 -13 -7 -31 -5 -39 3 -9 50 -38 106 -65 122 -59 199 -71 232
-35 15 17 17 25 7 40 -10 16 -8 19 21 25 86 18 169 102 137 140 -21 26 -95 19
-162 -15 -74 -38 -82 -38 -60 3 10 17 24 60 32 94 15 72 3 117 -33 127 -33 9
-34 8 -69 -23z"/>
<path d="M4556 2011 c-9 -10 -42 -67 -72 -126 -40 -77 -54 -114 -50 -131 4
-16 2 -23 -5 -22 -12 3 -55 -51 -84 -107 -9 -16 -23 -41 -30 -55 -24 -42 1
-51 36 -12 16 18 29 28 29 24 0 -5 -9 -17 -20 -27 -28 -25 -23 -69 8 -73 27
-4 27 -4 -2 -55 -51 -91 -71 -124 -103 -166 -46 -61 -41 -101 14 -101 13 0 23
-4 23 -10 0 -5 -27 -41 -61 -80 -35 -41 -59 -78 -57 -88 4 -19 8 -20 181 -21
l117 -1 0 -56 c0 -59 2 -57 -46 -37 -7 2 -20 -4 -30 -15 -22 -22 -74 -38 -74
-22 0 5 -6 10 -13 10 -9 0 -14 -13 -15 -36 l-1 -36 87 3 c48 1 95 6 104 11 9
4 18 4 20 -2 2 -7 209 -13 405 -10 36 0 70 27 54 43 -5 5 -41 12 -80 15 -61 4
-71 7 -71 24 0 26 -27 34 -50 13 -18 -16 -20 -16 -26 -1 -8 20 -23 20 -45 1
-15 -15 -17 -14 -23 9 -3 13 -2 36 3 49 6 14 7 28 4 31 -4 3 57 6 133 6 143 0
164 5 164 41 0 9 -6 22 -13 28 -16 13 -127 174 -127 184 0 4 9 7 21 7 31 0 59
18 59 39 0 10 -17 38 -38 62 -32 38 -112 162 -112 175 0 2 12 4 26 4 58 0 83
42 48 81 -27 30 -210 379 -199 379 3 0 -2 12 -12 28 -30 47 -50 53 -77 23z"/>
<path d="M566 1841 c-17 -19 -17 -22 0 -68 18 -46 78 -118 118 -140 19 -10 19
-12 -6 -41 -14 -17 -32 -45 -39 -62 -12 -27 -19 -30 -56 -30 -32 0 -50 -7 -75
-28 -18 -16 -46 -32 -63 -36 -95 -23 -174 -91 -206 -177 -22 -57 -23 -81 -7
-112 6 -12 14 -29 18 -37 4 -8 13 -15 21 -15 10 0 14 18 15 71 0 58 5 77 24
105 43 60 102 99 151 99 12 0 41 18 65 40 49 45 75 50 89 18 12 -27 44 -36 56
-16 5 7 9 27 9 44 0 35 32 88 72 117 25 19 34 20 98 11 39 -5 73 -8 75 -5 3 2
5 30 5 62 0 63 13 78 70 87 27 4 40 18 40 45 0 29 -25 30 -83 3 l-54 -26 -43
39 c-52 48 -121 71 -210 71 -54 0 -70 -4 -84 -19z m228 -72 c26 -17 53 -44 61
-60 21 -39 19 -46 -7 -23 -49 43 -58 48 -58 32 0 -8 9 -26 21 -39 52 -61 -83
-16 -140 46 -58 63 -55 75 17 75 49 0 66 -5 106 -31z"/>
<path d="M202 1113 c-39 -14 -57 -143 -27 -199 8 -16 15 -41 15 -55 0 -33 22
-53 50 -44 22 7 26 20 10 30 -8 5 -8 11 0 20 8 10 6 25 -11 61 -24 53 -33 111
-18 119 11 7 12 62 2 68 -5 2 -14 2 -21 0z"/>
<path d="M412 978 c-19 -19 -15 -40 20 -107 32 -63 30 -62 103 -66 11 -1 26
-4 33 -9 17 -10 25 17 18 60 -9 43 -30 40 -34 -4 -3 -28 -6 -31 -23 -22 -10 6
-19 21 -19 33 -1 34 -36 104 -58 116 -26 14 -25 14 -40 -1z"/>
<path d="M736 954 c-3 -9 -6 -30 -7 -47 l-1 -32 -14 33 c-17 39 -37 37 -45 -4
-5 -24 -7 -26 -13 -11 -9 20 -46 23 -46 4 0 -7 7 -22 15 -34 8 -12 12 -28 9
-37 -7 -18 -6 -18 116 -17 94 0 92 -2 60 68 -11 24 -20 47 -20 51 0 10 -33 42
-42 42 -3 0 -9 -7 -12 -16z"/>
<path d="M3607 743 c-9 -11 -17 -29 -17 -41 0 -18 -6 -22 -29 -22 -40 0 -87
-18 -75 -30 7 -7 134 -15 177 -11 4 1 1 15 -8 31 -20 39 -3 39 25 1 31 -45 84
-46 129 -4 36 34 57 37 28 5 -24 -27 -21 -32 18 -32 24 0 37 6 45 20 18 33 8
73 -21 89 -23 13 -30 13 -61 -2 -20 -9 -41 -23 -48 -32 -17 -21 -30 -19 -60
10 -36 34 -81 42 -103 18z"/>
<path d="M1855 702 c-28 -5 -43 -28 -38 -56 4 -22 1 -24 -46 -28 -51 -5 -85
-23 -75 -39 3 -5 53 -9 111 -9 116 0 112 -3 88 65 -4 14 1 11 19 -10 14 -16
26 -36 26 -42 0 -9 16 -13 45 -13 38 0 50 5 70 28 36 40 33 62 -8 62 -18 0
-42 -6 -52 -14 -16 -12 -21 -9 -47 19 -28 33 -56 44 -93 37z"/>
<path d="M3133 648 c-12 -6 -24 -22 -28 -35 -5 -22 -10 -25 -36 -19 -34 7 -69
-8 -69 -28 0 -8 -9 -16 -21 -19 -12 -3 -19 -12 -17 -19 6 -17 44 -17 40 0 -2
10 2 10 17 2 11 -5 54 -10 96 -10 75 0 76 1 69 23 -4 12 -9 29 -11 37 -3 8 11
-2 31 -22 33 -34 41 -38 87 -38 43 0 50 3 47 18 -3 11 -12 17 -28 16 -18 -1
-31 7 -45 29 -37 56 -93 84 -132 65z"/>
</g>
</svg>
