<?xml version="1.0" standalone="no"?>
<!DOCTYPE svg PUBLIC "-//W3C//DTD SVG 20010904//EN"
 "http://www.w3.org/TR/2001/REC-SVG-20010904/DTD/svg10.dtd">
<svg version="1.0" xmlns="http://www.w3.org/2000/svg"
 width="500.000000pt" height="500.000000pt" viewBox="0 0 500.000000 500.000000"
 preserveAspectRatio="xMidYMid meet">
<metadata>
Created by potrace 1.16, written by Peter Selinger 2001-2019
</metadata>
<g transform="translate(0.000000,500.000000) scale(0.100000,-0.100000)"
fill="#000000" stroke="none">
<path d="M1230 4745 c-22 -26 -3 -43 109 -99 60 -31 112 -60 115 -65 6 -9 -54
-48 -136 -90 -15 -8 -42 -26 -59 -41 -28 -23 -30 -29 -20 -48 6 -12 16 -22 22
-22 9 0 64 27 99 50 8 5 53 32 99 60 l83 50 62 -33 c33 -19 84 -47 111 -62 28
-16 67 -37 88 -49 l38 -21 -28 -12 c-85 -38 -147 -64 -221 -93 -86 -34 -113
-59 -91 -86 16 -19 41 -18 94 6 25 11 65 29 90 40 25 11 51 20 58 20 7 0 17 4
23 8 5 5 45 23 89 41 l80 33 78 -42 c42 -23 77 -45 77 -48 0 -4 -55 -29 -122
-56 -188 -75 -198 -79 -204 -99 -7 -21 12 -47 33 -47 9 0 75 24 147 54 160 66
185 74 170 55 -7 -8 -42 -85 -79 -171 -37 -87 -70 -158 -74 -158 -3 0 -41 11
-83 25 -110 35 -195 46 -343 46 -159 -1 -269 -27 -421 -101 -252 -122 -436
-329 -521 -585 -47 -140 -48 -147 -47 -315 1 -147 4 -175 28 -255 30 -99 79
-206 137 -295 43 -67 164 -189 233 -236 l49 -33 -27 -11 c-15 -5 -29 -10 -32
-10 -2 0 -55 -24 -117 -54 -158 -75 -209 -138 -189 -234 8 -38 70 -123 157
-217 50 -54 64 -75 59 -90 -4 -11 -8 -40 -11 -65 -5 -55 23 -105 69 -124 22
-10 32 -21 34 -41 2 -15 12 -37 22 -49 21 -23 24 -61 38 -536 3 -107 10 -207
15 -221 7 -16 6 -41 0 -69 -5 -24 -8 -48 -5 -52 3 -4 2 -8 -3 -8 -4 -1 -43 -2
-85 -3 -68 -2 -112 -16 -97 -31 2 -3 135 -7 294 -11 186 -4 292 -10 296 -17 5
-7 9 -7 13 1 4 6 24 10 44 10 l37 -1 -30 -8 c-27 -7 -25 -8 17 -9 25 0 48 3
50 8 2 5 97 11 211 13 115 1 213 6 219 9 18 11 -2 29 -32 29 -27 0 -60 22 -60
40 0 5 -25 24 -55 42 -37 22 -53 38 -49 48 5 15 23 481 24 621 0 70 2 77 24
87 28 13 34 38 24 107 -4 28 -11 83 -14 124 -7 70 -6 74 12 67 54 -22 73 -23
123 -6 68 23 97 52 118 117 15 47 15 62 4 116 -7 34 -30 96 -52 137 -21 42
-39 89 -39 105 0 16 -6 44 -12 63 -9 25 -10 36 -2 39 48 16 185 113 256 181
214 206 318 451 318 747 0 247 -71 443 -233 638 -35 43 -177 167 -191 167 -3
0 -25 14 -50 31 -45 30 -54 46 -38 64 5 6 15 26 22 45 8 19 24 58 36 85 12 28
31 73 42 100 11 28 30 71 42 98 l21 48 27 -19 c15 -10 34 -22 42 -25 8 -4 44
-25 80 -46 36 -22 93 -54 128 -73 63 -33 76 -47 45 -49 -10 0 -67 -17 -128
-37 -89 -30 -111 -41 -113 -58 -5 -34 22 -49 66 -36 20 7 62 19 92 28 30 9 82
24 114 35 33 10 66 19 72 19 7 0 111 -59 231 -130 120 -72 224 -129 232 -128
8 2 19 11 25 20 14 23 0 46 -40 69 -62 34 -349 201 -352 204 -2 2 43 18 100
35 57 18 109 37 116 42 17 14 15 43 -3 58 -12 10 -41 4 -156 -35 l-140 -47
-180 102 c-146 83 -177 105 -168 116 6 8 19 14 28 14 9 0 21 4 26 9 6 5 30 16
55 25 106 36 453 173 518 203 27 13 32 21 30 42 -3 29 -36 40 -72 23 -65 -31
-476 -194 -615 -244 l-84 -31 -36 19 c-20 10 -58 31 -86 46 l-49 27 27 10 c16
6 52 22 80 35 29 13 77 34 107 46 66 28 95 52 87 74 -14 37 -25 35 -207 -47
-25 -11 -74 -32 -110 -47 l-65 -27 -158 81 c-86 45 -156 84 -155 88 2 4 28 24
58 45 41 29 55 45 55 63 0 44 -38 37 -120 -19 l-73 -50 -135 69 c-74 39 -141
70 -149 70 -9 0 -21 -7 -28 -15z m459 -936 c109 -18 241 -56 241 -70 0 -5 -10
-31 -22 -59 -18 -42 -27 -51 -54 -56 -87 -16 -18 -105 84 -108 31 -1 38 3 40
22 2 12 -3 29 -12 37 -13 14 -12 21 9 68 14 28 29 53 35 55 11 4 63 -26 99
-58 13 -11 27 -20 32 -20 4 0 39 -32 78 -70 112 -112 178 -219 224 -365 87
-276 47 -557 -114 -794 -94 -139 -186 -227 -311 -295 -69 -39 -88 -43 -88 -23
0 18 -98 111 -137 131 -41 20 -62 20 -85 -1 -26 -23 -24 -92 3 -128 l22 -27
-29 -24 c-27 -22 -38 -23 -155 -24 -69 0 -139 4 -155 9 -16 5 -54 14 -84 21
-393 89 -662 415 -687 830 -8 139 50 377 118 478 16 24 29 45 29 48 0 10 66
90 125 152 124 131 309 230 505 270 64 13 211 14 289 1z m137 -1691 c77 -71
125 -178 125 -277 0 -64 -26 -98 -83 -107 -31 -5 -38 -3 -57 25 -16 22 -30 31
-51 31 -52 0 -82 58 -41 80 11 5 36 10 55 10 29 0 36 4 36 19 0 22 -19 31 -66
31 -39 0 -45 17 -14 45 19 17 64 17 118 0 37 -12 26 10 -43 80 -36 36 -65 75
-65 85 0 33 37 23 86 -22z m-488 -328 c6 -11 18 -17 26 -14 29 11 33 -29 18
-197 l-16 -166 38 -47 c21 -25 41 -46 45 -45 3 0 21 21 39 46 l34 46 -12 81
c-6 45 -16 100 -21 123 -20 91 -5 188 25 164 10 -8 17 -7 26 4 22 26 30 17 29
-32 0 -36 -3 -43 -9 -28 -7 17 -9 15 -9 -12 -1 -18 4 -33 9 -33 6 0 10 5 10
12 0 49 18 -59 46 -269 4 -35 2 -43 -10 -43 -18 0 -21 -27 -6 -50 8 -13 10
-12 10 3 0 10 5 15 10 12 13 -8 13 -75 1 -75 -5 0 -12 6 -14 13 -3 7 -6 4 -6
-7 -1 -14 -6 -17 -23 -11 -88 26 -152 26 -220 0 -16 -7 -18 1 -18 86 0 87 -11
247 -26 397 -6 63 1 78 24 42z m-235 -320 c-3 -59 -21 -98 -63 -134 -43 -35
-101 -36 -136 -1 -31 31 -29 69 4 73 12 2 27 13 33 25 6 12 36 46 67 75 l56
52 20 -20 c16 -15 20 -32 19 -70z m384 -499 c27 -1 29 -14 53 -371 6 -91 16
-175 20 -187 5 -12 6 -45 3 -73 l-6 -50 -117 0 c-106 0 -118 2 -122 18 -3 11
-25 32 -49 49 -31 20 -43 35 -41 49 4 26 18 163 32 314 23 254 20 244 60 251
19 4 60 5 90 3 30 -2 65 -3 77 -3z"/>
<path d="M1507 3230 c-41 -12 -57 -29 -57 -58 0 -24 1 -25 55 -18 43 5 57 3
67 -10 46 -57 58 -65 78 -54 24 13 26 40 6 79 -27 51 -93 78 -149 61z"/>
<path d="M2196 3095 c-61 -32 -83 -84 -44 -108 13 -8 24 -4 52 21 40 35 47 37
63 21 6 -6 23 -9 39 -7 22 2 30 9 32 28 6 49 -81 77 -142 45z"/>
<path d="M1340 2903 c-54 -20 -100 -100 -100 -174 0 -45 4 -55 34 -85 76 -76
170 -14 191 127 14 95 -48 160 -125 132z"/>
<path d="M2219 2707 c-45 -30 -79 -98 -79 -160 0 -40 5 -53 29 -78 52 -51 122
-31 161 47 41 84 35 165 -16 199 -32 21 -55 19 -95 -8z"/>
<path d="M352 3218 c-16 -20 -42 -118 -42 -159 0 -40 20 -65 45 -55 17 6 17 4
40 108 9 43 14 86 10 98 -7 22 -37 27 -53 8z"/>
<path d="M3605 2798 c-97 -9 -128 -15 -215 -44 -250 -84 -439 -269 -494 -481
-29 -115 -15 -289 22 -281 9 3 15 11 13 19 -12 39 -12 189 0 239 47 204 230
385 474 468 107 36 168 45 303 45 121 0 150 5 122 22 -20 12 -154 20 -225 13z"/>
<path d="M3555 2615 c-84 -15 -171 -47 -220 -80 -20 -14 -39 -25 -43 -25 -13
0 -119 -104 -156 -154 -49 -65 -66 -109 -73 -186 -6 -78 8 -138 43 -180 48
-57 59 -31 19 48 -18 36 -25 66 -25 107 0 210 293 445 558 445 154 0 312 -117
312 -233 0 -18 6 -42 14 -53 14 -18 15 -18 25 10 9 22 8 41 -5 88 -32 112
-136 195 -276 218 -76 12 -84 12 -173 -5z"/>
<path d="M2683 2612 c-17 -11 -65 -166 -57 -186 3 -9 17 -16 31 -16 19 0 28 9
43 43 32 72 44 135 30 152 -14 16 -29 19 -47 7z"/>
<path d="M3529 2435 c-160 -44 -285 -165 -292 -283 -3 -50 25 -52 33 -2 17
100 106 189 235 236 147 54 270 20 326 -88 19 -37 49 -52 49 -24 0 26 -45 99
-76 124 -63 51 -173 66 -275 37z"/>
<path d="M3630 2270 c0 -6 8 -13 18 -16 53 -16 103 -47 124 -76 52 -70 59
-129 25 -198 -8 -16 -12 -31 -9 -34 26 -26 62 46 62 123 0 105 -88 210 -177
211 -24 0 -43 -5 -43 -10z"/>
<path d="M3489 2071 c-6 -34 -14 -61 -16 -61 -3 0 -32 20 -64 45 -64 48 -89
56 -89 27 0 -17 55 -65 119 -103 33 -19 42 -74 15 -93 -15 -11 -26 -6 -82 36
-36 26 -73 48 -83 48 -31 0 -21 -28 19 -54 20 -14 48 -33 60 -44 l24 -18 -24
-16 c-12 -8 -42 -25 -65 -37 -44 -22 -58 -51 -25 -51 10 0 47 15 82 34 35 19
69 32 77 29 15 -6 17 -51 3 -88 -5 -14 -28 -43 -50 -64 -33 -31 -40 -45 -40
-76 0 -25 8 -49 24 -70 21 -27 23 -37 16 -76 -16 -83 -26 -99 -62 -99 -108 -1
-266 -76 -365 -176 -118 -118 -173 -253 -173 -420 0 -83 15 -148 54 -236 7
-14 -8 -25 -84 -62 l-92 -45 -31 20 c-48 29 -121 26 -153 -7 -21 -20 -25 -32
-22 -62 3 -20 8 -44 11 -52 6 -13 -7 -15 -80 -18 -48 -1 -92 -7 -97 -12 -22
-22 10 -30 119 -30 65 0 116 -4 120 -10 3 -5 -1 -10 -10 -10 -9 0 -13 -4 -10
-10 8 -14 45 -13 45 1 0 7 21 10 58 8 31 -2 66 2 77 8 24 13 225 24 225 12 0
-4 22 -5 49 -2 61 7 248 -6 232 -17 -9 -5 -8 -9 4 -14 9 -3 22 -3 27 0 6 4 17
-1 25 -12 9 -12 16 -15 21 -8 4 5 30 15 57 21 28 7 58 15 68 18 13 6 16 3 11
-9 -4 -11 -18 -16 -44 -16 -22 0 -42 -4 -45 -10 -4 -6 12 -10 39 -10 27 0 46
5 46 11 0 8 19 9 63 5 91 -9 100 -8 113 9 7 10 27 15 56 15 37 0 55 7 96 38
28 20 54 44 57 52 3 8 17 35 31 60 21 37 24 40 19 16 -8 -40 -58 -110 -100
-142 -19 -14 -32 -30 -29 -35 9 -15 40 -10 67 11 22 18 40 20 156 20 81 0 131
-4 131 -10 0 -5 10 -10 23 -10 18 0 19 2 7 10 -11 7 0 10 40 12 30 1 80 3 110
4 30 1 148 3 263 3 169 1 207 4 207 15 0 20 -33 26 -157 26 l-113 0 0 31 c0
22 -10 41 -35 66 -20 20 -33 38 -30 42 4 3 54 8 111 9 100 4 106 5 116 28 15
32 -6 171 -34 230 -37 80 -88 67 -88 -22 l0 -54 -57 1 c-156 1 -278 16 -318
39 -33 18 -50 21 -97 17 -99 -9 -97 -10 -97 107 0 82 -5 116 -25 174 -61 182
-190 306 -374 361 -29 9 -53 21 -54 26 0 6 3 36 7 68 5 49 12 65 41 93 28 29
34 42 34 77 0 35 -6 49 -30 72 -24 23 -30 37 -30 72 0 24 3 43 8 43 4 0 31
-18 60 -40 100 -76 115 -39 17 41 -66 53 -83 90 -49 103 30 12 45 6 111 -44
66 -50 93 -61 93 -37 0 18 -10 29 -67 71 -29 22 -50 43 -47 48 3 5 27 19 54
33 55 28 67 42 51 58 -8 8 -30 1 -81 -26 -61 -32 -73 -35 -91 -24 -18 11 -20
21 -17 92 3 68 1 80 -14 83 -13 3 -19 -9 -29 -57z m-139 -796 c0 -8 -9 -20
-20 -27 -27 -17 -25 -37 6 -48 54 -21 144 -5 144 25 0 9 -7 18 -15 21 -21 8
-19 34 2 34 10 0 54 -18 99 -41 163 -80 279 -247 285 -409 2 -66 -2 -127 -8
-112 -9 23 -23 12 -23 -18 0 -16 5 -30 11 -30 5 0 7 -5 4 -10 -4 -6 -10 -8
-15 -5 -11 7 -43 -44 -37 -59 3 -7 1 -19 -4 -27 -7 -12 -12 -12 -30 -1 -19 12
-24 11 -47 -12 -31 -31 -25 -44 7 -15 35 33 35 15 -1 -20 -33 -32 -48 -39 -48
-20 0 6 -14 -3 -32 -20 -17 -17 -39 -31 -47 -31 -14 1 -13 3 2 14 9 7 17 17
17 21 0 5 -10 -1 -23 -13 -21 -20 -25 -20 -43 -7 -10 8 -27 15 -37 15 -9 0
-34 9 -54 20 -21 11 -52 20 -70 20 -36 0 -89 -39 -105 -79 -13 -31 -18 -91 -7
-91 4 0 6 -11 5 -26 -1 -23 -4 -25 -36 -20 -76 11 -150 42 -150 63 0 7 -3 13
-7 14 -44 4 -68 24 -137 109 -43 54 -76 167 -76 265 0 139 49 253 155 360 39
39 90 82 115 96 55 30 146 67 180 72 14 2 28 5 33 6 4 0 7 -6 7 -14z"/>
<path d="M3360 935 c-12 -14 -11 -24 5 -137 11 -71 62 -103 82 -51 9 22 -13
172 -28 189 -15 18 -43 18 -59 -1z"/>
<path d="M2944 815 c-6 -15 0 -100 11 -152 16 -72 85 -85 85 -15 -1 42 -15
113 -31 155 -13 30 -55 38 -65 12z"/>
</g>
</svg>
