<?xml version="1.0" standalone="no"?>
<!DOCTYPE svg PUBLIC "-//W3C//DTD SVG 20010904//EN"
 "http://www.w3.org/TR/2001/REC-SVG-20010904/DTD/svg10.dtd">
<svg version="1.0" xmlns="http://www.w3.org/2000/svg"
 width="500.000000pt" height="500.000000pt" viewBox="0 0 500.000000 500.000000"
 preserveAspectRatio="xMidYMid meet">

<g transform="translate(0.000000,500.000000) scale(0.100000,-0.100000)"
fill="#000000" stroke="none">
<path d="M3465 4629 c-30 -36 -29 -39 23 -117 181 -266 222 -613 110 -931 -37
-105 -57 -145 -119 -239 -47 -71 -48 -75 -34 -102 31 -59 76 -51 133 23 157
205 242 515 212 774 -26 222 -86 387 -198 548 -60 85 -85 94 -127 44z"/>
<path d="M1912 4386 c-16 -25 -44 -83 -62 -131 -19 -50 -36 -81 -41 -74 -9 14
-34 -70 -50 -169 -23 -141 18 -344 103 -505 59 -109 97 -131 128 -72 11 20 10
27 -7 52 -51 74 -96 204 -114 330 -24 169 26 371 133 543 18 28 -4 70 -37 70
-19 0 -32 -11 -53 -44z"/>
<path d="M3220 4395 c-30 -19 -58 -42 -62 -50 -6 -9 3 -38 25 -82 63 -126 72
-164 72 -318 0 -153 -13 -213 -76 -337 -17 -33 -27 -67 -24 -76 6 -19 97 -82
119 -82 26 0 78 88 114 195 42 127 47 158 47 310 -1 124 -5 164 -23 228 -38
132 -96 247 -126 247 -6 0 -36 -16 -66 -35z"/>
<path d="M2082 4233 c-50 -100 -67 -173 -66 -298 0 -102 4 -132 27 -201 28
-83 58 -134 81 -134 7 0 21 9 30 19 17 18 16 24 -14 112 -55 159 -50 307 15
447 29 62 20 92 -27 92 -22 0 -32 -8 -46 -37z"/>
<path d="M2380 4249 c-93 -42 -160 -139 -160 -231 0 -45 2 -48 25 -48 21 0 25
5 25 29 0 70 41 140 108 182 38 24 57 29 109 29 75 0 116 -18 138 -60 21 -41
19 -47 -10 -20 l-25 23 0 -53 c0 -103 -92 -201 -209 -224 -29 -5 -39 -1 -72
29 -23 20 -50 35 -64 35 -30 0 -30 3 -6 -53 24 -56 78 -117 126 -143 l36 -19
-3 -403 c-2 -222 -5 -407 -8 -412 -3 -4 -197 -9 -431 -12 -448 -4 -459 -5
-459 -48 0 -10 7 -23 15 -30 24 -20 19 -92 -8 -118 -20 -19 -35 -22 -115 -22
-91 0 -92 0 -92 -25 0 -25 0 -25 93 -25 93 0 93 0 126 34 33 34 34 34 60 18
69 -44 99 -74 94 -95 -4 -22 -4 -22 16 1 18 20 24 22 56 13 19 -5 33 -6 30 -1
-3 4 -20 11 -39 14 -22 4 -57 28 -100 67 -62 57 -66 64 -66 103 l0 43 61 7
c34 3 230 6 436 6 l373 0 -6 -27 c-4 -16 -13 -40 -21 -55 -12 -24 -11 -27 2
-22 8 4 15 10 15 15 0 20 28 7 39 -17 6 -15 15 -24 18 -20 3 3 -2 21 -12 40
-18 33 -18 35 -1 61 l18 27 91 -7 c159 -12 188 -19 219 -54 17 -19 28 -43 28
-60 0 -26 -8 -33 -88 -74 -84 -43 -92 -45 -153 -40 -42 3 -59 1 -50 -5 10 -8
8 -13 -10 -27 -20 -14 -20 -16 -4 -10 30 11 112 18 130 11 14 -5 14 -8 0 -35
-20 -40 -20 -77 1 -38 8 15 19 27 24 27 6 0 10 13 10 29 0 26 7 32 73 64 l72
35 7 -52 c3 -28 6 -103 7 -166 l1 -115 -34 -27 c-42 -34 -41 -33 -140 -4 l-80
23 -16 58 c-14 50 -21 61 -48 72 -26 11 -32 19 -32 44 0 23 -10 41 -39 69 -27
26 -37 32 -33 18 2 -10 13 -23 23 -29 13 -6 19 -21 19 -44 0 -47 8 -64 40 -80
23 -12 31 -25 40 -72 l12 -57 -33 -28 c-27 -23 -43 -28 -85 -28 -33 0 -54 -5
-57 -13 -3 -9 5 -12 30 -9 32 4 34 2 29 -16 -10 -30 9 -36 22 -7 7 14 20 25
30 25 10 0 24 6 30 12 17 17 30 -4 37 -62 3 -25 9 -56 12 -70 5 -20 7 -21 10
-7 4 17 6 17 30 2 36 -24 40 -11 5 15 -25 19 -31 31 -36 82 -9 78 0 90 56 73
34 -10 44 -18 54 -46 l12 -34 7 28 c7 25 11 27 36 22 21 -5 39 0 65 16 l36 22
-4 -226 c-4 -252 -6 -259 -79 -302 -33 -19 -50 -20 -589 -18 -558 1 -858 15
-909 42 -44 24 -52 62 -63 284 -13 254 1 642 25 700 19 45 43 57 136 69 73 9
91 18 91 47 0 20 -163 10 -212 -13 -87 -42 -98 -111 -98 -571 0 -332 8 -463
30 -505 22 -44 63 -80 102 -90 65 -18 335 -40 571 -47 162 -4 227 -10 227 -18
0 -6 -23 -74 -51 -151 -28 -76 -58 -158 -66 -181 -18 -48 -3 -44 -218 -73 -82
-11 -177 -24 -210 -30 -33 -5 -100 -14 -150 -21 -112 -14 -139 -24 -154 -55
-16 -35 -14 -110 3 -127 9 -8 58 -19 123 -26 119 -14 303 -39 373 -51 189 -33
614 -74 575 -55 -5 2 -66 14 -135 25 -69 11 -149 25 -177 30 -252 46 -268 49
-271 41 -3 -10 -144 5 -302 31 -110 19 -135 26 -138 41 -3 12 3 17 20 18 l23
0 -22 11 c-27 13 -29 30 -8 48 19 15 110 9 340 -24 124 -17 171 -29 210 -49
47 -25 84 -33 265 -57 120 -17 106 -9 -35 21 -172 36 -165 33 -165 63 0 27
-16 32 -185 55 -44 6 -102 14 -130 18 l-50 7 40 7 c22 4 87 12 145 19 88 9
118 8 185 -5 44 -8 117 -15 162 -15 51 0 83 -4 85 -11 2 -6 28 -13 58 -15 40
-3 49 -2 35 5 -14 7 12 9 85 9 101 0 103 -1 65 -13 -38 -13 -36 -13 65 -14 58
-1 164 -8 235 -16 348 -37 443 -50 432 -57 -8 -5 -7 -12 4 -25 33 -38 30 -47
-4 -14 l-36 34 -80 -13 c-45 -7 -81 -16 -81 -20 0 -5 37 -30 82 -56 45 -26 76
-50 70 -52 -6 -2 18 -46 55 -100 78 -114 44 -89 -62 45 -53 68 -84 97 -131
125 -59 34 -65 35 -114 26 -39 -7 -79 -4 -173 11 -67 11 -180 27 -252 36 -71
8 -199 25 -283 37 -135 19 -155 20 -168 6 -13 -13 3 -17 138 -37 84 -12 176
-26 203 -31 28 -4 91 -13 140 -20 50 -6 120 -15 157 -20 37 -6 85 -10 107 -10
l41 0 0 -59 c0 -57 -1 -60 -27 -64 l-28 -4 30 -3 c17 -2 -1 -6 -40 -9 l-70 -6
80 -18 c44 -10 89 -22 100 -26 18 -8 16 -11 -17 -25 -26 -11 -36 -21 -32 -31
7 -18 -22 -20 -93 -5 -26 5 -91 17 -143 25 -52 9 -134 23 -182 31 -48 9 -98
14 -110 12 -31 -5 117 -37 312 -67 81 -13 207 -31 214 -31 3 0 6 -18 6 -40 0
-26 -5 -40 -12 -40 -7 1 -82 11 -165 23 -136 20 -156 26 -181 50 -33 31 -42
33 -84 11 -25 -13 -42 -14 -102 -6 -76 11 -229 36 -311 51 -27 5 -88 15 -135
22 -47 6 -125 20 -175 31 -49 10 -133 25 -185 33 -117 19 -135 24 -122 37 7 7
64 7 174 -1 90 -6 193 -10 228 -10 l65 1 -65 14 c-66 13 -198 30 -327 41 -52
4 -73 10 -73 19 0 11 23 14 103 15 l102 1 -80 13 c-165 27 -185 18 -185 -82
l0 -60 -72 -7 c-40 -3 -86 -10 -103 -15 -29 -8 -29 -8 15 -14 218 -28 284 -38
293 -44 5 -3 -8 -21 -29 -39 l-39 -33 32 -1 c25 0 31 4 27 15 -4 8 -1 15 6 15
6 0 38 23 71 51 64 56 69 56 103 -2 17 -29 18 -32 2 -26 -15 6 -17 3 -11 -22
6 -27 4 -28 -41 -35 -26 -3 -70 -7 -98 -7 l-51 -2 60 -7 c33 -4 153 -8 266 -9
113 -1 282 -4 374 -8 l169 -6 -45 -40 c-24 -22 -57 -48 -74 -58 l-30 -19 53 0
c29 0 51 4 48 9 -7 10 180 151 200 151 7 0 20 -14 29 -30 10 -20 12 -30 4 -30
-11 0 -10 -6 7 -67 l6 -21 -49 24 c-65 32 -69 31 -65 -16 l4 -40 -103 -1 c-68
0 -97 -3 -84 -9 11 -5 79 -9 151 -9 126 -1 132 0 137 20 4 17 10 20 24 14 10
-5 92 -10 183 -11 114 -2 149 0 115 6 -27 4 -75 9 -105 9 -53 1 -56 3 -93 48
-35 43 -43 68 -15 46 30 -24 135 -33 500 -43 427 -12 580 -4 323 16 -82 7
-191 13 -242 13 -106 1 -130 15 -43 25 33 4 60 10 60 13 0 10 -82 133 -88 133
-4 0 -31 -26 -60 -58 -58 -62 -58 -57 -1 30 l38 58 -42 11 c-23 7 -69 18 -102
24 l-60 12 39 8 c27 5 62 2 123 -14 46 -12 89 -19 94 -16 5 4 9 2 9 -4 0 -5
-4 -13 -10 -16 -5 -3 14 -42 43 -85 l52 -80 125 1 c69 1 114 4 100 8 -39 9
-36 43 10 128 l42 76 -18 39 c-9 21 -20 38 -24 38 -14 0 -38 -36 -60 -88 -13
-29 -25 -51 -27 -48 -12 12 33 125 62 156 18 19 41 60 50 90 10 30 20 61 23
69 4 11 -5 12 -49 6 -71 -10 -79 -15 -101 -66 l-18 -44 6 40 c4 22 7 44 8 50
0 5 -30 13 -69 17 -101 10 -361 38 -425 46 -84 9 -28 20 110 21 107 1 413 -21
489 -35 18 -4 36 -2 40 3 3 5 26 7 50 5 45 -4 45 -4 16 -16 -22 -9 -32 -24
-46 -66 -10 -30 -18 -61 -18 -67 -1 -7 20 -18 45 -24 54 -14 42 -29 -23 -29
l-42 0 27 -61 c15 -35 42 -75 64 -95 45 -40 39 -43 -24 -9 l-47 25 -26 -45
c-15 -24 -25 -55 -23 -67 3 -23 5 -23 166 -26 106 -2 162 1 162 8 0 5 -24 10
-52 11 -91 1 -102 14 -24 29 52 10 152 11 410 7 187 -3 332 -4 321 -1 -11 2
-46 9 -78 16 -32 6 -60 14 -63 19 -2 4 23 11 56 15 33 4 60 10 60 13 0 6 -87
92 -142 140 -32 28 -36 26 -156 -70 l-87 -69 -135 0 c-185 0 -180 -2 -180 75
0 82 -5 93 -46 101 -49 9 -51 21 -5 35 26 8 41 19 45 33 10 39 6 101 -8 122
-15 22 -63 31 -276 54 -52 6 -158 17 -235 26 -247 27 -308 34 -382 40 -39 4
-76 10 -82 14 -13 8 -162 371 -156 380 2 4 120 10 262 14 260 6 496 25 569 45
50 13 102 67 116 117 16 59 23 774 8 880 -12 93 -33 135 -81 160 -32 16 -305
41 -561 50 l-188 7 0 412 0 413 31 12 c54 23 114 93 134 155 45 143 -19 292
-151 354 -59 28 -162 28 -224 0z m226 -418 c-15 -16 -56 -35 -56 -26 0 4 63
45 69 45 2 0 -4 -9 -13 -19z m-116 -284 c0 -38 -5 -56 -22 -74 -12 -13 -25
-23 -30 -23 -10 0 -10 69 -2 173 l7 77 23 -51 c15 -32 24 -69 24 -102z m-21
-369 c-12 -10 -25 -18 -29 -18 -4 0 -8 57 -9 127 l-2 126 28 23 28 22 3 -131
c3 -125 2 -133 -19 -149z m21 -144 l0 -135 -27 3 -28 3 -3 104 c-3 102 -2 105
25 133 14 15 28 28 30 28 2 0 3 -61 3 -136z m683 -224 c54 -6 107 -15 117 -20
38 -20 41 -63 42 -529 0 -358 -3 -453 -14 -472 -11 -21 -14 46 -23 463 -6 298
-14 491 -20 497 -7 7 -9 -151 -7 -474 3 -466 0 -525 -26 -525 -4 0 -6 44 -4
97 1 54 -1 161 -6 238 l-8 140 -8 -225 c-7 -207 -14 -260 -34 -260 -4 0 -8
226 -10 502 -1 310 -6 506 -12 512 -7 7 -10 -158 -10 -473 0 -424 -2 -487 -16
-517 -9 -19 -21 -34 -26 -34 -5 0 -6 5 -2 11 4 7 7 234 7 506 0 412 -2 497
-14 508 -12 12 -14 -55 -14 -478 0 -455 -1 -495 -18 -520 -9 -15 -21 -27 -25
-27 -4 0 -6 224 -4 497 3 496 0 543 -31 543 -6 0 -8 -188 -6 -503 3 -416 2
-507 -10 -520 -27 -33 -36 -19 -34 50 1 62 1 64 -6 20 -6 -41 -43 -100 -54
-86 -2 2 0 47 5 99 12 117 2 848 -13 910 -5 25 -12 53 -15 62 -3 10 2 18 12
20 27 5 179 -1 287 -12z m-813 -1198 c0 -15 -2 -15 -10 -2 -13 20 -13 33 0 25
6 -3 10 -14 10 -23z m-188 -24 c-8 -8 -9 -4 -5 13 4 13 8 18 11 10 2 -7 -1
-18 -6 -23z m73 -426 c-4 -18 -11 -23 -33 -20 -26 3 -27 5 -27 71 0 47 -4 67
-12 67 -17 0 -16 25 1 39 10 8 17 46 22 122 6 96 9 112 28 125 l21 14 3 -197
c1 -109 0 -208 -3 -221z m85 353 c0 -8 -4 -17 -10 -20 -6 -4 -10 5 -10 20 0
15 4 24 10 20 6 -3 10 -12 10 -20z m-207 3 c4 -10 8 -9 17 2 9 13 10 12 6 -5
-36 -139 -49 -181 -76 -245 -40 -93 -56 -113 -81 -100 -10 6 -29 10 -43 10
-37 0 -32 18 6 22 35 3 29 -6 89 163 60 169 69 186 82 153z m317 -161 c23 -43
40 -80 38 -82 -2 -2 -36 -1 -76 2 l-72 6 0 46 c0 57 38 137 57 118 6 -6 30
-47 53 -90z m1713 -514 c3 -5 8 -33 12 -63 7 -50 6 -53 -9 -41 -11 10 -29 12
-59 7 -108 -19 -120 -14 -64 25 17 13 46 36 62 51 30 28 50 35 58 21z m-2370
-184 c53 -7 97 -16 97 -21 0 -5 -51 -7 -112 -6 -84 2 -112 6 -110 16 1 6 -2
12 -8 12 -5 0 -10 5 -10 10 0 6 10 8 23 6 12 -3 66 -10 120 -17z"/>
<path d="M3217 2600 c3 -91 7 -167 9 -169 9 -10 3 305 -6 319 -6 10 -7 -43 -3
-150z"/>
<path d="M2860 4185 c-10 -13 -8 -30 11 -93 32 -104 32 -222 0 -307 -30 -79
-31 -104 -5 -121 32 -22 60 7 90 96 44 126 34 302 -23 413 -15 31 -52 37 -73
12z"/>
<path d="M2492 2660 c0 -14 2 -19 5 -12 2 6 2 18 0 25 -3 6 -5 1 -5 -13z"/>
<path d="M1300 2585 c-10 -12 -10 -18 0 -30 9 -11 34 -15 100 -15 66 0 91 4
100 15 10 12 10 18 0 30 -9 11 -34 15 -100 15 -66 0 -91 -4 -100 -15z"/>
<path d="M1801 2574 c0 -11 3 -14 6 -6 3 7 2 16 -1 19 -3 4 -6 -2 -5 -13z"/>
<path d="M1831 2499 c-1 -32 4 -40 39 -63 32 -21 40 -32 40 -56 0 -18 8 -34
22 -44 12 -9 28 -26 35 -38 12 -23 12 -23 13 -2 0 12 -11 29 -26 38 -18 13
-24 24 -22 44 3 22 10 28 53 38 l50 13 -51 -5 c-45 -5 -57 -2 -93 23 -24 16
-45 40 -50 58 l-9 30 -1 -36z"/>
<path d="M1301 2487 c-6 -8 -9 -22 -5 -31 5 -13 22 -16 98 -16 101 0 127 9
110 37 -15 24 -184 32 -203 10z"/>
<path d="M1335 2403 c-33 -5 -46 -19 -38 -40 8 -21 201 -19 210 3 3 8 2 19 -3
23 -11 10 -128 20 -169 14z"/>
<path d="M1603 2230 c-32 -13 -53 -62 -53 -124 0 -85 51 -134 115 -110 27 11
45 60 45 124 0 55 -3 65 -29 91 -31 31 -42 33 -78 19z"/>
<path d="M2283 2228 c-52 -25 -64 -162 -18 -212 28 -31 73 -35 104 -8 32 27
48 101 31 151 -7 23 -16 41 -18 41 -3 0 -17 -10 -31 -22 l-25 -23 23 32 c21
31 21 32 2 42 -24 13 -39 13 -68 -1z"/>
<path d="M1864 2015 c-5 -19 -1 -35 13 -53 44 -60 121 -65 175 -12 31 31 36
61 13 80 -17 14 -40 1 -50 -30 -12 -39 -77 -32 -98 10 -18 35 -45 38 -53 5z"/>
<path d="M2643 1053 c9 -2 25 -2 35 0 9 3 1 5 -18 5 -19 0 -27 -2 -17 -5z"/>
<path d="M2228 953 c6 -2 18 -2 25 0 6 3 1 5 -13 5 -14 0 -19 -2 -12 -5z"/>
<path d="M615 798 c-189 -167 -207 -179 -287 -189 -40 -5 -93 -13 -118 -18
-42 -8 -39 -9 40 -10 148 -3 274 -15 395 -36 80 -14 228 -17 220 -5 -2 4 -26
15 -52 25 -64 24 -70 31 -35 43 22 8 49 6 108 -7 120 -27 219 -41 277 -40 l52
1 -83 28 c-89 29 -116 47 -291 193 -59 49 -114 87 -126 86 -11 0 -56 -32 -100
-71z m131 -9 c19 -22 19 -22 -2 -11 -21 11 -21 10 -11 -36 5 -26 10 -62 11
-81 1 -34 0 -35 -58 -52 -50 -15 -67 -16 -110 -6 -28 6 -54 16 -58 21 -9 14
11 36 33 36 12 0 16 5 13 15 -4 8 -2 15 3 15 9 0 14 3 96 78 25 23 50 42 55
42 5 0 17 -10 28 -21z"/>
<path d="M2638 833 c12 -2 30 -2 40 0 9 3 -1 5 -23 4 -22 0 -30 -2 -17 -4z"/>
<path d="M4366 778 c-8 -13 -17 -33 -20 -44 -9 -29 16 -33 234 -39 178 -4 185
2 26 24 -44 6 -84 17 -90 25 -16 21 -87 56 -113 56 -12 0 -29 -10 -37 -22z"/>
<path d="M3658 574 c-132 -93 -136 -106 -39 -123 84 -13 171 -14 171 -2 0 19
-32 41 -58 41 -34 0 -72 10 -72 19 1 3 26 23 58 45 l56 38 33 -17 c17 -10 41
-28 53 -40 l21 -22 -52 5 c-48 4 -52 3 -44 -14 4 -10 10 -27 12 -37 5 -15 16
-17 87 -15 58 2 80 7 79 16 -2 7 7 12 22 12 14 0 25 3 24 8 -1 12 -205 157
-225 160 -11 1 -67 -32 -126 -74z"/>
<path d="M4401 596 c-15 -18 5 -26 61 -26 l41 0 -26 20 c-29 23 -60 26 -76 6z"/>
<path d="M1855 570 c-4 -6 6 -10 22 -10 22 0 25 2 13 10 -19 12 -27 12 -35 0z"/>
<path d="M1500 516 c0 -14 23 -16 173 -15 184 2 162 10 -60 23 -98 6 -113 5
-113 -8z"/>
<path d="M1363 480 c-29 -23 -20 -30 39 -30 53 0 56 10 10 34 -24 12 -30 12
-49 -4z"/>
<path d="M2873 395 l-28 -24 29 -1 c24 0 27 -2 16 -15 -11 -13 -2 -15 71 -14
63 0 78 3 61 10 -13 5 -40 23 -60 39 -44 36 -53 37 -89 5z"/>
</g>
</svg>
