<?xml version="1.0" standalone="no"?>
<!DOCTYPE svg PUBLIC "-//W3C//DTD SVG 20010904//EN"
 "http://www.w3.org/TR/2001/REC-SVG-20010904/DTD/svg10.dtd">
<svg version="1.0" xmlns="http://www.w3.org/2000/svg"
 width="500.000000pt" height="500.000000pt" viewBox="0 0 500.000000 500.000000"
 preserveAspectRatio="xMidYMid meet">

<g transform="translate(0.000000,500.000000) scale(0.100000,-0.100000)"
fill="#000000" stroke="none">
<path d="M1175 4705 c-43 -42 -24 -106 37 -128 9 -3 96 -165 204 -379 103
-205 207 -408 230 -452 24 -43 44 -84 43 -90 0 -6 -32 -33 -70 -61 -259 -185
-424 -489 -460 -848 -11 -112 -6 -276 11 -369 9 -45 6 -53 -45 -160 -154 -323
-191 -618 -84 -673 33 -18 86 -19 126 -4 56 21 150 134 239 285 10 17 19 12
96 -61 95 -91 216 -175 331 -232 71 -34 78 -40 74 -63 -63 -352 -97 -598 -97
-707 0 -68 18 -122 50 -155 l28 -28 419 0 c230 0 435 3 455 6 100 17 -6 24
-345 24 l-372 0 80 42 c44 22 99 54 122 69 23 16 48 29 55 29 12 0 51 -71 48
-86 -3 -13 25 -24 62 -24 29 0 41 6 57 29 26 36 26 63 1 136 -52 151 -118 202
-184 140 -14 -13 -26 -29 -26 -34 0 -20 -199 -136 -269 -156 l-24 -7 7 113 c4
63 11 139 16 169 5 30 14 89 20 130 6 41 19 109 27 150 9 41 18 87 20 103 6
32 5 31 69 12 201 -59 449 -77 667 -49 l47 7 0 -184 c0 -361 27 -580 77 -640
l25 -29 -74 -1 c-40 -1 -77 -2 -83 -4 -5 -1 -81 -3 -167 -3 -98 -1 -158 -6
-158 -12 0 -11 1314 -15 1369 -4 25 5 29 9 20 20 -9 11 -9 14 0 14 7 0 18 15
26 34 13 30 12 42 -1 92 -18 72 -75 175 -110 203 -42 33 -72 27 -119 -24 -46
-49 -102 -77 -233 -119 -127 -40 -213 -57 -298 -59 l-78 -2 -14 55 c-9 38 -15
157 -19 378 -5 285 -4 322 10 322 8 0 47 13 86 29 289 118 516 365 620 677 49
145 64 263 58 454 -4 133 -10 184 -31 263 -89 345 -292 577 -661 758 -278 135
-557 197 -835 185 -158 -7 -242 -21 -365 -60 -60 -19 -81 -22 -87 -13 -9 13
-161 277 -200 347 -38 67 -272 470 -296 509 -15 25 -18 40 -11 57 11 30 -3 67
-33 88 -32 22 -55 20 -83 -9z m45 -23 c0 -13 -12 -22 -22 -16 -10 6 -1 24 13
24 5 0 9 -4 9 -8z m1235 -952 c118 -14 170 -25 285 -62 174 -56 273 -118 405
-252 327 -333 399 -889 170 -1322 -73 -140 -191 -282 -280 -339 -55 -36 -183
-91 -285 -123 -436 -137 -989 -32 -1262 242 l-37 37 20 47 c11 26 34 87 50
136 16 50 38 95 48 103 29 20 64 81 57 99 -4 11 -15 15 -35 12 -29 -4 -29 -4
-15 23 20 39 18 66 -7 79 -17 10 -25 6 -55 -25 l-34 -36 6 28 c7 37 -15 68
-44 59 -15 -5 -24 -21 -33 -60 -11 -49 -13 -52 -36 -48 -47 9 -53 -42 -12 -99
10 -15 19 -36 19 -46 0 -87 -185 -453 -237 -471 -37 -12 13 221 78 366 10 23
21 42 24 42 3 0 17 -24 31 -52 l27 -53 14 33 c11 27 11 37 -1 60 -25 49 -66
172 -83 250 -24 109 -23 406 1 517 62 285 206 521 401 660 220 156 525 228
820 195z m1267 -3122 c18 -35 34 -66 36 -70 2 -5 -92 -8 -210 -8 -133 0 -207
4 -197 10 8 5 51 21 95 35 43 15 111 42 149 60 39 18 76 34 82 34 7 1 27 -27
45 -61z"/>
<path d="M1591 3416 c-41 -42 -47 -66 -16 -66 17 0 94 80 95 98 0 25 -37 10
-79 -32z"/>
<path d="M1471 3274 c-21 -26 -19 -54 4 -54 18 0 58 57 50 70 -11 17 -33 11
-54 -16z"/>
<path d="M1412 3158 c-22 -29 -53 -101 -48 -114 11 -29 36 -12 62 41 24 52 26
85 6 85 -5 0 -14 -6 -20 -12z"/>
<path d="M2577 3143 c-20 -19 -5 -55 35 -83 46 -34 66 -37 75 -14 16 42 -80
128 -110 97z"/>
<path d="M1828 3115 c-53 -36 -65 -95 -20 -95 10 0 34 14 55 31 29 24 37 37
35 58 -4 35 -25 37 -70 6z"/>
<path d="M2540 2902 c-23 -23 -29 -41 -35 -97 -10 -86 -1 -221 16 -258 13 -30
45 -43 82 -33 36 9 50 51 55 169 5 137 -3 193 -33 223 -31 31 -50 30 -85 -4z"/>
<path d="M1841 2895 c-28 -37 -36 -81 -35 -205 0 -116 15 -162 59 -182 19 -9
29 -7 50 6 41 27 49 60 49 201 1 114 -2 134 -19 165 -28 47 -73 53 -104 15z"/>
<path d="M2198 2515 c-28 -16 -43 -49 -36 -82 3 -15 15 -18 85 -20 88 -2 101
6 84 50 -21 53 -85 79 -133 52z"/>
<path d="M3170 2493 c-46 -17 -55 -40 -90 -228 -28 -149 -75 -295 -108 -335
-22 -26 -35 -33 -67 -33 -24 -1 -52 7 -69 18 -28 19 -81 86 -125 157 l-22 38
26 34 c47 62 17 138 -36 90 -23 -21 -23 -21 -38 41 -19 77 -58 108 -81 66 -5
-11 -10 -32 -10 -47 l0 -27 -21 27 c-14 17 -29 26 -43 24 -18 -3 -21 -9 -19
-44 1 -36 -1 -40 -20 -40 -16 1 -23 -6 -25 -22 -3 -18 9 -36 42 -67 25 -24 70
-84 101 -134 97 -157 197 -250 293 -272 62 -15 137 8 192 57 67 61 132 213
169 399 6 28 15 71 21 97 14 64 13 161 -2 180 -15 19 -47 28 -68 21z"/>
<path d="M3317 2343 c-12 -11 -8 -23 8 -23 8 0 15 7 15 15 0 16 -12 20 -23 8z"/>
<path d="M3282 2246 c-8 -19 -8 -27 3 -36 11 -9 16 -7 24 9 6 11 11 27 11 35
0 25 -26 19 -38 -8z"/>
<path d="M3270 2156 c0 -9 5 -16 10 -16 6 0 10 4 10 9 0 6 -4 13 -10 16 -5 3
-10 -1 -10 -9z"/>
<path d="M3225 2070 c-11 -22 -13 -36 -7 -42 7 -7 16 0 27 22 11 22 13 36 7
42 -7 7 -16 0 -27 -22z"/>
<path d="M1570 2006 c0 -24 37 -62 50 -50 8 8 5 18 -10 37 -23 29 -40 35 -40
13z"/>
<path d="M1510 1955 c0 -13 30 -62 45 -75 11 -9 19 -10 27 -2 7 7 2 21 -18 46
-25 31 -54 48 -54 31z"/>
<path d="M3815 3327 c-49 -49 -59 -108 -20 -123 19 -8 45 13 45 36 0 21 31 50
53 50 9 0 23 -10 31 -22 17 -24 11 -43 -35 -96 -30 -34 -37 -78 -19 -113 20
-36 79 -13 64 25 -4 11 5 33 25 60 45 63 53 91 41 136 -14 50 -54 80 -110 80
-34 0 -48 -6 -75 -33z"/>
<path d="M1015 3306 c-49 -35 20 -96 113 -99 44 -2 47 0 47 23 0 19 -10 30
-42 48 -62 34 -98 43 -118 28z"/>
<path d="M1011 3079 c-53 -10 -64 -19 -59 -49 4 -32 35 -40 98 -23 66 17 89
36 74 61 -13 20 -51 24 -113 11z"/>
<path d="M3890 2970 c-8 -15 -6 -24 10 -40 25 -25 32 -25 54 -1 14 15 15 24 6
40 -14 27 -56 28 -70 1z"/>
<path d="M642 863 c-7 -3 -19 -18 -28 -35 -12 -24 -13 -36 -4 -64 6 -19 20
-39 30 -44 26 -14 72 -12 93 4 15 12 51 5 265 -50 239 -62 408 -104 936 -234
137 -34 260 -66 273 -71 20 -7 50 -57 41 -68 -2 -2 -45 -3 -95 -2 -54 1 -93
-2 -93 -7 0 -15 35 -20 195 -27 88 -3 162 -2 180 4 28 9 29 9 5 10 -14 1 -35
4 -47 7 l-23 6 20 28 c30 43 22 95 -19 127 -21 16 -76 16 -100 1 -16 -10 -110
11 -548 120 -290 72 -616 155 -723 183 -107 28 -205 54 -217 56 -13 3 -23 9
-23 14 0 4 -10 17 -22 29 -21 19 -66 25 -96 13z m46 -45 c-6 -18 -28 -21 -28
-4 0 9 7 16 16 16 9 0 14 -5 12 -12z m1632 -413 c0 -8 -7 -15 -15 -15 -16 0
-20 12 -8 23 11 12 23 8 23 -8z"/>
<path d="M760 550 c-85 -32 -160 -67 -168 -77 -7 -10 -12 -33 -10 -50 4 -32 3
-33 -33 -33 -21 0 -44 -3 -53 -6 -32 -12 -15 -24 34 -24 39 0 67 -9 136 -45
l86 -45 241 10 c269 12 310 16 301 31 -4 6 -75 8 -197 4 -175 -5 -189 -5 -160
9 38 17 131 36 180 36 20 0 32 4 28 10 -3 6 -15 10 -26 10 -17 0 -18 3 -7 20
11 17 20 19 85 13 48 -4 73 -2 73 4 0 17 -26 23 -91 23 -55 0 -59 1 -59 23 0
13 -8 31 -17 39 -28 24 -166 108 -178 108 -5 -1 -80 -27 -165 -60z m238 -28
c28 -19 52 -38 52 -42 0 -4 -46 -25 -102 -47 -57 -23 -119 -48 -139 -56 -34
-15 -36 -15 -85 16 -27 18 -58 40 -68 49 -19 17 -19 18 0 24 10 4 46 18 78 30
33 13 64 24 70 25 6 0 33 11 60 24 56 26 60 25 134 -23z"/>
<path d="M903 528 c2 -7 10 -13 17 -13 7 0 15 6 18 13 2 7 -5 12 -18 12 -13 0
-20 -5 -17 -12z"/>
<path d="M847 514 c-11 -11 3 -24 24 -24 12 0 19 5 17 13 -5 14 -31 21 -41 11z"/>
<path d="M785 490 c-8 -13 3 -30 20 -30 20 0 30 21 14 31 -18 11 -26 11 -34
-1z"/>
<path d="M721 466 c-13 -15 -4 -26 21 -26 21 0 24 25 4 33 -8 3 -19 0 -25 -7z"/>
<path d="M835 449 c-4 -6 -2 -15 5 -19 17 -10 42 -1 37 14 -5 16 -34 19 -42 5z"/>
<path d="M770 415 c0 -8 9 -15 20 -15 11 0 20 7 20 15 0 8 -9 15 -20 15 -11 0
-20 -7 -20 -15z"/>
<path d="M4060 550 c0 -5 18 -10 41 -10 24 0 38 4 34 10 -3 6 -22 10 -41 10
-19 0 -34 -4 -34 -10z"/>
<path d="M1359 470 c-9 -5 -22 -23 -29 -40 -17 -41 6 -75 61 -90 34 -9 46 -8
77 7 34 17 45 18 142 7 153 -18 232 -21 234 -9 0 6 -61 17 -139 26 -187 21
-202 25 -209 54 -11 43 -94 70 -137 45z m91 -45 c16 -19 9 -49 -13 -53 -49
-10 -90 25 -66 54 15 18 63 18 79 -1z"/>
<path d="M4022 458 c4 -10 45 -14 154 -16 153 -3 194 1 194 18 0 6 -68 10
-176 10 -136 0 -175 -3 -172 -12z"/>
<path d="M3190 441 c-138 -4 -213 -10 -210 -16 5 -9 679 -8 689 1 20 19 -149
24 -479 15z"/>
<path d="M357 434 c-19 -19 0 -25 76 -22 46 2 82 7 82 13 0 11 -147 20 -158 9z"/>
<path d="M2872 429 c2 -7 10 -15 17 -17 8 -3 12 1 9 9 -2 7 -10 15 -17 17 -8
3 -12 -1 -9 -9z"/>
<path d="M3708 364 c-22 -7 -23 -20 -2 -28 27 -10 152 -7 159 5 4 6 4 13 1 16
-7 8 -137 13 -158 7z"/>
<path d="M1970 290 c0 -5 7 -10 15 -10 8 0 15 5 15 10 0 6 -7 10 -15 10 -8 0
-15 -4 -15 -10z"/>
<path d="M1398 276 c-91 -6 -170 -14 -173 -18 -17 -17 58 -20 228 -9 206 14
290 19 297 20 3 1 -2 6 -10 11 -18 12 -121 11 -342 -4z"/>
<path d="M450 260 c-25 -15 -1 -25 65 -25 65 0 82 6 70 24 -8 13 -114 14 -135
1z"/>
</g>
</svg>
