<?xml version="1.0" standalone="no"?>
<!DOCTYPE svg PUBLIC "-//W3C//DTD SVG 20010904//EN"
 "http://www.w3.org/TR/2001/REC-SVG-20010904/DTD/svg10.dtd">
<svg version="1.0" xmlns="http://www.w3.org/2000/svg"
 width="500.000000pt" height="500.000000pt" viewBox="0 0 500.000000 500.000000"
 preserveAspectRatio="xMidYMid meet">

<g transform="translate(0.000000,500.000000) scale(0.100000,-0.100000)"
fill="#000000" stroke="none">
<path d="M2375 4408 c-57 -21 -111 -65 -135 -114 -21 -39 -25 -62 -25 -128 0
-70 3 -86 25 -116 37 -54 80 -88 135 -109 l50 -19 3 -149 3 -150 -78 -7 c-171
-15 -367 -68 -497 -132 -96 -48 -151 -88 -227 -163 -181 -180 -269 -433 -269
-774 0 -275 47 -408 194 -552 117 -114 215 -166 408 -220 l58 -16 -54 -67
c-94 -118 -146 -243 -146 -350 l0 -41 -41 1 c-48 0 -52 -4 -73 -91 -70 -292
-70 -296 -21 -317 51 -21 281 -94 340 -108 51 -12 61 -25 64 -83 1 -21 -3 -22
-116 -25 -65 -2 -120 -2 -122 -1 -2 2 2 9 8 17 16 19 6 36 -20 36 -12 0 -27
-12 -37 -30 -14 -25 -23 -30 -54 -30 -21 0 -38 4 -38 8 0 18 -59 96 -81 108
-33 18 -74 17 -94 -3 -17 -16 -17 -53 0 -96 6 -15 0 -17 -50 -17 -54 0 -60 3
-96 40 -31 32 -46 40 -74 40 -38 0 -60 -25 -44 -51 15 -24 10 -28 -43 -31 -29
-2 -53 -8 -55 -15 -4 -10 91 -13 424 -16 575 -4 2086 3 2093 9 3 3 -3 11 -12
18 -12 9 -14 16 -7 23 15 15 2 51 -22 64 -32 17 -75 1 -113 -42 -33 -36 -40
-39 -87 -39 -28 0 -49 3 -47 8 2 4 10 19 17 34 21 41 8 62 -34 55 -32 -5 -35
-4 -35 19 0 24 -7 28 -45 24 -29 -3 -75 -49 -96 -97 -23 -54 -55 -58 -81 -13
-10 17 -25 30 -36 30 -24 0 -35 -23 -19 -39 6 -6 9 -12 6 -14 -2 -2 -59 -2
-125 1 l-121 4 9 42 c25 108 38 222 38 332 l0 122 37 -19 c21 -10 45 -19 55
-19 33 0 87 62 108 122 45 130 9 267 -113 425 l-56 72 57 16 c185 51 291 106
393 205 126 121 182 246 200 443 16 177 -1 370 -47 524 -33 112 -55 160 -108
241 -111 167 -274 285 -503 361 -89 30 -305 71 -375 71 l-38 0 0 150 c0 112 3
152 13 154 108 31 165 78 197 163 24 65 25 95 4 161 -35 107 -126 172 -239
171 -33 0 -73 -5 -90 -11z m158 -30 c23 -7 60 -31 83 -53 106 -102 74 -285
-61 -346 -51 -24 -65 -24 -65 0 0 13 11 23 34 31 45 15 103 79 112 124 21 114
-58 209 -175 209 -93 0 -146 -41 -171 -131 -21 -81 25 -167 109 -201 38 -16
46 -57 9 -45 -59 18 -117 64 -142 112 -23 47 -27 83 -15 141 9 47 19 64 59
102 65 63 139 82 223 57z m14 -94 c34 -26 63 -80 63 -117 0 -32 -49 -107 -76
-118 -57 -21 -59 -2 -4 50 32 31 40 45 40 74 0 80 -97 132 -165 89 -60 -38
-63 -137 -5 -170 37 -21 42 -57 8 -47 -13 4 -36 20 -53 36 -27 27 -30 35 -30
95 0 65 1 67 39 100 34 30 46 34 94 34 44 0 62 -5 89 -26z m-36 -64 c24 -23
28 -34 23 -57 -15 -62 -49 -74 -39 -14 6 34 3 41 -14 51 -15 8 -27 8 -41 0
-17 -9 -19 -17 -14 -53 l7 -42 -22 19 c-31 28 -28 79 5 105 36 29 60 26 95 -9z
m167 -685 c93 -17 189 -40 230 -57 171 -69 232 -106 349 -212 39 -34 122 -154
150 -216 55 -120 84 -261 90 -445 10 -276 -36 -429 -169 -565 -109 -113 -266
-183 -508 -227 -75 -14 -149 -18 -350 -18 -300 0 -411 14 -590 76 -179 62
-319 176 -389 317 -12 24 -31 80 -42 125 -19 73 -20 104 -16 277 4 167 8 209
30 291 27 102 71 204 120 279 38 57 140 163 193 201 101 70 267 135 419 163
44 8 89 17 100 19 50 11 307 5 383 -8z m-409 -1872 c42 -54 69 -65 91 -38 18
22 25 19 38 -18 17 -46 15 -69 -13 -177 -14 -52 -25 -104 -25 -115 0 -23 85
-125 104 -125 16 0 112 109 109 124 -1 6 -14 66 -28 133 -23 104 -25 127 -15
158 13 40 17 41 50 18 23 -17 24 -16 74 39 44 48 57 56 99 62 43 7 53 4 96
-23 81 -53 180 -209 195 -310 6 -37 4 -43 -10 -37 -35 14 -91 17 -131 8 l-43
-10 -1 42 c-1 77 -23 199 -37 204 -14 4 -13 -62 4 -299 4 -62 2 -78 -10 -82
-24 -10 -196 -35 -278 -42 -124 -9 -418 22 -444 47 -3 4 4 99 22 289 4 42 2
69 -4 73 -16 10 -20 -3 -37 -120 -9 -60 -18 -123 -21 -141 -5 -31 -5 -32 -37
-19 -18 8 -58 17 -90 21 l-57 6 6 42 c10 68 87 216 139 269 64 64 110 86 168
79 39 -5 50 -12 86 -58z m131 42 c-7 -9 -26 -25 -43 -37 l-29 -21 -24 29 c-13
16 -23 32 -24 37 0 4 30 7 66 7 59 0 65 -2 54 -15z m239 -7 c-27 -50 -36 -52
-79 -18 -22 17 -40 34 -40 36 0 2 29 4 65 4 65 0 66 0 54 -22z m365 -384 c25
-10 20 -67 -9 -98 -31 -33 -41 -33 -76 5 -35 38 -48 77 -28 90 16 10 90 12
113 3z m-1005 -46 c23 -8 23 -9 6 -28 -26 -29 -80 -27 -101 5 -8 13 -13 29 -9
35 7 11 59 5 104 -12z m-189 -18 c19 -5 49 -24 65 -42 23 -24 25 -30 10 -24
-36 15 -98 27 -104 21 -9 -9 -30 -108 -25 -117 2 -3 50 -21 107 -38 56 -17
121 -37 145 -44 43 -14 43 -13 53 13 6 14 11 43 12 65 2 42 -4 48 -68 65 -93
24 -94 25 -45 31 45 5 160 -16 160 -30 0 -12 -68 -312 -72 -314 -3 -3 -340
104 -347 110 -7 7 59 314 68 314 3 0 22 -5 41 -10z m67 -94 c50 -16 53 -19 47
-44 -10 -41 -15 -43 -77 -25 -59 16 -63 23 -51 71 4 13 12 21 18 19 6 -2 35
-12 63 -21z m933 5 c0 -9 -21 -19 -45 -22 -5 -1 -20 -5 -32 -10 -19 -7 -23 -5
-23 11 0 14 9 20 33 23 60 7 67 7 67 -2z m-138 -33 c-15 -15 -26 -4 -18 18 5
13 9 15 18 6 9 -9 9 -15 0 -24z m-402 7 c0 -8 -4 -15 -10 -15 -5 0 -10 7 -10
15 0 8 5 15 10 15 6 0 10 -7 10 -15z m298 -9 c3 -15 -3 -17 -45 -14 -54 3 -61
20 -11 29 43 8 52 6 56 -15z m53 1 c-13 -13 -26 -3 -16 12 3 6 11 8 17 5 6 -4
6 -10 -1 -17z m-171 -2 c0 -11 -12 -15 -45 -15 -33 0 -45 4 -45 15 0 11 12 15
45 15 33 0 45 -4 45 -15z m-434 -10 c31 -13 34 -17 28 -42 -10 -41 -16 -45
-55 -32 -48 16 -51 21 -38 57 12 36 17 37 65 17z m169 -27 c-11 -69 -52 -245
-59 -257 -8 -12 -36 -15 -36 -3 1 4 10 48 21 97 11 50 24 110 30 135 13 63 16
70 35 70 13 0 15 -7 9 -42z m386 -298 c16 -58 29 -106 29 -107 0 -2 -61 -3
-136 -3 l-136 0 6 23 c3 12 16 58 27 102 12 44 23 84 26 88 3 4 39 7 80 5 l76
-3 28 -105z"/>
<path d="M1815 3311 c-13 -41 33 -106 85 -121 48 -14 59 7 20 40 -16 14 -36
42 -45 63 -17 41 -49 51 -60 18z"/>
<path d="M1826 2823 c-29 -8 -90 -48 -121 -79 -46 -46 -75 -125 -75 -203 0
-118 52 -204 154 -254 132 -65 286 -12 361 124 26 47 30 64 30 134 0 64 -5 89
-23 125 -53 101 -129 152 -236 156 -39 2 -80 0 -90 -3z m81 -85 c30 -34 34
-55 19 -92 -18 -44 -64 -63 -106 -46 -36 15 -50 37 -50 80 0 67 93 106 137 58z"/>
<path d="M2960 2823 c-132 -45 -203 -141 -203 -278 -1 -117 59 -213 166 -263
123 -58 286 0 350 125 79 154 3 354 -156 407 -46 15 -125 20 -157 9z m77 -85
c26 -24 31 -82 10 -109 -33 -43 -84 -49 -123 -15 -21 18 -28 32 -28 61 0 72
89 112 141 63z"/>
<path d="M2380 2487 c0 -8 6 -20 14 -26 41 -34 156 -18 156 21 0 18 -4 19 -42
12 -50 -8 -53 -8 -95 1 -26 6 -33 4 -33 -8z"/>
<path d="M2665 1551 c-75 -6 -80 -7 -79 -28 0 -13 1 -46 2 -73 l2 -51 93 3 92
3 0 75 c0 85 9 79 -110 71z m85 -70 c0 -35 -3 -39 -31 -45 -17 -3 -47 -6 -65
-6 -34 0 -34 1 -34 45 l0 45 65 0 65 0 0 -39z"/>
<path d="M2680 1502 c-58 -6 -60 -22 -2 -22 29 0 52 4 52 9 0 14 -11 17 -50
13z"/>
<path d="M2650 1460 c0 -5 18 -10 40 -10 22 0 40 5 40 10 0 6 -18 10 -40 10
-22 0 -40 -4 -40 -10z"/>
<path d="M1752 1028 c3 -7 15 -15 27 -16 16 -3 22 1 19 10 -3 7 -15 15 -27 16
-16 3 -22 -1 -19 -10z"/>
<path d="M1830 1010 c0 -14 49 -32 62 -24 6 4 1 12 -13 20 -29 16 -49 18 -49
4z"/>
<path d="M1734 989 c-8 -13 -5 -16 30 -25 21 -5 28 -4 24 6 -6 18 -46 32 -54
19z"/>
<path d="M1932 979 c4 -13 94 -49 102 -41 13 12 3 21 -41 36 -55 19 -66 20
-61 5z"/>
<path d="M1825 960 c-7 -12 42 -36 53 -26 4 4 -2 14 -12 22 -23 17 -33 18 -41
4z"/>
<path d="M1920 930 c0 -11 38 -28 83 -37 45 -9 31 14 -20 31 -55 19 -63 20
-63 6z"/>
<path d="M2000 1070 c0 -5 5 -10 10 -10 6 0 10 5 10 10 0 6 -4 10 -10 10 -5 0
-10 -4 -10 -10z"/>
<path d="M1827 4346 c-7 -16 1 -26 20 -26 7 0 13 9 13 20 0 23 -25 27 -33 6z"/>
<path d="M2891 4302 c-8 -15 -6 -23 9 -37 16 -15 22 -16 35 -5 9 7 15 23 13
34 -4 28 -43 34 -57 8z"/>
<path d="M3064 3979 c-7 -12 15 -31 28 -23 4 3 8 12 8 20 0 17 -26 19 -36 3z"/>
<path d="M1701 3917 c-6 -16 -11 -32 -11 -37 0 -5 -16 -22 -36 -38 l-36 -30
29 -15 c27 -14 43 -37 57 -80 7 -22 26 -13 26 12 0 23 37 71 55 71 27 0 26 20
-1 32 -18 8 -35 31 -50 63 l-22 50 -11 -28z"/>
<path d="M1415 3911 c-8 -15 3 -31 21 -31 9 0 14 7 12 17 -4 20 -24 28 -33 14z"/>
<path d="M3443 3903 c-18 -7 -16 -52 3 -60 23 -9 51 23 38 44 -12 19 -23 24
-41 16z"/>
<path d="M2136 3744 c-8 -21 1 -34 25 -34 14 0 19 7 19 25 0 29 -34 36 -44 9z"/>
<path d="M2753 3744 c-3 -8 2 -23 11 -32 15 -15 17 -15 32 0 21 21 11 48 -16
48 -11 0 -23 -7 -27 -16z"/>
<path d="M3160 3745 c0 -8 -13 -24 -30 -36 l-29 -22 36 -37 37 -37 33 34 34
33 -32 40 c-34 42 -49 50 -49 25z"/>
<path d="M1270 3574 c-6 -14 -10 -29 -10 -34 0 -26 -27 -60 -62 -80 -43 -24
-42 -30 13 -59 26 -14 39 -31 53 -70 10 -28 21 -51 25 -51 3 0 15 24 26 53 16
41 28 56 58 70 34 17 51 47 26 47 -30 0 -69 44 -85 95 -20 61 -30 68 -44 29z"/>
<path d="M3640 3547 c0 -8 -11 -24 -25 -37 -28 -26 -32 -40 -12 -40 8 0 20
-11 27 -25 7 -14 16 -25 19 -25 3 0 19 16 34 35 l28 35 -28 35 c-30 37 -43 44
-43 22z"/>
<path d="M3414 3419 c-10 -17 13 -36 27 -22 12 12 4 33 -11 33 -5 0 -12 -5
-16 -11z"/>
<path d="M3808 3186 c-16 -23 -16 -25 2 -41 19 -17 21 -17 40 0 17 15 17 19 5
32 -8 8 -15 19 -15 24 0 16 -14 9 -32 -15z"/>
<path d="M3808 3101 c-15 -15 -15 -18 3 -40 11 -13 21 -22 22 -20 25 45 26 47
9 62 -15 13 -19 13 -34 -2z"/>
<path d="M1145 3070 c-3 -11 -15 -25 -26 -30 -19 -11 -27 -40 -9 -40 5 0 20
-12 34 -26 l24 -27 36 36 c34 34 35 37 17 49 -10 7 -23 23 -30 36 -15 27 -38
29 -46 2z"/>
<path d="M3831 2776 c-9 -11 -8 -18 4 -30 9 -9 20 -16 24 -16 16 0 31 28 25
44 -8 20 -37 21 -53 2z"/>
<path d="M996 2504 c-9 -22 17 -49 39 -40 10 3 15 15 13 28 -4 29 -42 37 -52
12z"/>
<path d="M3824 2379 c-3 -6 1 -18 10 -27 16 -16 18 -16 31 2 8 10 12 23 9 27
-7 13 -42 11 -50 -2z"/>
<path d="M1213 2082 l-21 -28 25 -24 25 -24 19 25 c24 31 24 31 -4 57 l-23 22
-21 -28z"/>
<path d="M3620 1998 c-12 -42 -61 -98 -86 -98 -26 0 -14 -20 19 -34 37 -15 61
-46 71 -94 9 -39 24 -41 31 -4 10 46 32 76 71 96 34 18 36 21 19 30 -40 23
-74 64 -85 104 -6 23 -15 42 -20 42 -5 0 -14 -19 -20 -42z"/>
<path d="M1215 1700 c-3 -5 -3 -19 0 -31 10 -31 60 -23 60 11 0 20 -6 26 -27
28 -14 2 -29 -2 -33 -8z"/>
<path d="M1503 1664 c-8 -21 13 -42 28 -27 13 13 5 43 -11 43 -6 0 -13 -7 -17
-16z"/>
<path d="M3422 1650 c-10 -17 -10 -23 2 -35 8 -8 17 -15 21 -15 4 0 13 7 21
15 12 12 12 18 2 35 -7 11 -17 20 -23 20 -6 0 -16 -9 -23 -20z"/>
<path d="M1090 655 c0 -9 9 -15 25 -15 16 0 25 6 25 15 0 9 -9 15 -25 15 -16
0 -25 -6 -25 -15z"/>
<path d="M3726 661 c-4 -5 -2 -12 3 -15 5 -4 12 -2 15 3 4 5 2 12 -3 15 -5 4
-12 2 -15 -3z"/>
<path d="M3766 662 c-3 -6 -1 -14 5 -17 15 -10 25 3 12 16 -7 7 -13 7 -17 1z"/>
<path d="M3806 661 c-4 -5 -2 -12 3 -15 5 -4 12 -2 15 3 4 5 2 12 -3 15 -5 4
-12 2 -15 -3z"/>
</g>
</svg>
