<?xml version="1.0" standalone="no"?>
<!DOCTYPE svg PUBLIC "-//W3C//DTD SVG 20010904//EN"
 "http://www.w3.org/TR/2001/REC-SVG-20010904/DTD/svg10.dtd">
<svg version="1.0" xmlns="http://www.w3.org/2000/svg"
 width="500.000000pt" height="500.000000pt" viewBox="0 0 500.000000 500.000000"
 preserveAspectRatio="xMidYMid meet">

<g transform="translate(0.000000,500.000000) scale(0.100000,-0.100000)"
fill="#000000" stroke="none">
<path d="M930 4808 c-28 -30 -113 -205 -139 -286 -11 -34 -23 -89 -27 -122 -6
-50 -4 -61 10 -66 9 -4 19 -4 22 -1 3 3 14 42 25 88 21 86 59 189 92 249 10
19 32 59 49 87 16 29 27 57 23 63 -10 16 -33 11 -55 -12z"/>
<path d="M1129 4713 c-43 -67 -48 -78 -35 -91 19 -19 28 -12 81 66 49 75 56
102 25 102 -14 0 -35 -23 -71 -77z"/>
<path d="M1368 4593 c-78 -119 -137 -289 -153 -445 l-6 -58 -63 0 c-35 0 -78
3 -95 6 -30 6 -31 8 -31 58 0 28 8 94 16 146 29 169 29 180 5 180 -16 0 -23
-11 -35 -52 -17 -64 -33 -159 -41 -253 -4 -41 -12 -77 -21 -87 -17 -18 -11
-38 12 -38 9 0 14 -11 14 -32 0 -47 45 -218 81 -307 57 -144 146 -291 175
-291 29 0 26 31 -9 84 -85 129 -171 350 -191 494 l-6 42 67 -1 c38 -1 82 -4
98 -8 27 -5 30 -11 33 -46 5 -83 46 -213 103 -331 42 -86 71 -124 94 -124 27
0 26 21 -2 68 -48 78 -92 179 -112 255 -21 78 -31 166 -18 167 74 4 74 4 86
-62 18 -98 65 -213 89 -223 27 -10 38 12 23 48 -31 75 -52 141 -58 182 l-6 45
40 0 c38 0 39 -1 56 -55 35 -115 116 -255 148 -255 29 0 27 21 -11 84 -56 95
-105 212 -92 220 4 2 33 1 65 -3 57 -6 59 -7 71 -43 18 -51 65 -128 82 -135
26 -10 41 14 24 40 -20 32 -60 111 -60 120 0 9 82 9 95 -1 6 -4 18 -24 27 -45
10 -21 25 -40 34 -44 25 -9 34 17 18 48 -8 16 -14 30 -14 34 0 3 22 5 49 5 44
0 50 -3 60 -29 7 -15 23 -34 36 -41 22 -12 23 -17 29 -204 4 -105 11 -276 16
-381 6 -104 10 -220 10 -256 l0 -66 -42 -12 c-52 -16 -123 -64 -140 -94 -6
-12 -14 -40 -18 -62 l-5 -40 -96 3 c-52 2 -113 -1 -135 -7 -67 -18 -99 -51
-341 -351 -7 -8 -44 -55 -83 -105 -39 -49 -77 -98 -85 -107 -38 -46 -66 -98
-67 -124 -1 -16 2 -148 6 -294 l8 -265 -51 -34 c-51 -32 -104 -101 -117 -148
-3 -13 -12 -23 -19 -23 -23 0 -64 -48 -75 -90 -10 -36 -8 -47 9 -84 21 -43 70
-76 112 -76 60 0 129 63 129 118 0 27 -27 82 -47 97 -20 15 -8 57 27 90 l27
26 5 -58 c3 -32 6 -123 7 -203 2 -178 11 -214 54 -236 29 -16 70 -16 447 -10
228 5 429 9 445 9 27 2 30 -1 26 -23 -3 -27 -29 -69 -70 -113 -25 -27 -115
-77 -139 -77 -18 0 -40 -40 -34 -63 2 -12 17 -50 33 -84 l28 -63 -432 -1
c-445 0 -528 -3 -559 -20 -28 -15 -21 -36 15 -42 17 -3 376 -4 797 -3 421 2
959 4 1197 4 387 2 433 4 448 19 36 36 3 38 -682 41 l-663 3 0 28 c0 16 -6 43
-14 62 l-14 32 48 36 c82 62 127 128 150 219 l14 52 90 0 c50 1 114 3 141 5
28 2 143 7 257 10 l208 5 42 -26 c64 -40 130 -113 182 -203 59 -99 69 -108
101 -91 40 21 155 140 161 166 5 18 1 29 -12 39 -29 22 -50 18 -106 -19 l-51
-35 -45 62 c-25 34 -64 78 -88 97 -24 19 -43 37 -43 40 -1 3 68 40 152 83 331
168 334 171 324 292 -7 84 -6 85 90 85 33 0 83 11 132 29 60 22 90 28 124 24
37 -4 54 -1 89 20 61 35 80 60 85 109 5 50 -18 95 -61 118 -26 13 -31 13 -66
-6 -38 -21 -38 -21 -58 -2 -39 40 -90 -6 -96 -87 -2 -25 -9 -51 -15 -59 -17
-21 -118 -49 -180 -50 l-56 -1 -17 155 c-9 85 -21 207 -28 270 -6 63 -15 149
-20 190 -15 119 -28 237 -41 350 -7 61 -20 123 -31 148 -34 72 -30 71 -558
100 -127 7 -135 8 -138 28 -2 12 -16 34 -33 49 -16 16 -29 38 -29 48 0 28 -45
84 -82 103 -62 32 -134 47 -230 48 -114 1 -103 -14 -113 161 -5 107 -13 224
-35 547 l-11 157 28 36 c25 32 33 35 68 33 30 -2 39 -7 36 -18 -2 -8 -6 -27
-9 -42 -6 -41 24 -36 49 7 16 27 27 35 50 35 16 0 29 -3 29 -7 0 -3 -16 -40
-37 -81 -28 -58 -33 -76 -23 -82 7 -4 18 -6 24 -4 24 9 61 82 83 163 2 9 12
12 35 7 17 -3 34 -8 36 -11 9 -9 -21 -106 -54 -171 -19 -37 -34 -73 -34 -80 0
-17 15 -25 34 -18 23 9 87 143 100 211 7 32 15 57 19 56 4 -2 30 -3 57 -3 50
0 50 0 50 -33 0 -55 -28 -147 -72 -234 -44 -89 -47 -128 -5 -100 45 30 109
185 132 320 6 35 8 37 43 37 65 0 68 -7 48 -102 -22 -101 -58 -195 -103 -266
-37 -59 -41 -82 -14 -82 55 0 158 224 176 384 l7 58 59 -4 c32 -2 62 -7 66
-11 9 -9 -10 -103 -38 -188 -24 -73 -75 -178 -126 -257 -19 -30 -32 -61 -29
-68 11 -28 36 -13 75 45 82 120 154 298 168 410 4 37 11 52 24 56 24 8 25 45
1 52 -15 3 -20 23 -29 111 -15 134 -31 187 -58 187 -23 0 -23 -1 -1 -142 24
-154 27 -144 -46 -141 l-63 3 -11 85 c-21 165 -67 295 -102 288 -22 -5 -20
-28 8 -103 21 -58 50 -197 50 -242 0 -20 -5 -23 -37 -23 -21 0 -44 4 -51 8 -7
5 -17 40 -23 78 -13 86 -45 188 -65 205 -11 9 -18 9 -26 1 -9 -9 -7 -28 10
-79 26 -82 43 -185 33 -196 -5 -4 -31 -5 -60 -1 -49 6 -51 8 -52 38 -1 63 -25
159 -42 170 -28 18 -40 -4 -28 -55 5 -24 12 -65 15 -91 l6 -48 -40 0 c-38 0
-39 1 -45 45 -9 55 -26 81 -50 72 -11 -5 -15 -13 -10 -25 4 -9 9 -32 12 -49 5
-31 4 -33 -23 -33 -21 0 -32 7 -39 22 -13 31 -45 36 -45 9 0 -18 -6 -21 -47
-21 -43 0 -50 3 -65 30 -9 17 -24 30 -33 30 -10 0 -15 10 -15 30 0 17 4 30 8
30 12 0 32 46 32 74 0 29 -39 66 -71 66 -31 0 -69 -38 -69 -70 0 -13 11 -38
25 -56 27 -35 33 -74 12 -74 -8 0 -22 -9 -32 -20 -19 -20 -66 -26 -113 -13
-21 5 -23 10 -17 37 19 90 19 96 -3 96 -26 0 -40 -25 -48 -84 -6 -41 -9 -44
-33 -41 -14 2 -38 4 -53 4 -28 1 -28 1 -28 74 0 39 7 94 15 122 17 56 14 75
-13 75 -30 0 -51 -66 -61 -190 l-6 -74 -55 3 c-30 1 -58 5 -62 7 -21 13 1 203
33 292 30 83 34 108 16 115 -45 17 -107 -172 -107 -329 l0 -74 -41 0 -42 0 7
72 c4 40 13 101 21 136 8 35 13 68 9 73 -5 8 -44 13 -44 5 0 -2 -9 -39 -20
-82 -11 -44 -20 -105 -20 -136 l0 -58 -46 0 -47 0 7 77 c12 126 55 258 124
376 18 32 32 65 30 75 -6 31 -34 24 -60 -15z m760 -354 c-2 -6 -8 -10 -13 -10
-5 0 -11 4 -13 10 -2 6 4 11 13 11 9 0 15 -5 13 -11z m10 -237 c-4 -35 -25
-39 -40 -7 -10 21 -9 28 2 35 22 14 41 0 38 -28z m231 -1033 c80 -13 152 -43
170 -71 13 -21 13 -21 -45 -12 -33 5 -132 9 -222 9 -89 0 -162 0 -162 1 0 1 5
15 11 32 9 27 16 32 57 37 26 4 52 8 57 10 20 7 71 5 134 -6z m-149 -138 c0
-11 3 -26 6 -35 5 -13 -2 -16 -45 -16 -50 0 -51 1 -51 29 0 31 11 38 63 40 20
1 27 -4 27 -18z m148 -23 l3 -38 -51 0 c-52 0 -53 1 -64 53 l-7 28 58 -3 58
-3 3 -37z m114 18 c4 -6 8 -23 8 -38 0 -25 -4 -28 -34 -28 -40 0 -42 2 -51 53
l-7 38 38 -7 c22 -4 42 -12 46 -18z m75 -11 c63 -26 71 -55 15 -55 -34 0 -38
3 -48 35 -13 40 -14 40 33 20z m-492 -85 c154 -6 406 -17 560 -25 154 -7 348
-16 430 -20 188 -8 216 -12 247 -39 26 -22 30 -38 59 -291 5 -49 12 -105 14
-122 l4 -33 -60 0 c-47 0 -61 -4 -67 -17 -13 -33 -125 -218 -146 -240 -23 -27
-41 -29 -50 -7 -11 28 -7 38 59 149 38 63 61 113 56 118 -9 9 -412 26 -616 26
l-110 0 -80 -126 c-118 -186 -133 -205 -157 -201 -12 2 -26 11 -32 20 -13 21
0 48 92 191 35 54 66 105 69 113 5 13 -32 15 -313 11 -176 -2 -331 -7 -345
-11 l-26 -8 -7 126 c-3 69 -9 181 -12 249 -7 122 -7 122 17 134 31 15 66 21
104 17 17 -2 156 -8 310 -14z m-475 -328 c6 -122 7 -229 3 -236 -4 -8 -38 -47
-74 -87 -209 -234 -251 -283 -261 -304 -14 -31 -1 -114 19 -122 16 -6 24 1
236 229 50 54 92 97 93 95 7 -7 14 -122 24 -377 6 -151 13 -294 16 -318 5 -40
3 -46 -29 -75 -18 -18 -69 -51 -113 -74 -108 -58 -201 -110 -251 -139 -48 -28
-68 -30 -77 -9 -12 32 -20 462 -8 469 17 10 138 20 157 12 15 -5 14 -10 -9
-36 -34 -41 -63 -151 -38 -150 11 1 82 69 82 80 0 6 6 9 13 7 6 -1 11 4 10 10
-2 7 0 12 5 12 4 -1 17 -1 29 0 49 2 74 154 33 202 l-20 24 -20 -24 c-19 -22
-27 -23 -135 -25 l-115 -1 -1 65 c0 36 -2 76 -3 90 -2 14 -7 109 -11 212 l-7
188 63 81 c68 87 77 88 78 7 1 -21 5 -38 10 -38 16 0 22 33 15 91 -3 31 -2 63
2 71 6 8 11 -11 14 -55 7 -100 24 -87 30 23 l5 95 110 135 c79 96 111 129 112
115 1 -11 7 -120 13 -243z m1105 -354 c3 -13 9 -45 15 -71 25 -119 106 -221
215 -273 59 -29 80 -34 140 -34 111 0 200 54 249 148 15 30 35 117 39 172 2
28 7 36 25 38 12 2 22 1 22 -2 0 -3 7 -72 15 -153 58 -577 57 -564 40 -589
-11 -17 -25 -24 -48 -25 -17 0 -52 -2 -77 -4 -25 -1 -236 -6 -470 -9 -234 -3
-574 -9 -756 -12 -182 -4 -343 -4 -357 0 -17 4 -29 16 -36 38 -10 30 -24 254
-38 604 l-6 141 43 7 c23 4 44 5 46 3 3 -2 11 -31 19 -63 38 -148 122 -238
264 -283 44 -14 158 -14 202 0 148 47 230 143 259 304 7 39 15 73 17 78 2 4
42 7 88 7 80 0 85 -1 90 -22z m1165 -427 c0 -5 9 -13 20 -16 11 -3 20 -15 20
-25 0 -24 -44 -37 -65 -20 -18 15 -20 56 -2 63 19 8 27 8 27 -2z m-2868 -381
c5 -35 -6 -47 -27 -30 -22 18 -19 60 4 60 13 0 20 -9 23 -30z"/>
<path d="M1712 2659 c1 -13 8 -23 13 -21 15 3 12 35 -3 40 -9 3 -13 -3 -10
-19z"/>
<path d="M3250 2565 c0 -33 4 -45 14 -45 22 0 26 13 15 53 -14 51 -29 46 -29
-8z"/>
<path d="M3187 2594 c-8 -8 1 -24 14 -24 5 0 9 7 9 15 0 15 -12 20 -23 9z"/>
<path d="M2238 2433 c-21 -5 -24 -33 -6 -51 19 -19 152 -16 168 4 11 12 11 17
-1 28 -14 14 -131 28 -161 19z"/>
<path d="M2754 2385 c-12 -31 15 -45 88 -45 54 0 70 3 75 16 10 28 -25 44 -94
44 -48 0 -65 -4 -69 -15z"/>
<path d="M1531 2572 c-14 -26 -7 -42 10 -25 6 6 9 19 7 29 -3 17 -5 17 -17 -4z"/>
<path d="M1570 1269 c-10 -18 -9 -20 7 -17 10 2 19 11 21 21 5 24 -15 21 -28
-4z"/>
<path d="M1576 1224 c-4 -9 -4 -19 -1 -22 6 -6 35 18 35 29 0 16 -28 10 -34
-7z"/>
<path d="M2658 1812 c-16 -23 -49 -42 -69 -39 -9 2 -28 12 -43 24 -30 24 -56
21 -56 -7 0 -22 52 -68 86 -76 57 -14 152 55 128 93 -15 25 -30 26 -46 5z"/>
<path d="M3228 4558 c-3 -7 15 -55 39 -106 33 -70 48 -92 61 -90 9 2 18 11 20
20 3 18 -52 142 -76 171 -18 20 -38 22 -44 5z"/>
<path d="M3040 4485 c0 -8 17 -50 38 -93 21 -42 49 -104 62 -137 13 -33 27
-65 32 -72 12 -15 38 -6 38 14 0 27 -31 108 -78 203 -36 73 -52 96 -69 98 -16
2 -23 -2 -23 -13z"/>
<path d="M3382 4177 c-10 -12 -5 -70 14 -174 5 -25 38 -32 47 -10 6 16 -11
134 -25 170 -12 30 -20 33 -36 14z"/>
<path d="M3207 4033 c16 -158 2 -297 -42 -422 -21 -60 -19 -73 7 -69 16 2 28
18 45 61 50 124 66 312 39 442 -10 50 -16 61 -35 63 -22 3 -22 2 -14 -75z"/>
<path d="M749 4008 c-1 -7 -1 -33 0 -58 7 -166 133 -494 179 -466 18 11 15 29
-23 108 -40 86 -95 249 -95 287 -1 55 -26 136 -43 139 -9 2 -18 -2 -18 -10z"/>
<path d="M3083 3408 c-6 -7 -28 -44 -48 -83 -21 -38 -41 -72 -45 -75 -20 -16
-51 -73 -46 -85 15 -41 65 6 130 123 38 67 51 121 30 129 -6 2 -16 -2 -21 -9z"/>
<path d="M947 3386 c-7 -17 81 -147 115 -170 21 -15 48 -7 48 14 0 16 -131
170 -144 170 -8 0 -16 -6 -19 -14z"/>
<path d="M866 688 c-9 -12 -16 -39 -16 -60 0 -37 1 -38 38 -38 20 0 43 4 50 9
24 15 -12 111 -43 111 -7 0 -21 -10 -29 -22z"/>
<path d="M3983 692 c-7 -4 -19 -25 -28 -45 -18 -43 -10 -51 47 -45 32 3 33 4
31 42 -3 47 -22 66 -50 48z"/>
<path d="M1223 664 c-3 -9 0 -20 8 -25 37 -23 104 2 77 29 -18 18 -77 15 -85
-4z"/>
<path d="M2610 635 c0 -10 7 -15 18 -13 21 4 19 22 -2 26 -10 2 -16 -3 -16
-13z"/>
<path d="M3652 638 c7 -20 48 -23 48 -4 0 11 -9 16 -26 16 -16 0 -24 -5 -22
-12z"/>
<path d="M2305 630 c-9 -15 3 -30 25 -30 18 0 34 23 23 34 -10 10 -41 7 -48
-4z"/>
<path d="M4170 596 c0 -11 9 -16 26 -16 31 0 28 23 -4 28 -15 2 -22 -2 -22
-12z"/>
<path d="M670 570 c0 -5 9 -10 20 -10 11 0 20 5 20 10 0 6 -9 10 -20 10 -11 0
-20 -4 -20 -10z"/>
<path d="M647 483 c-10 -3 -17 -12 -15 -21 4 -24 89 -29 107 -8 11 13 9 17
-14 26 -27 10 -47 11 -78 3z"/>
<path d="M463 464 c-9 -24 11 -36 57 -36 50 1 76 18 59 38 -17 20 -108 19
-116 -2z"/>
<path d="M3863 473 c-18 -7 -16 -40 3 -47 29 -11 110 -6 129 8 16 12 17 16 6
30 -10 11 -29 16 -70 15 -31 0 -62 -3 -68 -6z"/>
<path d="M4084 465 c-9 -23 5 -35 39 -35 41 0 62 14 54 34 -8 21 -85 22 -93 1z"/>
</g>
</svg>
