<?xml version="1.0" standalone="no"?>
<!DOCTYPE svg PUBLIC "-//W3C//DTD SVG 20010904//EN"
 "http://www.w3.org/TR/2001/REC-SVG-20010904/DTD/svg10.dtd">
<svg version="1.0" xmlns="http://www.w3.org/2000/svg"
 width="500.000000pt" height="500.000000pt" viewBox="0 0 500.000000 500.000000"
 preserveAspectRatio="xMidYMid meet">

<g transform="translate(0.000000,500.000000) scale(0.100000,-0.100000)"
fill="#000000" stroke="none">
<path d="M297 4833 c-12 -11 -8 -23 8 -23 8 0 15 7 15 15 0 16 -12 20 -23 8z"/>
<path d="M3670 4761 c0 -53 -10 -67 -55 -74 l-30 -4 32 -2 c38 -1 52 -22 54
-78 2 -36 2 -36 8 11 5 30 14 52 25 58 16 9 16 11 1 22 -12 9 -17 28 -18 64
-2 66 -17 69 -17 3z"/>
<path d="M3731 4622 c-5 -10 -6 -23 -2 -28 5 -5 11 -18 14 -29 4 -16 5 -14 6
7 0 14 5 28 10 30 5 2 4 11 -4 21 -13 18 -14 18 -24 -1z"/>
<path d="M1502 4604 c-7 -8 -8 -14 -2 -14 5 0 10 -8 10 -17 1 -17 1 -17 11 0
5 9 6 23 2 31 -7 12 -10 12 -21 0z"/>
<path d="M2244 4503 c3 -10 10 -83 16 -163 7 -80 12 -154 13 -165 1 -11 -6
-56 -16 -100 -11 -44 -21 -91 -24 -105 -5 -23 -6 -24 -13 -5 -5 13 -24 25 -56
33 -52 14 -48 15 -81 -35 -11 -16 -12 -14 -12 14 -1 17 8 69 19 115 22 93 24
108 11 108 -4 0 -14 -26 -20 -57 -18 -94 -31 -133 -43 -130 -10 2 -26 -42 -30
-79 -1 -8 -11 -8 -34 2 -19 8 -42 14 -53 14 -11 0 -22 4 -26 10 -5 9 26 157
66 308 21 79 25 132 9 132 -5 0 -10 -12 -10 -26 0 -14 -6 -49 -14 -77 -8 -29
-29 -114 -47 -190 l-34 -139 -30 5 c-16 3 -45 9 -62 13 -56 11 -37 -13 23 -31
67 -19 67 -4 6 -239 -45 -170 -49 -197 -31 -179 6 6 30 87 53 179 58 230 52
215 84 208 84 -18 91 -23 82 -54 -7 -24 -5 -30 6 -30 10 0 13 -6 10 -17 -15
-54 -66 -275 -66 -290 0 -2 4 -3 9 -3 8 0 30 83 63 235 17 82 24 99 38 103 9
3 11 -2 8 -16 -7 -25 18 -47 72 -63 35 -11 43 -10 50 1 18 29 17 2 -4 -101
-21 -103 -23 -108 -97 -210 -129 -178 -143 -199 -136 -206 8 -8 17 2 97 117
33 47 69 96 81 110 l21 25 -6 -35 c-3 -19 -15 -80 -26 -135 -22 -113 -24 -125
-11 -125 5 0 23 75 41 168 35 184 36 186 109 287 48 65 51 67 51 40 0 -17 -4
-46 -9 -65 -5 -19 -12 -66 -15 -105 -6 -62 -17 -138 -45 -308 -8 -46 2 -75 13
-40 9 28 36 209 65 435 6 42 13 89 16 103 3 14 7 36 10 49 5 23 8 24 34 15 35
-12 46 -53 31 -114 -5 -22 -9 -60 -9 -85 l1 -45 12 59 c11 57 12 58 29 39 23
-26 22 -55 -4 -71 -19 -12 -19 -15 -5 -25 15 -11 15 -17 1 -67 -9 -30 -29 -83
-46 -118 -16 -35 -29 -67 -29 -71 0 -5 -9 -28 -20 -52 -20 -45 -27 -91 -12
-74 5 6 28 58 52 118 23 59 46 109 50 112 14 9 19 -97 16 -355 -2 -220 -5
-262 -22 -307 -17 -48 -17 -57 -4 -120 19 -94 23 -280 21 -1116 l-1 -528 -22
-8 -23 -8 23 -7 c22 -7 22 -11 22 -163 l0 -155 -37 5 c-21 2 -83 19 -138 36
-55 17 -109 33 -120 36 -34 8 -167 56 -197 71 -15 8 -28 21 -28 29 0 19 16 19
24 0 3 -8 11 -15 17 -15 6 0 -1 16 -15 35 -25 33 -26 37 -12 57 31 44 11 209
-26 216 -9 2 -31 -13 -49 -33 -18 -19 -42 -35 -52 -35 -10 0 -26 -4 -36 -10
-17 -8 -18 -5 -13 35 6 58 -14 60 -23 3 -4 -24 -11 -60 -16 -80 -9 -34 -11
-36 -37 -29 -15 5 -51 20 -81 35 -29 15 -55 25 -57 23 -3 -2 32 -22 76 -43 44
-21 80 -44 80 -50 0 -13 -22 -24 -46 -24 -18 0 -280 125 -286 136 -3 5 -3 28
0 51 l4 43 42 -34 c57 -45 116 -80 116 -67 0 5 -17 18 -37 28 -21 10 -60 39
-86 64 -44 42 -48 51 -44 82 2 19 1 41 -4 48 -6 9 -9 -2 -9 -31 0 -26 -5 -51
-12 -58 -18 -18 -80 -14 -108 7 -20 16 -22 22 -12 34 20 24 -4 144 -30 153
-16 5 -19 12 -14 38 5 29 5 30 -9 12 -8 -11 -15 -26 -15 -33 0 -7 -4 -13 -10
-13 -13 0 -33 -38 -39 -77 l-6 -33 -67 63 c-60 55 -68 67 -68 99 0 49 8 68 27
61 13 -5 13 -3 4 15 -15 28 -14 32 7 25 16 -6 16 -5 0 13 -20 23 -37 101 -19
90 15 -10 14 -1 -5 36 l-16 32 -13 -31 c-7 -17 -18 -34 -24 -37 -6 -4 -11 -12
-11 -18 0 -7 6 -6 15 2 13 11 15 9 15 -13 0 -13 -7 -30 -15 -37 -8 -7 -15 -17
-15 -22 0 -6 7 -5 15 2 23 19 18 -1 -7 -28 l-23 -24 23 6 c21 7 22 4 22 -40
l0 -47 -27 24 c-15 13 -50 45 -78 71 -61 56 -93 85 -131 118 -16 14 -75 66
-132 115 -57 50 -142 123 -190 164 -48 40 -114 96 -146 125 -32 28 -63 53 -67
54 -5 2 -9 30 -9 63 0 33 -4 59 -10 59 -5 0 -10 -4 -10 -10 0 -15 -56 -12 -95
4 -29 13 -35 13 -35 1 0 -13 17 -29 96 -90 21 -16 59 -48 84 -70 25 -22 92
-78 150 -125 58 -46 112 -92 120 -101 8 -9 65 -59 125 -110 61 -52 115 -99
120 -106 6 -7 28 -26 50 -43 31 -25 205 -186 321 -298 8 -7 14 -22 14 -33 0
-10 7 -19 15 -19 8 0 15 -4 15 -9 0 -23 -25 -22 -73 2 -29 14 -104 50 -168 81
-64 30 -120 59 -123 65 -4 6 -9 43 -12 83 -7 83 -17 108 -44 108 -20 0 -36
-17 -25 -28 3 -3 10 0 14 7 6 8 11 9 15 3 3 -6 -3 -13 -14 -17 -11 -3 -20 -13
-20 -21 0 -11 4 -12 19 -4 11 5 22 10 25 10 3 0 6 -30 6 -66 0 -36 -3 -64 -8
-62 -4 2 -27 13 -52 25 -25 11 -117 56 -205 98 -88 42 -188 90 -222 106 -55
26 -62 32 -65 61 -3 33 -24 38 -22 5 2 -24 -18 -21 -77 9 -28 14 -54 23 -57
20 -3 -3 -3 -8 -1 -10 4 -3 133 -65 294 -141 50 -23 142 -67 205 -98 63 -30
165 -78 225 -107 61 -29 153 -73 205 -97 166 -79 351 -168 490 -236 287 -139
575 -248 865 -328 162 -44 145 -34 145 -89 0 -45 3 -51 30 -65 16 -8 36 -15
45 -15 9 0 13 -4 10 -10 -3 -5 6 -15 20 -22 22 -10 28 -9 36 3 8 11 9 10 7 -6
-2 -15 4 -21 27 -25 17 -3 29 -11 28 -18 -2 -7 4 -9 15 -5 9 3 14 2 9 -2 -4
-5 5 -17 20 -27 38 -25 46 -23 27 7 -17 26 -10 32 16 15 13 -9 13 -10 0 -10
-13 0 -13 -1 0 -10 8 -5 15 -15 15 -22 0 -32 328 -68 404 -43 41 13 17 37 -56
55 -43 11 -43 11 -43 57 l0 45 58 -6 c106 -12 113 -15 106 -41 -7 -27 -3 -29
111 -45 139 -20 163 -22 135 -10 -20 9 -22 13 -10 21 18 11 119 9 126 -3 3 -5
15 -6 26 -2 15 4 18 3 13 -7 -7 -10 6 -11 61 -5 87 9 173 8 244 -4 91 -15 329
-30 829 -51 229 -9 274 -8 260 5 -3 3 -74 8 -159 11 -85 4 -161 8 -167 10 -9
3 -13 26 -13 70 0 64 -12 86 -24 43 -3 -13 -6 -42 -6 -65 l0 -43 -68 0 c-38 0
-124 3 -190 7 l-122 6 0 43 c0 47 -8 74 -21 74 -5 0 -9 -25 -9 -56 l0 -57
-117 7 c-106 6 -234 21 -237 28 -22 55 -53 99 -77 108 -16 7 -29 15 -29 19 0
3 -19 18 -43 33 -54 34 -143 53 -182 38 -27 -10 -28 -12 -22 -71 3 -33 12 -71
21 -84 l16 -25 -50 0 c-27 0 -50 4 -50 8 0 5 -11 14 -24 21 -18 10 -28 10 -46
1 -19 -10 -24 -9 -36 9 -26 36 -50 43 -89 26 -26 -10 -54 -13 -96 -8 -64 6
-70 11 -39 31 26 16 27 79 1 184 l-18 78 34 20 c19 11 36 20 38 20 7 0 295
178 450 278 59 38 369 266 385 282 9 9 321 232 380 270 30 21 87 54 125 75 39
21 81 46 95 55 36 24 211 108 305 146 l80 32 3 56 3 56 -46 0 c-43 0 -45 1
-44 28 0 26 1 26 9 5 7 -18 17 -23 45 -23 l35 0 0 115 c0 63 -2 115 -4 115 -3
0 -16 -4 -30 -10 -22 -8 -26 -7 -26 9 0 20 30 51 49 51 8 0 11 6 7 16 -3 9 -6
43 -6 75 0 38 -4 58 -10 54 -6 -3 -10 -35 -10 -69 0 -47 -4 -67 -17 -77 -23
-20 -48 -82 -34 -87 15 -5 14 -99 -1 -105 -10 -4 -10 -6 0 -6 19 -1 14 -19 -9
-31 -19 -10 -20 -9 -18 17 3 42 0 63 -10 63 -13 0 -24 -34 -12 -38 7 -2 11
-39 10 -95 l-1 -92 -15 50 c-20 71 -32 91 -59 104 -22 10 -24 17 -24 76 0 41
4 65 11 65 6 0 9 -7 5 -15 -3 -8 -2 -15 3 -15 15 0 20 39 7 50 -7 5 -16 7 -19
3 -4 -3 -7 3 -7 15 0 12 5 22 11 22 5 0 7 5 3 11 -3 6 -14 9 -24 6 -15 -4 -19
3 -22 40 -3 36 0 43 13 40 8 -2 24 2 34 9 18 14 18 15 -7 18 -7 0 -16 20 -20
43 -9 53 -31 96 -63 121 -21 17 -25 29 -27 78 l-2 59 -3 -52 c-4 -49 -6 -53
-29 -53 -13 0 -24 5 -24 10 0 6 6 10 13 10 9 0 9 2 -1 9 -19 11 -28 87 -13
105 9 11 9 15 0 18 -8 3 -10 11 -6 22 5 12 13 15 27 11 11 -3 28 -2 37 4 19
11 13 14 -28 11 -29 -1 -45 30 -25 50 8 8 8 13 -2 19 -7 4 -10 15 -6 24 3 10
1 17 -5 17 -6 0 -11 -12 -12 -27 -3 -81 -1 -78 -46 -80 -62 -2 -64 -5 -8 -12
49 -6 50 -7 52 -41 0 -19 -1 -54 -4 -76 -4 -35 -8 -41 -24 -37 -10 3 -19 0
-19 -6 0 -6 9 -11 20 -11 11 0 20 -4 20 -10 0 -5 -9 -10 -21 -10 -11 0 -34 -9
-51 -21 -16 -12 -32 -18 -36 -15 -3 4 0 11 8 16 12 7 12 12 2 22 -17 17 -15
36 6 41 16 4 16 5 0 6 -11 1 -18 9 -18 21 0 11 -4 20 -10 20 -5 0 -10 -9 -10
-20 0 -11 -6 -20 -12 -20 -8 0 -9 -3 -3 -8 6 -4 11 -19 12 -34 1 -22 -4 -28
-26 -31 -26 -4 -26 -4 3 -6 28 -1 28 -2 22 -43 -17 -114 -18 -118 -35 -118
-27 0 -30 -8 -18 -46 8 -26 16 -34 34 -34 22 0 23 -3 23 -74 0 -55 -4 -75 -14
-79 -8 -3 -16 -16 -18 -29 -2 -15 -11 -24 -26 -26 -26 -4 -20 -22 7 -22 23 0
51 -31 51 -58 0 -26 -22 -33 -94 -31 -31 1 -58 0 -61 -3 -3 -2 -6 -68 -7 -146
-2 -78 -4 -142 -5 -142 -1 0 -9 13 -18 30 -11 22 -15 62 -15 159 l0 130 43 4
42 4 -47 1 -48 2 0 -115 c0 -63 -4 -115 -8 -115 -4 0 -14 16 -21 35 -18 51
-59 95 -87 95 -27 0 -26 -2 -25 127 0 45 -4 85 -9 88 -6 4 -10 -34 -10 -101 0
-88 -3 -112 -19 -138 -11 -17 -29 -59 -40 -93 -12 -35 -32 -87 -45 -118 -22
-49 -23 -58 -11 -81 7 -15 14 -57 14 -95 l0 -67 -54 -38 c-60 -41 -66 -53 -35
-72 13 -8 20 -23 20 -42 0 -35 -14 -39 -31 -8 l-12 22 -9 -24 c-5 -14 -7 -34
-4 -46 4 -16 -5 -31 -43 -63 -27 -22 -52 -41 -55 -41 -3 0 -6 28 -6 63 0 74
-8 109 -24 104 -15 -5 -20 -48 -7 -57 20 -11 19 -117 -1 -136 -15 -16 -17 -14
-23 22 -10 59 -18 74 -23 42 -2 -16 -7 -28 -12 -28 -5 0 -6 -16 -3 -35 4 -26
1 -41 -12 -55 -27 -29 -35 -16 -35 57 0 37 -3 63 -7 60 -3 -4 -5 -38 -4 -76
l2 -69 -38 -26 c-21 -14 -41 -26 -45 -26 -4 0 -9 24 -11 53 l-3 52 -2 -56 c-1
-39 -7 -60 -19 -71 -38 -31 -384 -238 -398 -238 -17 0 2 23 43 53 65 47 94
107 95 202 1 45 -5 86 -17 116 l-17 45 118 242 c70 143 125 244 135 247 25 9
33 44 14 63 -24 24 -50 4 -57 -44 -3 -21 -56 -139 -118 -262 l-112 -222 -53
46 -53 47 75 221 c52 155 81 227 98 243 13 12 24 26 24 31 0 17 -37 42 -53 36
-20 -7 -32 -43 -20 -55 6 -6 -9 -63 -40 -152 -27 -78 -63 -181 -79 -229 l-31
-88 -41 8 c-191 34 -338 -40 -397 -201 -35 -96 -18 -196 45 -258 24 -25 28
-59 6 -59 -5 0 -18 -26 -30 -58 -16 -43 -21 -70 -17 -109 3 -31 2 -53 -4 -53
-6 0 -39 7 -74 16 l-65 16 0 164 c0 108 4 165 11 170 8 5 8 8 0 13 -11 7 -13
110 -11 905 0 241 1 249 18 233 39 -36 102 -7 102 46 0 30 -36 90 -79 132 -37
35 -41 44 -41 88 0 33 7 58 20 77 37 52 45 108 32 227 -20 176 -20 536 0 561
6 7 14 33 19 58 5 25 34 110 64 187 90 228 93 234 100 215 4 -10 5 -25 1 -33
-3 -10 1 -15 12 -15 40 -1 45 -14 33 -86 -7 -38 -17 -74 -23 -81 -5 -7 -20
-59 -33 -116 -13 -57 -33 -133 -44 -168 -31 -102 -33 -109 -23 -109 15 0 129
358 130 410 1 25 8 65 16 90 10 35 18 44 32 42 32 -6 74 -26 74 -37 0 -10 -81
-225 -154 -410 -38 -96 -41 -105 -28 -105 5 0 21 33 36 73 16 39 37 91 47 114
10 24 19 47 19 51 0 11 76 201 90 224 5 10 10 25 10 33 0 8 5 15 11 15 6 0 8
-7 5 -16 -4 -9 -11 -69 -16 -133 -5 -64 -19 -183 -30 -265 -11 -82 -20 -151
-20 -154 0 -2 7 1 15 8 8 7 15 18 15 25 0 6 12 40 26 76 31 74 117 316 145
406 l19 62 48 -14 c26 -8 48 -15 49 -15 1 0 0 -6 -3 -14 -3 -8 3 -19 15 -25
16 -9 22 -8 30 6 5 10 12 15 16 12 3 -4 -10 -42 -28 -85 -112 -259 -181 -433
-174 -440 7 -8 29 35 67 132 18 44 38 93 46 109 7 17 33 77 56 135 60 148 55
141 106 127 23 -6 42 -16 42 -22 0 -7 -26 -65 -59 -131 -69 -140 -161 -350
-161 -367 0 -22 27 18 55 83 66 154 176 382 182 376 6 -6 -66 -271 -106 -391
-35 -102 -39 -128 -17 -105 15 17 81 220 127 395 17 66 33 124 36 129 3 5 12
-5 19 -22 33 -79 145 -33 119 48 -10 31 -52 44 -82 25 -51 -34 -52 -18 -13
235 26 168 41 292 35 298 -10 11 -25 -13 -25 -41 0 -27 -31 -250 -56 -407 -11
-73 -41 -94 -99 -68 -18 8 -25 19 -25 38 0 14 20 129 45 253 25 125 45 232 45
237 0 20 -20 9 -24 -12 -3 -13 -24 -124 -47 -248 -39 -214 -58 -286 -59 -232
0 28 -27 40 -43 19 -10 -13 -19 -14 -61 -4 l-48 12 5 40 c3 22 15 121 26 220
12 99 25 211 30 249 6 39 7 74 5 78 -9 14 -24 -2 -24 -26 0 -12 -4 -26 -8 -32
-5 -5 -19 -36 -32 -69 -13 -33 -33 -82 -46 -110 -12 -27 -36 -84 -53 -125 -48
-116 -51 -116 -46 0 2 58 7 171 10 253 4 101 3 147 -4 147 -6 0 -11 -3 -11 -7
0 -5 -5 -115 -10 -247 -7 -166 -14 -244 -24 -257 -7 -10 -16 -16 -20 -12 -4 4
-11 1 -15 -6 -7 -10 -13 -11 -30 -2 -11 7 -21 16 -21 21 0 6 -7 10 -15 10 -19
0 -19 -7 5 180 23 177 23 183 11 176 -8 -5 -24 -115 -37 -264 -6 -63 -9 -72
-24 -67 -12 4 -19 -1 -23 -16 -3 -11 -10 -18 -15 -15 -6 4 -5 24 4 53 35 114
112 538 100 550 -10 10 -27 -10 -50 -60 -13 -29 -40 -86 -59 -127 -19 -41 -45
-100 -57 -130 -27 -63 -46 -89 -36 -48 3 15 11 73 17 130 5 57 14 132 19 168
5 35 7 67 4 69 -11 11 -22 -23 -27 -87 -19 -207 -41 -358 -55 -374 -16 -19
-48 -23 -71 -9 -15 10 -16 -3 35 396 7 61 14 121 14 133 0 45 -24 15 -66 -81
-23 -54 -44 -101 -48 -104 -3 -3 -6 -12 -6 -20 0 -7 -10 -35 -21 -61 -36 -79
-48 -108 -58 -133 -11 -29 -13 -23 -35 76 -15 69 -15 69 20 203 37 143 39 162
24 162 -5 0 -10 -7 -10 -15 0 -8 -12 -59 -27 -112 -21 -77 -28 -92 -33 -73 -7
26 -20 171 -20 228 0 22 -5 32 -16 32 -10 0 -14 -6 -10 -17z m266 -238 c-18
-206 -43 -358 -60 -375 -10 -10 -22 -26 -28 -35 -7 -13 -16 -16 -36 -11 -22 5
-27 12 -26 39 0 17 -1 44 -3 58 -1 20 152 422 160 415 1 0 -2 -42 -7 -91z
m267 -52 c-8 -97 -76 -426 -93 -455 -3 -4 -18 -2 -34 4 -24 8 -30 16 -30 40 0
17 -6 36 -14 42 -13 9 -4 35 53 166 82 189 115 260 120 260 2 0 1 -26 -2 -57z
m-465 -180 c13 -67 14 -82 2 -105 -20 -40 -17 -57 12 -69 42 -15 23 -20 -21
-5 -34 12 -41 19 -48 53 -8 38 18 203 32 203 4 0 14 -35 23 -77z m789 -39
c-17 -156 -42 -328 -50 -336 -3 -4 -25 -2 -48 3 -66 17 -64 43 19 239 38 91
72 173 75 183 12 40 14 3 4 -89z m-908 -21 c4 -2 7 -15 7 -29 0 -16 -6 -24
-17 -24 -27 1 -53 25 -53 49 0 18 4 20 28 15 15 -4 30 -9 35 -11z m-86 -45
c-3 -8 -6 -5 -6 6 -1 11 2 17 5 13 3 -3 4 -12 1 -19z m443 -83 c0 -9 -9 -11
-34 -5 -42 9 -56 18 -56 34 0 11 9 10 45 -2 25 -8 45 -20 45 -27z m16 -32 c-7
-8 -86 8 -86 17 0 5 14 5 31 0 36 -11 48 -6 50 18 1 10 4 7 6 -6 3 -13 2 -26
-1 -29z m-283 16 c12 -7 24 -13 26 -15 4 -3 -47 -83 -60 -94 -3 -3 -18 -23
-32 -45 -15 -22 -27 -35 -27 -30 1 26 31 153 42 173 13 25 20 27 51 11z m380
-108 c4 -4 -1 -30 -12 -57 -11 -27 -32 -82 -47 -122 -29 -77 -47 -102 -39 -55
2 15 9 66 15 113 14 113 26 142 54 134 11 -3 24 -9 29 -13z m-236 -13 c-3 -8
-6 -5 -6 6 -1 11 2 17 5 13 3 -3 4 -12 1 -19z m113 2 c12 -8 11 -10 -7 -10
-13 0 -23 5 -23 10 0 13 11 13 30 0z m310 -22 c0 -5 -9 -4 -20 2 -11 6 -20 12
-20 14 0 2 9 2 20 -1 11 -3 20 -9 20 -15z m-286 -16 c3 -5 1 -38 -4 -73 -5
-35 -13 -103 -19 -151 -10 -87 -46 -224 -63 -243 -6 -6 -7 32 -3 100 8 146 9
151 24 169 12 14 11 19 -4 36 -18 19 -17 22 7 68 14 26 28 59 32 75 6 27 20
35 30 19z m-50 -29 c-10 -41 -17 -49 -24 -27 -8 21 5 54 21 54 5 0 7 -12 3
-27z m293 21 c-3 -3 -12 -4 -19 -1 -8 3 -5 6 6 6 11 1 17 -2 13 -5z m211 -41
c12 -3 22 -13 22 -23 0 -22 -119 -372 -131 -384 -6 -6 -9 -4 -9 5 0 42 40 401
46 410 3 6 16 8 28 4 11 -4 31 -9 44 -12z m192 -13 c0 -5 -5 -10 -11 -10 -5 0
-7 5 -4 10 3 6 8 10 11 10 2 0 4 -4 4 -10z m296 -72 c4 -7 4 -10 -1 -6 -4 4
-16 3 -27 -3 -23 -13 -39 -2 -18 11 21 13 38 12 46 -2z m-1059 -80 c-3 -7 -5
-2 -5 12 0 14 2 19 5 13 2 -7 2 -19 0 -25z m49 -350 c-4 -40 -7 -105 -8 -144
0 -40 -4 -78 -9 -85 -13 -21 -11 232 2 270 17 49 22 37 15 -41z m10 -453 c6
-96 4 -115 -12 -150 l-19 -40 -3 165 c-3 177 5 248 19 175 4 -22 11 -89 15
-150z m-79 3 c-2 -18 -4 -6 -4 27 0 33 2 48 4 33 2 -15 2 -42 0 -60z m2276
-68 c40 -42 49 -67 20 -52 -23 12 -45 4 -36 -11 5 -9 3 -9 -8 0 -11 9 -18 8
-31 -1 -10 -7 -14 -17 -10 -22 4 -4 -2 -2 -12 6 -13 10 -17 10 -12 2 8 -13
-19 -13 -42 2 -8 5 -11 3 -10 -5 2 -9 -13 -14 -49 -17 l-52 -3 4 30 c5 40 20
66 52 89 63 44 132 37 186 -18z m24 -76 c-3 -3 -12 -4 -19 -1 -8 3 -5 6 6 6
11 1 17 -2 13 -5z m-170 -41 c-20 -2 -52 -2 -70 0 -17 2 0 4 38 4 39 0 53 -2
32 -4z m-97 -58 c0 -21 -30 -31 -41 -14 -14 23 -11 29 16 29 16 0 25 -6 25
-15z m200 0 c-7 -8 -10 -24 -7 -35 3 -11 1 -18 -4 -14 -10 6 -12 48 -2 57 13
14 25 7 13 -8z m60 -24 c0 -19 -19 -41 -34 -41 -6 0 -3 5 7 11 20 12 22 39 5
59 -11 12 -10 12 5 1 9 -7 17 -21 17 -30z m-220 -22 c0 -5 -4 -9 -10 -9 -5 0
-10 7 -10 16 0 8 5 12 10 9 6 -3 10 -10 10 -16z m45 1 c3 -5 1 -10 -4 -10 -6
0 -11 5 -11 10 0 6 2 10 4 10 3 0 8 -4 11 -10z m-45 -40 c0 -16 7 -20 33 -21
l32 -1 -30 -7 c-22 -5 -30 -12 -30 -29 0 -22 -6 -27 -28 -19 -9 3 -9 7 0 19
10 11 10 17 1 26 -9 9 -9 12 1 12 8 0 10 7 6 20 -4 11 -2 20 4 20 6 0 11 -9
11 -20z m267 -20 c1 -11 -2 -20 -8 -20 -5 0 -9 9 -9 20 0 11 4 20 8 20 4 0 8
-9 9 -20z m-2206 -112 c27 -65 -19 -103 -68 -56 -20 19 -23 31 -23 96 l0 75
39 -44 c22 -24 45 -56 52 -71z m2209 63 c0 -6 -4 -13 -10 -16 -5 -3 -10 1 -10
9 0 9 5 16 10 16 6 0 10 -4 10 -9z m190 -25 c0 -3 -4 -8 -10 -11 -5 -3 -10 -1
-10 4 0 6 5 11 10 11 6 0 10 -2 10 -4z m-340 -12 c-37 -8 -140 -9 -140 -2 0 4
35 7 78 7 42 -1 70 -3 62 -5z m150 -18 c0 -14 -4 -28 -10 -31 -6 -4 -10 7 -10
24 0 17 5 31 10 31 6 0 10 -11 10 -24z m-257 -23 c-13 -2 -33 -2 -45 0 -13 2
-3 4 22 4 25 0 35 -2 23 -4z m179 -4 c7 -5 -18 -6 -57 -2 -38 3 -72 8 -75 10
-9 8 119 0 132 -8z m-4589 -13 c20 -5 27 -12 27 -31 0 -33 -7 -31 -55 11 -27
24 -34 34 -20 31 11 -3 32 -8 48 -11z m4714 -76 c13 -27 7 -43 -8 -20 -8 13
-10 13 -19 0 -9 -13 -12 -12 -25 4 -24 31 -19 48 12 44 17 -2 32 -12 40 -28z
m96 -41 c6 -4 3 -16 -7 -30 -16 -23 -16 -23 -15 21 0 25 3 38 6 30 3 -8 10
-18 16 -21z m-453 -14 c0 -11 -12 -15 -49 -15 -55 0 -61 -7 -61 -75 0 -45 10
-55 56 -55 13 0 24 -4 24 -10 0 -6 -27 -10 -60 -10 l-60 0 0 51 c0 31 4 48 10
44 6 -3 10 1 10 9 0 9 -4 16 -10 16 -5 0 -10 14 -10 30 l0 30 75 0 c60 0 75
-3 75 -15z m17 -17 c-3 -7 -5 -2 -5 12 0 14 2 19 5 13 2 -7 2 -19 0 -25z m47
17 c3 -9 0 -15 -9 -15 -8 0 -15 7 -15 15 0 8 4 15 9 15 5 0 11 -7 15 -15z m-9
-35 c3 -5 1 -10 -4 -10 -6 0 -11 5 -11 10 0 6 2 10 4 10 3 0 8 -4 11 -10z
m-64 -20 c-2 -8 -4 -21 -4 -27 0 -7 -7 -13 -14 -13 -8 0 -11 5 -8 10 3 6 -3
10 -14 10 -24 0 -28 -18 -6 -26 23 -9 18 -26 -7 -22 -17 2 -24 11 -26 31 -6
46 3 56 45 54 28 -2 37 -6 34 -17z m33 5 c-4 -8 -8 -15 -10 -15 -2 0 -4 7 -4
15 0 8 4 15 10 15 5 0 7 -7 4 -15z m-344 -12 c-24 -4 -25 -7 -22 -58 2 -30 7
-55 10 -55 4 0 6 20 4 45 -2 25 0 45 6 45 5 0 16 -20 23 -45 10 -34 18 -45 34
-45 18 1 19 2 3 14 -10 7 -22 25 -28 40 -25 66 0 56 35 -15 l25 -49 -51 0
c-45 0 -50 -2 -44 -17 4 -10 13 -39 20 -66 l12 -47 -88 2 c-49 1 -89 5 -89 10
0 4 10 28 22 53 19 38 28 46 62 54 40 9 40 9 9 10 -25 1 -33 6 -33 20 0 32 21
81 36 81 8 0 11 6 8 15 -5 12 2 15 32 14 26 -1 31 -3 14 -6z m693 0 c-13 -2
-35 -2 -50 0 -16 2 -5 4 22 4 28 0 40 -2 28 -4z m-293 -23 c11 -7 2 -10 -33
-10 -30 0 -46 4 -42 10 8 13 55 13 75 0z m288 -7 c-27 -2 -69 -2 -95 0 -27 2
-5 3 47 3 52 0 74 -1 48 -3z m-438 -92 c0 -5 -10 -12 -22 -14 -20 -4 -19 -4 5
-6 18 -1 27 4 27 14 0 8 5 15 10 15 17 0 23 -29 10 -45 -9 -10 -9 -15 -1 -15
7 0 11 -21 11 -54 0 -45 -4 -58 -22 -70 -12 -9 -26 -16 -30 -16 -5 0 -8 27 -8
60 0 34 -4 60 -10 60 -6 0 -8 -15 -4 -39 7 -42 -7 -61 -31 -41 -11 9 -15 34
-15 86 l0 74 40 0 c22 0 40 -4 40 -9z m-182 -64 c27 -65 27 -67 -3 -67 -20 0
-26 7 -35 43 -6 23 -13 50 -16 60 -4 12 0 17 13 17 14 0 26 -15 41 -53z m36
36 c3 -10 6 -21 6 -25 0 -5 9 -17 20 -28 11 -11 20 -26 20 -32 0 -9 -4 -8 -10
2 -8 13 -10 12 -10 -2 0 -33 -21 -18 -40 28 -11 25 -20 52 -20 60 0 20 28 17
34 -3z m203 -60 c-3 -10 -5 -4 -5 12 0 17 2 24 5 18 2 -7 2 -21 0 -30z m-383
-211 c-6 -18 -17 -28 -34 -29 l-25 -3 23 12 c18 9 22 20 23 62 1 51 1 51 12
18 7 -22 7 -43 1 -60z m-47 6 c-2 -13 -4 -3 -4 22 0 25 2 35 4 23 2 -13 2 -33
0 -45z m-27 -77 c0 -10 -9 -21 -20 -24 -25 -6 -27 18 -2 32 23 14 22 14 22 -8z
m103 -18 c-7 -2 -21 -2 -30 0 -10 3 -4 5 12 5 17 0 24 -2 18 -5z m-163 -12 c0
-5 9 -11 20 -14 33 -9 22 -87 -12 -87 -4 0 -8 10 -8 23 0 12 -7 33 -16 45 -15
22 -12 42 7 42 5 0 9 -4 9 -9z m100 -37 c0 -8 -32 -33 -43 -34 -4 0 -3 9 3 20
10 18 40 29 40 14z m-2850 -64 c0 -5 -11 -10 -25 -10 -14 0 -25 5 -25 10 0 6
11 10 25 10 14 0 25 -4 25 -10z m-6 -28 c2 -4 -11 -6 -30 -4 -19 2 -34 6 -34
8 0 8 59 4 64 -4z m1884 -24 c58 -28 127 -106 141 -162 28 -113 5 -206 -68
-268 -54 -46 -115 -63 -226 -63 -72 0 -100 5 -140 23 -68 31 -111 76 -135 140
-18 49 -19 61 -9 111 21 103 68 168 154 214 78 41 201 43 283 5z m-1922 -145
c-11 -11 -19 6 -11 24 8 17 8 17 12 0 3 -10 2 -21 -1 -24z m90 11 c33 -19 51
-24 74 -19 30 7 30 7 30 -39 0 -31 -4 -46 -13 -46 -14 0 -158 130 -144 130 5
0 28 -12 53 -26z m-30 -25 l29 -31 -32 16 c-18 9 -33 23 -33 31 0 20 2 19 36
-16z m674 -84 c-7 -8 -17 -12 -22 -9 -5 3 -1 15 9 26 20 22 32 6 13 -17z m51
-12 c13 -33 7 -119 -10 -136 -8 -8 -11 0 -11 34 -1 24 -7 55 -14 69 -10 17
-11 30 -5 42 14 26 28 22 40 -9z m-87 -29 c11 -29 6 -37 -11 -21 -22 19 -55
25 -60 11 -4 -11 38 -34 62 -34 8 0 15 -5 15 -11 0 -6 -8 -8 -17 -5 -10 3 -35
8 -55 12 -43 7 -49 25 -16 48 29 21 74 21 82 0z m46 -42 c0 -15 -2 -15 -10 -2
-13 20 -13 33 0 25 6 -3 10 -14 10 -23z m-163 -64 c-3 -7 -5 -2 -5 12 0 14 2
19 5 13 2 -7 2 -19 0 -25z m1011 -103 c-3 -3 -9 2 -12 12 -6 14 -5 15 5 6 7
-7 10 -15 7 -18z m-28 -5 c0 -12 -9 -24 -22 -29 -31 -12 -33 -7 -13 23 21 31
35 33 35 6z m406 -136 c20 -94 16 -139 -11 -139 -16 0 -23 12 -37 68 -9 38
-19 71 -22 74 -11 12 -6 -53 9 -111 9 -33 13 -61 10 -64 -12 -13 -203 -12
-250 1 -46 12 -50 16 -54 48 -1 19 2 72 8 119 18 131 18 131 44 126 77 -14
157 -15 207 -2 l55 13 13 -29 c7 -17 20 -63 28 -104z m-368 76 c3 -9 -1 -11
-12 -7 -11 5 -21 -4 -36 -32 -10 -21 -17 -41 -14 -44 3 -3 1 -8 -5 -12 -7 -4
-11 8 -11 34 0 31 6 44 27 61 28 22 44 22 51 0z m-95 -47 c-8 -52 -13 -54 -13
-5 0 23 4 42 9 42 6 0 7 -17 4 -37z m-68 -105 c33 -6 69 -20 81 -30 11 -10 30
-18 42 -18 15 0 26 -9 32 -24 5 -13 18 -27 30 -31 21 -7 40 -41 40 -75 0 -16
-4 -17 -37 -8 -21 5 -48 12 -60 15 -15 3 -23 0 -26 -14 -3 -13 -5 -11 -6 8 -1
18 -9 30 -27 38 -15 6 -29 9 -32 6 -3 -2 -12 1 -20 8 -8 6 -38 21 -66 33 -51
20 -51 21 -54 68 -3 47 -2 48 20 42 13 -3 50 -11 83 -18z m1001 -23 c-19 -14
-36 -12 -36 6 0 5 12 9 28 9 26 -1 26 -1 8 -15z m-268 -97 c28 -28 1 -51 -60
-53 -35 0 -36 18 -2 44 30 24 45 26 62 9z m-448 -58 c0 -75 -23 -63 -44 23 -6
24 -4 27 19 27 23 0 25 -3 25 -50z m94 18 c8 -39 5 -42 -33 -33 -23 5 -31 12
-31 29 0 28 8 36 35 36 17 0 24 -8 29 -32z m60 23 c9 -14 -9 -94 -22 -99 -8
-2 -12 12 -12 52 0 42 4 56 14 56 8 0 17 -4 20 -9z m411 -21 c11 -17 -3 -28
-30 -22 -20 3 -23 7 -14 18 13 16 35 18 44 4z"/>
<path d="M2140 3960 c0 -5 5 -10 10 -10 6 0 10 5 10 10 0 6 -4 10 -10 10 -5 0
-10 -4 -10 -10z"/>
<path d="M2173 3957 c3 -9 1 -18 -6 -21 -7 -2 -4 -5 6 -5 19 -1 23 24 5 35 -7
5 -9 2 -5 -9z"/>
<path d="M4062 1780 c0 -14 2 -19 5 -12 2 6 2 18 0 25 -3 6 -5 1 -5 -13z"/>
<path d="M2667 1064 c-13 -13 -7 -55 8 -60 21 -9 47 15 43 40 -3 21 -37 34
-51 20z"/>
<path d="M2962 1048 c-18 -18 -14 -46 9 -58 27 -15 51 5 47 39 -3 29 -35 40
-56 19z"/>
<path d="M2805 960 c-3 -5 3 -10 14 -10 12 0 21 5 21 10 0 6 -6 10 -14 10 -8
0 -18 -4 -21 -10z"/>
<path d="M1770 4357 c0 -8 -8 -40 -19 -73 -39 -122 -170 -621 -185 -701 -7
-40 11 -45 20 -5 13 61 65 264 94 372 17 63 38 138 45 165 8 28 25 88 39 135
28 92 31 120 16 120 -5 0 -10 -6 -10 -13z"/>
<path d="M1556 4323 c-63 -222 -90 -328 -115 -454 -24 -121 -24 -129 -12 -129
8 0 15 31 41 170 10 54 73 296 99 380 13 43 14 50 2 50 -5 0 -12 -8 -15 -17z"/>
<path d="M4030 4299 c0 -5 5 -7 10 -4 6 3 10 8 10 11 0 2 -4 4 -10 4 -5 0 -10
-5 -10 -11z"/>
<path d="M3731 3950 c28 -90 49 -226 49 -315 -1 -209 -67 -398 -206 -582 -69
-92 -91 -129 -62 -105 9 7 41 45 71 85 153 199 217 376 217 597 0 102 -26 257
-56 336 -25 65 -35 54 -13 -16z"/>
<path d="M334 3765 c-9 -19 -9 -25 2 -29 18 -7 26 8 17 33 -8 19 -8 19 -19 -4z"/>
<path d="M3647 3648 c-5 -122 -10 -157 -36 -235 -16 -50 -46 -123 -66 -163
-20 -39 -34 -77 -32 -83 5 -15 88 149 115 230 26 74 41 165 43 253 2 102 0
140 -9 140 -5 0 -12 -64 -15 -142z"/>
<path d="M4127 3424 c-14 -14 -7 -35 11 -32 9 2 17 10 17 17 0 16 -18 25 -28
15z"/>
<path d="M685 3380 c3 -5 8 -10 11 -10 2 0 4 5 4 10 0 6 -5 10 -11 10 -5 0 -7
-4 -4 -10z"/>
<path d="M1240 3357 c0 -30 -34 -67 -63 -68 -16 -1 -13 -3 12 -10 23 -7 37
-19 44 -40 14 -35 24 -37 29 -6 2 13 16 28 34 38 l32 15 -29 11 c-28 11 -55
56 -43 74 3 5 0 9 -5 9 -6 0 -11 -10 -11 -23z"/>
<path d="M4468 3277 c-5 -10 -8 -41 -8 -67 0 -54 -6 -61 -65 -71 -35 -6 -36
-7 -9 -8 48 -2 77 -39 79 -106 3 -72 15 -84 15 -16 0 49 3 56 41 92 23 22 36
39 29 39 -6 0 -25 9 -40 20 -25 18 -29 28 -32 78 -2 37 -6 51 -10 39z m36
-136 c16 -17 16 -20 0 -35 -19 -19 -44 -6 -44 24 0 34 19 39 44 11z"/>
<path d="M424 2655 c-7 -18 3 -35 21 -35 15 0 28 27 19 41 -8 14 -34 11 -40
-6z"/>
<path d="M2175 2432 c-6 -31 -15 -47 -34 -57 -26 -14 -26 -14 -3 -15 16 0 27
-10 37 -32 14 -33 14 -33 15 -6 0 15 8 32 18 37 14 9 15 12 3 20 -8 5 -17 29
-21 53 l-7 43 -8 -43z"/>
<path d="M3980 2445 c0 -8 -5 -15 -10 -15 -6 0 -5 -6 2 -14 20 -22 52 -1 38
24 -13 24 -30 26 -30 5z"/>
<path d="M608 2434 c-5 -4 -9 -30 -9 -58 -2 -47 -2 -48 -8 -16 l-7 35 -8 -32
c-5 -22 -16 -35 -34 -41 l-27 -9 28 -6 c18 -5 27 -14 27 -27 0 -10 5 -22 10
-25 6 -4 10 5 10 19 0 37 18 32 23 -6 l4 -33 1 32 c1 22 9 36 24 44 22 12 22
12 3 19 -16 5 -21 19 -25 59 -3 29 -8 49 -12 45z"/>
<path d="M1595 2280 c-8 -14 3 -30 21 -30 8 0 14 9 14 20 0 21 -24 28 -35 10z"/>
<path d="M994 2079 c-8 -14 18 -31 30 -19 9 9 0 30 -14 30 -5 0 -12 -5 -16
-11z"/>
<path d="M2925 1950 c4 -6 11 -8 16 -5 14 9 11 15 -7 15 -8 0 -12 -5 -9 -10z"/>
<path d="M184 1814 c3 -9 6 -18 6 -20 0 -2 4 -4 9 -4 5 0 7 9 4 20 -3 11 -10
20 -15 20 -6 0 -7 -7 -4 -16z"/>
<path d="M3810 1814 c0 -9 -7 -22 -16 -29 -15 -10 -14 -14 9 -37 24 -24 27
-25 32 -8 3 10 13 21 22 24 14 6 14 9 -5 22 -12 8 -22 22 -22 30 0 8 -4 14
-10 14 -5 0 -10 -7 -10 -16z"/>
<path d="M1610 1787 c0 -25 -7 -43 -20 -54 -19 -17 -19 -17 0 -35 11 -11 20
-28 20 -39 0 -11 5 -17 10 -14 6 3 10 15 10 26 0 10 9 24 19 31 18 11 18 12 0
27 -10 9 -21 32 -24 51 -8 47 -15 51 -15 7z"/>
<path d="M4515 1530 c-3 -5 1 -10 9 -10 9 0 16 5 16 10 0 6 -4 10 -9 10 -6 0
-13 -4 -16 -10z"/>
<path d="M4980 1490 c-8 -5 -12 -11 -9 -14 2 -3 11 -1 19 4 8 5 12 11 9 14 -2
3 -11 1 -19 -4z"/>
<path d="M4634 1406 c-3 -14 -4 -60 -2 -102 4 -78 2 -79 -34 -14 -10 17 -22
28 -28 25 -7 -4 1 -27 20 -61 18 -30 29 -54 26 -54 -3 0 -20 9 -38 20 -62 37
-83 16 -23 -22 19 -13 35 -25 35 -28 0 -3 -18 -16 -40 -30 -38 -24 -59 -50
-40 -50 6 0 10 5 10 10 0 6 6 10 13 10 7 0 36 16 66 36 29 20 92 56 139 81 48
25 89 47 92 50 8 8 -41 -7 -74 -23 -43 -20 -47 -18 -30 21 16 40 18 55 5 55
-5 0 -12 -12 -17 -27 -7 -27 -8 -27 -14 12 -6 41 -11 37 -27 -20 -6 -24 -8
-15 -11 45 -3 80 -16 111 -28 66z"/>
<path d="M2150 1221 c0 -6 5 -13 10 -16 6 -3 10 1 10 9 0 9 -4 16 -10 16 -5 0
-10 -4 -10 -9z"/>
<path d="M340 1135 c0 -14 5 -25 10 -25 6 0 10 11 10 25 0 14 -4 25 -10 25 -5
0 -10 -11 -10 -25z"/>
<path d="M4293 1127 c5 -34 3 -38 -29 -53 -55 -26 -33 -26 30 0 47 18 54 24
37 29 -13 3 -21 13 -21 25 0 12 -5 24 -12 28 -8 5 -9 -3 -5 -29z"/>
<path d="M4023 1115 c0 -22 2 -30 4 -17 2 12 2 30 0 40 -3 9 -5 -1 -4 -23z"/>
<path d="M626 996 c3 -7 -8 -25 -25 -39 l-30 -25 27 -10 c50 -19 95 -32 109
-32 19 0 -13 57 -44 77 -13 9 -23 22 -23 29 0 8 -4 14 -10 14 -5 0 -7 -6 -4
-14z m29 -44 c6 -4 17 -16 25 -26 13 -18 13 -19 0 -11 -8 5 -26 11 -40 13 -30
4 -34 7 -25 21 7 13 26 14 40 3z"/>
<path d="M4084 955 c-10 -8 -14 -15 -8 -15 5 0 19 7 30 15 10 8 14 15 8 15 -5
0 -19 -7 -30 -15z"/>
<path d="M1001 897 c-7 -20 -22 -42 -34 -49 l-22 -12 24 -6 24 -5 -27 -25
c-33 -32 -33 -42 0 -30 14 6 27 10 30 10 4 0 0 -41 -5 -58 -1 -1 -17 5 -38 13
-20 8 -38 13 -40 11 -4 -4 92 -66 102 -66 3 0 33 -14 67 -30 l63 -30 -35 33
c-19 18 -43 36 -52 40 -13 4 -18 17 -18 42 l0 35 25 -16 c32 -21 32 -7 0 36
-26 35 -26 52 0 30 20 -17 19 -1 -2 22 -9 10 -24 35 -33 56 l-17 37 -12 -38z"/>
<path d="M3827 873 c-4 -18 -10 -46 -13 -63 -8 -42 -23 -47 -30 -10 -7 32 -24
52 -24 26 0 -8 4 -26 10 -40 10 -27 2 -34 -18 -14 -13 13 -27 5 -17 -11 3 -6
38 -11 80 -11 41 0 85 -4 99 -10 17 -6 26 -6 26 0 0 6 -7 10 -15 10 -8 0 -15
5 -15 10 0 6 -21 10 -46 10 -40 0 -45 2 -39 18 11 24 18 76 13 98 -3 13 -6 9
-11 -13z"/>
<path d="M1445 819 c4 -19 9 -47 9 -62 1 -24 10 -32 56 -55 75 -37 77 -37 63
-20 -7 8 -10 18 -6 21 3 4 -1 7 -10 7 -13 0 -15 7 -11 33 l6 32 -21 -25 -20
-25 6 39 c4 28 3 37 -5 32 -7 -4 -12 -14 -12 -22 0 -28 -17 -13 -29 26 -15 51
-38 67 -26 19z"/>
<path d="M4940 734 c-8 -12 -30 -29 -47 -38 -18 -9 -33 -19 -33 -22 0 -2 8 -1
18 4 9 5 41 15 69 22 29 6 51 16 48 21 -3 4 -12 6 -19 3 -9 -3 -16 2 -18 13
-3 17 -4 16 -18 -3z"/>
<path d="M3527 699 c-9 -10 -12 -19 -7 -19 12 0 80 27 80 32 0 2 -13 4 -28 5
-18 1 -35 -6 -45 -18z"/>
<path d="M1730 588 c0 -21 -4 -26 -16 -21 -15 5 -15 3 0 -26 9 -17 23 -31 32
-31 8 0 47 -16 87 -35 39 -20 65 -30 56 -23 -9 7 -32 26 -52 42 -25 20 -34 33
-27 40 17 17 11 27 -9 16 -18 -9 -19 -8 -10 22 5 17 6 34 3 37 -7 8 -24 -21
-24 -41 0 -10 -4 -18 -10 -18 -5 0 -10 8 -10 18 0 9 -5 24 -10 32 -8 12 -10 9
-10 -12z"/>
<path d="M4000 491 c0 -12 5 -21 10 -21 6 0 10 6 10 14 0 8 -4 18 -10 21 -5 3
-10 -3 -10 -14z"/>
</g>
</svg>
