<?xml version="1.0" standalone="no"?>
<!DOCTYPE svg PUBLIC "-//W3C//DTD SVG 20010904//EN"
 "http://www.w3.org/TR/2001/REC-SVG-20010904/DTD/svg10.dtd">
<svg version="1.0" xmlns="http://www.w3.org/2000/svg"
 width="500.000000pt" height="500.000000pt" viewBox="0 0 500.000000 500.000000"
 preserveAspectRatio="xMidYMid meet">

<g transform="translate(0.000000,500.000000) scale(0.100000,-0.100000)"
fill="#000000" stroke="none">
<path d="M2372 4278 c-37 -47 -94 -205 -117 -325 -18 -91 -20 -337 -4 -415 18
-92 62 -219 79 -228 9 -5 22 -5 30 0 11 7 8 26 -18 107 -78 241 -60 528 49
776 24 54 28 71 18 83 -14 17 -24 18 -37 2z"/>
<path d="M3743 4244 c-3 -9 3 -46 15 -83 40 -127 46 -181 46 -376 0 -211 -14
-287 -76 -426 -31 -71 -32 -99 0 -99 23 0 43 36 75 135 55 169 73 323 57 504
-18 220 -87 422 -117 345z"/>
<path d="M2516 4192 c-25 -48 -65 -214 -76 -314 -29 -271 19 -576 80 -503 8
10 6 39 -10 115 -36 181 -23 397 35 604 23 78 25 99 15 111 -18 22 -28 19 -44
-13z"/>
<path d="M3614 4187 c-2 -7 3 -40 11 -73 17 -59 36 -293 27 -327 -4 -16 -14
-18 -66 -16 -99 4 -92 -6 -100 137 -9 166 -16 196 -44 200 l-21 3 6 -165 6
-166 -71 0 -72 0 0 84 c0 98 -12 139 -38 134 -15 -3 -17 -15 -15 -88 l3 -85
-19 45 c-39 95 -111 135 -199 111 -60 -15 -99 -55 -123 -122 l-20 -54 5 70 c3
39 7 84 8 100 2 24 -1 31 -19 33 -26 4 -39 -30 -49 -130 l-6 -68 -69 0 -69 0
0 43 c0 23 11 88 25 145 26 103 26 122 0 122 -21 0 -42 -47 -62 -136 -22 -100
-25 -378 -5 -439 26 -78 35 -95 49 -95 23 0 26 26 10 97 -16 68 -20 110 -18
171 l1 32 69 0 68 0 6 -80 c7 -90 19 -120 47 -120 18 0 19 6 13 100 -7 109 0
122 37 69 12 -16 40 -42 62 -55 l40 -26 -6 -66 c-8 -90 -24 -422 -31 -667 -3
-110 -8 -222 -11 -250 -5 -50 -5 -50 -62 -77 -42 -20 -89 -59 -178 -147 -66
-67 -126 -121 -132 -121 -8 0 -12 18 -12 48 0 126 -54 342 -116 464 -48 96
-125 199 -210 285 -76 76 -89 94 -134 194 -60 134 -88 184 -130 227 -70 70
-139 18 -185 -142 -15 -52 -19 -57 -38 -51 -12 3 -76 9 -142 12 -114 5 -161 0
-307 -33 -23 -5 -28 -3 -28 12 0 34 -73 165 -106 191 -84 63 -157 -23 -359
-422 -174 -342 -245 -573 -287 -925 -18 -150 -18 -963 0 -1045 35 -163 89
-254 161 -276 35 -10 40 -16 56 -68 19 -61 57 -140 86 -182 10 -14 16 -29 12
-33 -12 -12 -101 -6 -106 7 -3 7 -6 5 -6 -5 -1 -26 -18 -22 -25 6 -7 27 -32
56 -48 56 -10 0 -7 -29 7 -62 6 -15 1 -18 -33 -18 -23 0 -44 -5 -47 -10 -3 -6
-3 -10 2 -10 4 0 127 -9 273 -20 299 -22 1006 -27 1250 -9 276 21 300 24 301
34 0 6 -11 11 -23 13 -13 1 -37 5 -54 7 l-31 5 41 83 c57 113 95 286 116 522
6 72 20 211 31 310 10 99 19 183 19 187 0 4 26 23 58 42 90 55 201 155 299
271 23 27 45 47 48 43 3 -3 3 -46 -1 -96 -7 -88 -7 -90 -34 -96 -39 -7 -71
-63 -77 -134 -7 -75 9 -130 55 -189 l37 -48 -6 -85 c-4 -47 -10 -188 -14 -315
-16 -488 -18 -520 -38 -520 -10 0 -27 17 -40 40 -12 22 -31 41 -41 43 -19 4
-19 -5 -1 -65 7 -21 4 -23 -28 -23 -46 0 -56 -16 -14 -23 65 -9 347 -8 347 2
0 5 -15 12 -32 16 -78 16 -72 -11 -64 259 12 459 19 626 26 626 4 0 17 -9 30
-20 13 -11 48 -27 77 -36 51 -15 53 -17 53 -50 0 -40 66 -249 85 -267 7 -8 18
-38 24 -68 14 -69 56 -121 115 -145 l44 -18 7 -76 c3 -41 13 -97 22 -123 8
-27 13 -50 12 -51 -2 -2 -18 -7 -35 -10 -27 -6 -34 -2 -63 34 -17 22 -38 40
-46 40 -20 0 -19 -9 6 -49 22 -36 18 -52 -9 -33 -32 23 -43 25 -55 9 -7 -8
-25 -18 -42 -22 -35 -10 -35 -10 120 -31 206 -28 1132 -27 1244 1 43 11 6 22
-113 34 -60 6 -116 11 -124 11 -12 0 -14 16 -9 100 3 55 8 104 11 109 3 4 35
11 71 13 92 8 151 41 191 107 37 60 62 177 94 446 69 565 68 642 -12 818 l-32
68 19 32 c25 42 25 122 1 162 -10 17 -33 42 -52 55 l-35 23 6 91 c3 50 12 222
20 381 9 160 20 344 25 410 5 66 12 180 16 253 4 72 11 132 16 132 23 0 58 51
58 83 0 74 -81 110 -132 59 -32 -31 -31 -97 1 -123 20 -17 22 -25 17 -63 -4
-25 -11 -116 -16 -203 -24 -422 -56 -931 -63 -992 -1 -8 -23 -19 -50 -26 -26
-6 -56 -20 -66 -29 -19 -17 -23 -17 -98 12 -133 51 -229 67 -403 66 -244 -1
-358 -40 -480 -165 -131 -133 -174 -256 -199 -564 -22 -271 -19 -260 -66 -229
-27 18 -50 70 -60 137 -10 62 -42 109 -83 122 l-33 9 6 166 c6 130 10 167 22
175 76 51 115 124 116 218 1 75 -28 147 -70 173 -15 10 -30 19 -31 20 -3 2 17
546 35 932 l5 123 37 18 c20 10 45 28 55 40 32 36 39 26 32 -46 -4 -38 -9 -78
-13 -90 -3 -16 0 -25 12 -30 28 -10 42 19 55 113 l12 84 64 0 64 0 0 -52 c0
-29 -9 -95 -20 -147 -21 -98 -20 -111 9 -111 12 0 22 15 34 53 17 57 36 152
39 207 3 35 4 35 53 38 27 2 65 0 84 -3 l34 -6 -7 -79 c-3 -44 -18 -116 -32
-162 -37 -122 -38 -129 -23 -138 53 -33 105 160 115 430 7 184 -2 288 -32 376
-20 60 -47 83 -60 51z m-507 -247 c42 -25 62 -57 69 -113 6 -43 4 -49 -29 -82
-31 -31 -41 -35 -85 -35 -61 0 -97 25 -113 80 -34 114 64 208 158 150z m1603
-86 c13 -32 -2 -54 -35 -54 -31 0 -49 24 -41 55 5 20 13 25 36 25 24 0 33 -6
40 -26z m-2731 -393 c35 -43 90 -152 122 -237 16 -43 38 -71 101 -132 100 -96
152 -165 210 -278 96 -186 121 -307 120 -570 0 -191 -6 -262 -42 -509 -34
-238 -40 -289 -60 -505 -28 -315 -69 -496 -136 -602 -38 -60 -64 -72 -157 -70
-117 3 -160 29 -211 129 l-16 32 42 23 c55 30 64 54 17 44 -161 -34 -216 -39
-394 -40 -146 0 -207 4 -264 17 -99 23 -105 15 -27 -37 19 -12 19 -13 -2 -57
-12 -25 -38 -60 -57 -79 -36 -35 -37 -35 -128 -35 -62 0 -102 5 -122 15 -39
20 -99 101 -129 175 l-24 60 33 33 c25 24 38 51 54 110 18 67 21 106 21 275 0
187 -14 347 -30 347 -15 0 -23 -91 -25 -305 -2 -199 -4 -225 -24 -277 -27 -69
-42 -83 -94 -83 -101 0 -157 159 -157 449 0 145 8 213 45 381 8 38 15 71 15
72 0 2 -6 3 -13 3 -7 0 -21 -15 -30 -32 -15 -32 -16 -30 -16 97 -2 320 54 637
161 908 54 139 241 517 301 609 41 63 76 92 99 83 17 -7 69 -113 90 -184 15
-52 26 -58 67 -37 88 46 309 61 451 32 41 -9 75 -15 76 -13 2 1 10 38 19 82
21 101 43 145 70 145 7 0 27 -18 44 -39z m1076 -149 c-3 -42 -9 -228 -16 -412
-9 -297 -16 -366 -34 -349 -2 3 2 147 10 320 20 439 26 530 36 524 4 -3 6 -40
4 -83z m-115 -789 c0 -3 -12 -36 -26 -72 -32 -79 -30 -154 5 -201 34 -47 30
-88 -15 -156 -47 -71 -240 -268 -308 -314 l-49 -33 7 55 c20 161 27 233 33
331 l6 108 41 28 c22 16 94 81 158 145 102 100 148 135 148 109z m157 -55 c9
-26 9 -54 3 -94 -13 -77 -32 -104 -73 -104 -52 0 -70 20 -77 86 -12 108 19
157 95 152 36 -3 41 -6 52 -40z m938 11 c300 -37 517 -153 602 -324 44 -86 73
-213 73 -313 0 -82 -32 -400 -50 -497 -20 -107 -1 154 30 414 9 79 6 101 -16
101 -15 0 -21 -30 -29 -160 -3 -52 -8 -118 -12 -146 l-5 -52 -36 24 c-66 45
-115 29 -204 -67 l-58 -62 -54 6 c-68 7 -90 21 -127 80 -16 26 -44 56 -61 67
-36 22 -107 27 -126 8 -12 -12 -75 -6 -357 30 -71 9 -170 17 -218 17 l-88 0 6
90 c14 213 39 373 72 458 30 76 98 171 154 213 94 72 163 99 289 114 96 11
116 11 215 -1z m509 -38 c6 -9 -44 -31 -70 -31 -22 0 -16 16 9 28 28 13 54 15
61 3z m87 -21 c19 -11 49 -59 49 -81 0 -6 -18 8 -40 32 -50 56 -53 72 -9 49z
m-51 -36 c32 -19 60 -63 60 -93 0 -19 -5 -17 -42 20 -24 22 -53 48 -65 56 -48
32 -5 47 47 17z m-1586 -457 c-4 -95 -10 -137 -18 -134 -11 4 -11 159 0 267 6
49 7 52 16 30 6 -15 7 -81 2 -163z m-55 -164 c59 -48 39 -224 -22 -200 -41 16
-65 168 -31 201 20 20 27 20 53 -1z m135 -15 c22 -31 20 -47 -6 -57 -31 -12
-48 4 -48 45 0 27 4 34 19 34 11 0 27 -10 35 -22z m48 -166 c17 -24 46 -53 64
-64 19 -11 34 -23 34 -26 0 -4 -8 -26 -17 -50 -17 -39 -20 -42 -48 -36 -77 16
-135 78 -135 146 0 31 6 44 30 65 17 13 31 32 31 41 1 10 4 6 6 -8 3 -13 19
-44 35 -68z m493 -43 c383 -44 368 -38 372 -141 1 -34 7 -66 13 -72 16 -16 12
-44 -7 -56 -16 -9 -15 -10 7 -8 22 3 26 -2 32 -42 21 -122 21 -127 3 -134 -10
-3 -20 -5 -22 -2 -2 2 -13 38 -25 80 -11 42 -23 75 -25 72 -10 -9 20 -176 33
-187 9 -7 21 -6 42 5 55 28 55 27 26 156 -5 24 -5 24 9 5 8 -11 19 -49 25 -84
10 -56 9 -67 -5 -83 -16 -18 -123 -82 -127 -76 -9 14 -38 166 -52 271 -10 70
-22 135 -29 144 -17 23 -227 42 -251 22 -17 -14 -15 -65 6 -181 24 -133 30
-164 36 -185 7 -25 -7 -31 -24 -10 -6 7 -20 51 -32 98 -12 47 -25 91 -29 98
-5 7 -43 17 -87 22 -44 5 -125 14 -182 20 -65 7 -105 16 -108 24 -5 13 49 191
72 237 22 42 26 42 329 7z m446 -20 c11 -5 35 -34 54 -64 44 -67 78 -92 142
-101 68 -9 116 9 164 60 21 22 39 44 39 47 0 3 15 14 34 24 32 17 36 17 59 2
28 -18 44 -80 32 -119 -13 -40 -85 -105 -146 -133 -54 -24 -70 -27 -147 -23
-57 2 -100 10 -123 21 -53 26 -98 94 -111 167 -6 38 -20 72 -34 90 -13 15 -24
31 -24 34 0 10 40 7 61 -5z m-1095 -201 c-3 -95 -9 -274 -12 -398 -4 -124 -8
-232 -10 -240 -1 -8 -3 -27 -3 -42 -1 -16 -6 -28 -13 -28 -8 0 -9 51 -4 198 3
108 9 292 12 407 5 231 10 275 26 275 7 0 9 -51 4 -172z m850 71 c55 -14 61
-39 7 -33 -21 3 -65 8 -97 12 -33 4 -61 13 -64 20 -5 16 91 17 154 1z m-3 -95
c26 -3 47 -11 47 -16 0 -5 -8 -7 -17 -4 -10 2 -48 7 -85 11 -38 4 -68 11 -68
17 0 6 15 7 38 4 20 -3 58 -8 85 -12z m-3 -81 c33 -3 60 -10 60 -15 0 -8 -26
-7 -132 8 -21 3 -38 10 -38 16 0 6 11 8 25 4 13 -3 52 -9 85 -13z m828 -8 c8
-8 -18 -176 -39 -246 -23 -82 -38 -97 -83 -81 -18 7 -38 12 -45 12 -6 0 -28 7
-48 15 -26 11 -33 19 -26 26 11 11 122 -17 134 -35 11 -14 29 3 29 28 0 21
-10 27 -75 47 -44 13 -75 28 -75 36 0 17 6 17 76 -7 66 -22 90 -24 98 -11 14
21 -9 38 -72 55 -84 22 -101 31 -85 47 11 11 29 7 127 -28 30 -11 41 -11 47
-2 12 19 0 36 -34 49 -18 6 -45 17 -61 24 l-29 12 49 37 c39 29 55 36 78 32
16 -3 32 -7 34 -10z m-378 -64 c30 -4 45 -11 45 -21 1 -8 7 -14 15 -12 71 16
67 18 63 -35 -2 -26 -5 -60 -6 -75 -1 -14 -5 -30 -9 -34 -13 -12 -9 -71 5 -82
7 -6 34 -16 60 -22 26 -7 47 -16 47 -20 0 -15 -63 -29 -135 -31 -387 -11 -763
15 -911 62 -38 12 -80 55 -89 92 -8 31 -12 30 87 18 40 -6 105 -13 143 -16
206 -17 450 -51 388 -54 -12 -1 -25 -6 -28 -11 -9 -14 66 -6 103 11 15 6 39
28 54 48 15 20 38 49 50 64 19 23 23 39 21 84 l-2 55 27 -8 c15 -4 47 -10 72
-13z m-432 -7 c28 -4 52 -10 52 -14 0 -10 -130 0 -150 11 -19 10 22 12 98 3z
m15 -89 c26 -4 47 -11 47 -16 0 -6 -14 -8 -32 -5 -18 3 -54 8 -80 11 -27 4
-48 10 -48 15 0 5 15 7 33 5 17 -3 53 -7 80 -10z m204 -311 c30 -4 32 -8 38
-52 3 -26 10 -64 14 -84 8 -35 7 -38 -13 -39 -46 -1 -381 2 -381 4 -1 1 1 43
3 93 l4 91 151 -4 c84 -2 166 -6 184 -9z m-2183 -69 c9 -19 28 -47 41 -63 21
-26 23 -31 9 -36 -9 -3 -150 -6 -315 -6 -233 0 -299 3 -298 13 0 6 13 32 28
57 l27 45 205 1 c112 1 218 6 234 12 47 16 52 14 69 -23z m1786 -38 c0 -49
-13 -67 -48 -67 -34 0 -60 17 -77 50 -28 54 -22 60 55 60 l70 0 0 -43z m638
-29 c-3 -50 -5 -53 -32 -56 -50 -6 -76 6 -92 43 -25 61 -22 65 57 65 l70 0 -3
-52z"/>
<path d="M2182 2508 c-28 -32 -36 -68 -22 -117 14 -53 62 -79 113 -61 52 18
67 38 67 91 0 68 -35 109 -94 109 -31 0 -48 -6 -64 -22z"/>
<path d="M1327 2386 c-31 -29 -42 -64 -34 -114 18 -111 171 -110 192 2 19 100
-88 176 -158 112z"/>
<path d="M1910 2340 c-25 -5 -91 -14 -147 -20 -107 -13 -127 -25 -95 -56 14
-14 32 -16 132 -11 165 9 235 35 217 81 -7 17 -33 19 -107 6z"/>
<path d="M3728 2299 c-121 -18 -212 -87 -270 -207 -29 -60 -32 -76 -32 -157 1
-129 38 -197 137 -243 79 -37 368 -83 532 -84 92 -1 109 2 157 25 101 50 147
141 148 291 0 75 -4 96 -26 140 -51 103 -132 164 -269 204 -135 39 -254 49
-377 31z m344 -81 c188 -49 281 -152 281 -308 0 -77 -23 -150 -61 -194 -33
-37 -112 -66 -184 -66 -85 0 -259 22 -403 51 -172 35 -235 105 -222 244 6 59
12 80 43 150 28 62 101 121 172 142 66 18 273 8 374 -19z"/>
<path d="M3608 2023 c-43 -49 -22 -122 35 -123 50 0 81 106 38 130 -29 15 -56
12 -73 -7z"/>
<path d="M4138 1965 c-73 -40 -27 -156 49 -122 46 20 49 102 4 126 -24 13 -20
13 -53 -4z"/>
<path d="M3780 1886 c0 -21 26 -32 90 -38 62 -6 80 -2 80 17 0 17 -16 22 -102
30 -58 6 -68 4 -68 -9z"/>
<path d="M3757 1474 c-8 -8 1 -24 14 -24 5 0 9 7 9 15 0 15 -12 20 -23 9z"/>
<path d="M3344 1460 c-25 -10 -50 -88 -33 -105 5 -5 51 -11 102 -12 51 0 80 1
65 4 -20 3 -28 10 -28 24 0 39 19 59 55 59 39 0 41 -6 21 -55 -10 -23 -11 -37
-5 -41 6 -3 14 -2 18 2 13 16 34 92 27 102 -3 5 -41 13 -83 17 -43 4 -87 9
-98 10 -11 2 -29 0 -41 -5z m86 -34 c0 -8 -4 -26 -10 -40 -8 -21 -16 -26 -44
-26 -43 0 -52 12 -36 51 11 25 18 29 51 29 27 0 39 -4 39 -14z"/>
<path d="M4872 599 c-45 -23 -99 -90 -87 -108 8 -14 55 -14 89 -1 33 12 80
102 63 119 -15 15 -15 15 -65 -10z"/>
<path d="M2567 594 c-4 -4 -7 -18 -7 -31 0 -20 5 -23 34 -23 19 0 38 5 42 12
5 7 2 9 -9 5 -11 -4 -17 1 -19 16 -3 22 -28 34 -41 21z"/>
<path d="M359 554 c-17 -21 3 -34 56 -34 22 0 46 4 54 9 26 17 -6 41 -54 41
-27 0 -47 -6 -56 -16z"/>
<path d="M520 550 c0 -5 4 -10 9 -10 6 0 13 5 16 10 3 6 -1 10 -9 10 -9 0 -16
-4 -16 -10z"/>
<path d="M4647 544 c-15 -15 -6 -24 24 -24 20 0 29 4 27 13 -5 14 -40 21 -51
11z"/>
<path d="M3110 532 c0 -11 48 -13 55 -2 4 6 -7 10 -24 10 -17 0 -31 -4 -31 -8z"/>
</g>
</svg>
