<?xml version="1.0" standalone="no"?>
<!DOCTYPE svg PUBLIC "-//W3C//DTD SVG 20010904//EN"
 "http://www.w3.org/TR/2001/REC-SVG-20010904/DTD/svg10.dtd">
<svg version="1.0" xmlns="http://www.w3.org/2000/svg"
 width="500.000000pt" height="500.000000pt" viewBox="0 0 500.000000 500.000000"
 preserveAspectRatio="xMidYMid meet">
<metadata>
Created by potrace 1.16, written by Peter Selinger 2001-2019
</metadata>
<g transform="translate(0.000000,500.000000) scale(0.100000,-0.100000)"
fill="#000000" stroke="none">
<path d="M2105 4464 c-123 -14 -274 -54 -370 -99 -67 -32 -95 -76 -79 -123 14
-40 48 -37 52 5 6 58 109 109 302 150 117 25 460 25 569 0 117 -26 211 -58
281 -95 83 -43 120 -78 120 -113 0 -15 5 -31 11 -34 14 -9 49 24 49 47 0 29
-26 74 -57 98 -61 47 -234 114 -383 146 -74 16 -403 28 -495 18z"/>
<path d="M2215 4310 c-206 -11 -334 -46 -391 -107 -38 -41 -27 -93 18 -93 12
0 18 8 18 23 0 29 22 50 75 71 88 37 177 50 345 50 231 1 323 -13 462 -69 73
-30 108 -59 108 -92 0 -30 35 -31 50 -2 27 49 -33 110 -151 153 -110 40 -164
51 -374 70 -16 1 -88 -1 -160 -4z"/>
<path d="M2151 4169 c-96 -11 -178 -48 -187 -84 -8 -32 14 -77 35 -73 9 2 17
16 19 31 4 34 32 49 136 72 142 32 431 4 536 -50 21 -11 30 -23 30 -39 0 -33
30 -43 51 -17 89 110 -266 201 -620 160z"/>
<path d="M2316 3934 c-14 -15 -26 -37 -26 -50 0 -82 91 -124 147 -68 22 22 25
32 20 67 -10 76 -87 104 -141 51z"/>
<path d="M1821 3816 c-48 -58 -93 -370 -69 -478 7 -33 4 -44 -27 -95 -19 -32
-35 -62 -35 -68 0 -5 -4 -16 -9 -24 -7 -11 -22 -4 -69 33 -67 51 -102 59 -102
24 0 -17 20 -38 74 -78 71 -53 74 -56 69 -90 -3 -19 -8 -38 -12 -42 -3 -3 -37
0 -75 7 -79 15 -98 11 -94 -19 3 -21 10 -24 128 -44 39 -6 45 -11 45 -31 0
-21 -7 -27 -49 -37 -27 -7 -56 -20 -65 -28 -14 -15 -14 -18 1 -32 14 -14 22
-15 45 -6 76 29 77 28 118 -55 28 -56 58 -98 111 -150 40 -40 78 -73 84 -73 5
0 10 -4 10 -9 0 -14 -92 13 -150 45 -67 37 -132 94 -172 153 -108 157 -194
195 -258 114 -32 -41 -24 -129 20 -211 112 -210 324 -347 571 -369 l66 -6 10
-96 c25 -228 150 -473 324 -635 123 -115 273 -188 431 -212 80 -12 94 -17 165
-67 90 -63 112 -71 159 -63 39 8 64 46 64 98 0 73 -82 190 -179 254 -23 14
-41 30 -41 34 0 3 16 12 35 17 34 11 41 8 128 -43 55 -33 130 -67 188 -85 92
-28 101 -34 189 -114 102 -93 136 -108 187 -81 99 51 51 210 -110 370 -76 75
-85 87 -60 82 80 -15 148 -16 258 -1 271 35 449 119 611 287 104 108 150 181
197 318 44 129 52 179 51 325 0 127 -2 148 -28 225 -61 187 -140 279 -262 310
-44 11 -57 11 -102 -4 -97 -33 -132 -79 -132 -174 0 -63 12 -92 101 -241 68
-116 88 -186 86 -311 -2 -97 -4 -110 -35 -169 -84 -165 -225 -272 -422 -322
-107 -27 -302 -26 -414 1 -147 37 -165 47 -247 140 -40 47 -76 87 -80 90 -20
18 -91 123 -108 160 l-20 44 78 81 c114 119 182 225 237 372 27 72 31 148 9
179 -42 60 -120 51 -184 -22 -21 -24 -42 -44 -47 -44 -5 0 -9 44 -9 97 l0 97
33 7 c45 9 60 24 45 47 -11 18 -30 20 -74 8 -24 -7 -28 -4 -41 30 -14 36 -14
42 8 104 40 114 56 289 35 385 -9 43 -44 44 -135 2 -87 -41 -147 -80 -213
-142 -52 -48 -58 -50 -100 -34 -15 6 -68 17 -118 24 -76 11 -109 11 -210 -1
-76 -10 -121 -11 -123 -5 -4 13 -69 99 -101 135 -33 36 -123 104 -155 116 -17
6 -28 5 -35 -4z m114 -128 c61 -56 132 -145 123 -152 -1 -2 -28 -16 -58 -31
-61 -31 -97 -57 -151 -111 l-36 -37 -7 36 c-14 75 29 357 54 357 5 0 39 -28
75 -62z m1001 -263 c-13 -50 -30 -104 -37 -122 -11 -28 -11 -37 4 -69 10 -20
14 -40 10 -44 -4 -4 -37 -18 -73 -30 -109 -38 -200 -82 -200 -97 0 -22 26 -26
59 -9 30 16 204 66 229 66 8 0 12 -22 12 -76 l0 -77 -60 7 c-33 4 -88 2 -122
-4 -35 -5 -78 -13 -95 -16 -22 -3 -33 -10 -33 -22 0 -15 15 -17 144 -17 79 0
147 -3 151 -7 8 -7 -22 -105 -33 -112 -4 -2 -41 6 -82 19 -150 47 -204 54
-214 30 -7 -18 3 -23 124 -60 46 -15 95 -32 109 -39 l24 -13 -39 -42 c-46 -52
-103 -91 -192 -136 -118 -58 -171 -69 -327 -69 -120 -1 -150 3 -210 23 -154
50 -269 139 -325 251 -34 66 -37 90 -15 90 21 0 30 27 15 44 -9 12 -7 17 10
26 27 14 12 36 -31 45 -24 5 -29 12 -29 34 0 25 3 28 25 23 31 -5 34 17 6 42
-15 13 -17 24 -11 44 54 186 223 344 426 397 131 34 293 28 419 -15 l53 -18
54 52 c75 73 161 130 248 163 l25 10 3 -91 c2 -72 -3 -110 -22 -181z m1387
-330 c42 -17 108 -89 136 -149 52 -112 65 -174 64 -321 -1 -215 -47 -355 -171
-521 -116 -155 -273 -256 -493 -316 -73 -20 -107 -23 -259 -23 -160 1 -181 3
-244 25 -67 24 -69 26 -87 75 -24 64 -24 66 7 55 85 -33 174 -45 319 -44 133
1 160 4 240 28 231 70 399 221 457 409 16 55 19 86 16 160 -7 122 -32 196
-118 342 -38 66 -73 134 -76 152 -8 45 15 103 51 125 36 22 109 24 158 3z
m-1133 -116 c17 -30 3 -92 -40 -185 -79 -171 -221 -340 -346 -413 -100 -58
-105 -62 -99 -71 11 -18 65 -11 114 15 l49 24 31 -61 c29 -56 79 -128 105
-153 6 -5 41 -44 78 -86 81 -91 132 -173 149 -241 15 -56 29 -70 139 -137 89
-56 168 -132 209 -205 41 -71 53 -113 40 -137 -20 -38 -55 -22 -151 66 -83 76
-100 87 -163 105 -132 38 -261 109 -350 191 -45 41 -45 41 -45 15 0 -14 5 -35
12 -46 16 -24 11 -28 -53 -46 -55 -16 -244 -21 -301 -9 -42 10 -34 -9 16 -39
37 -22 61 -27 142 -31 114 -7 165 -29 241 -104 87 -87 122 -163 88 -191 -23
-19 -54 -6 -134 55 -40 30 -76 55 -81 55 -49 0 -198 38 -270 69 -303 131 -531
484 -530 821 1 72 20 193 33 206 2 2 37 -3 78 -12 123 -26 328 -7 443 41 16 7
17 5 11 -16 -7 -23 -7 -23 11 -8 11 9 49 35 86 57 135 81 237 189 334 351 77
130 128 170 154 120z m-1756 -180 c14 -11 51 -54 82 -95 131 -174 264 -246
456 -245 l87 0 -24 -35 c-14 -20 -30 -51 -37 -70 l-12 -34 -68 0 c-85 0 -160
20 -257 67 -101 50 -225 172 -270 266 -36 75 -41 140 -13 156 24 14 26 14 56
-10z"/>
<path d="M1860 3105 c-53 -28 -67 -105 -17 -91 57 17 87 18 117 3 37 -19 60
-13 60 17 -1 64 -95 107 -160 71z"/>
<path d="M2395 3109 c-39 -11 -73 -42 -81 -75 -10 -38 8 -50 54 -36 53 16 87
15 123 -4 39 -20 59 -12 59 23 -1 63 -84 112 -155 92z"/>
<path d="M2073 2994 c-3 -8 -1 -20 6 -27 19 -19 12 -47 -15 -59 -23 -11 -28
-9 -48 17 -24 30 -46 28 -46 -5 0 -31 39 -60 80 -60 20 0 40 4 46 10 6 6 23 3
49 -10 55 -27 104 -14 131 35 17 32 17 36 2 51 -15 15 -17 14 -32 -15 -20 -39
-59 -50 -86 -26 -21 19 -27 55 -10 55 6 0 10 11 10 25 0 23 -4 25 -40 25 -28
0 -43 -5 -47 -16z"/>
<path d="M2389 630 c-75 -4 -194 -16 -265 -26 -113 -17 -123 -20 -79 -23 45
-4 40 -6 -50 -16 l-100 -12 95 -3 c62 -2 79 -5 50 -8 l-45 -4 75 -19 c41 -10
83 -16 92 -13 9 3 29 -3 44 -12 23 -16 64 -18 427 -18 276 0 426 4 477 13 102
17 114 24 55 32 -44 6 -41 7 30 7 109 -1 132 4 60 12 -53 6 -47 7 50 9 70 2
103 5 90 11 -11 4 -38 6 -60 3 -22 -2 -65 0 -95 5 l-55 10 55 2 55 2 -45 8
c-248 43 -545 57 -861 40z"/>
</g>
</svg>
